<svg fill="none" height="482" viewBox="0 0 420 482" width="420" xmlns="http://www.w3.org/2000/svg"><path d="m55.2239 53.0582c48.8231-42.608 114.9191-.012 179.1241 89.7908 64.204 89.804 94.755 52.033 149.376 91.583 54.621 39.546 69.144 201.669-123.176 185.91-192.3188-15.757-332.9748-255.886-205.3241-367.2838z" fill="#f0f0f0"/><path d="m86.1394 318.841c20.5976-14.39 25.2706-41.101 24.4556-65.112-.136-4.008.304-8.233-1.601-11.749-1.908-3.516-6.356-5.92-9.9439-4.231-2.9773 1.4-4.2733 4.863-5.9387 7.727-2.216 3.809-5.516 6.961-9.4 8.977-2.552 1.324-5.7106 2.135-8.2293.746-3.4573-1.908-3.8653-6.684-3.84-10.671.0467-7.431.092-14.86.1387-22.288.0253-3.985.0373-8.056-1.2027-11.84-1.24-3.783-3.9787-7.297-7.7707-8.36-3.7933-1.061-8.4813 1.125-9.2826 5.027-.3334 1.624-.0027 3.309-.1134 4.964-.1106 1.654-.8813 3.485-2.4533 3.946-1.5907.467-3.1853-.664-4.3773-1.83-4.1147-4.024-6.9067-9.21-9.516-14.366-2.6094-5.156-5.1414-10.434-8.8747-14.825-3.7333-4.389-8.8973-7.868-14.6053-8.192-5.70937-.323-11.79204 3.201-13.234702 8.805-1.446668 5.62 1.832002 11.322 5.400002 15.871 5.2933 6.749 11.5547 12.717 18.5267 17.659 1.256.892 2.6173 1.856 3.0986 3.332.8654 2.658-1.6533 5.297-4.276 6.17-2.972.99-6.196.682-9.304 1.047-3.108.367-6.47464 1.737-7.65064 4.675-1.63333 4.074 1.77467 8.345 5.12804 11.142 6.7133 5.602 14.38 10.026 22.5586 13.022 2.932 1.073 6.0174 2.014 8.3827 4.074 2.364 2.062 3.7907 5.643 2.3627 8.451-1.4294 2.811-5.096 3.709-8.168 3.139-3.0707-.568-5.82-2.236-8.7467-3.34-5.4787-2.068-12.552-1.691-16.0613 3.044-2.3067 3.112-2.50938 7.445-1.3427 11.154 1.1653 3.71 3.5307 6.906 6.0427 9.852 8.78 10.3 20.02 18.594 32.728 23 12.7066 4.406 24.4813 5.599 37.1106.98z" fill="#091941"/><path d="m6.10941 180.102c-.00934.009.12267.139.38667.379.29466.262.68667.612 1.184 1.056 1.044.922 2.58262 2.284 4.51732 4.09 3.8747 3.602 9.316 9.02 15.2253 16.434 2.9667 3.694 6.048 7.877 9.276 12.428 3.22 4.558 6.6307 9.45 10.0227 14.728 3.392 5.274 6.788 10.928 9.8347 17.036 1.536 3.046 2.9066 6.236 4.304 9.488 1.3906 3.249 2.8013 6.548 4.2293 9.885 5.664 13.367 10.6467 26.288 14.2067 38.359 3.58 12.06 5.7106 23.237 6.6426 32.708.956 9.476.76 17.209.3734 22.514-.208 2.654-.4107 4.714-.5987 6.103-.076.667-.1373 1.192-.184 1.585-.0373.358-.0507.543-.0387.546.0134.001.0507-.179.1134-.534.0626-.39.148-.913.256-1.576.2346-1.385.4853-3.442.7373-6.1.4747-5.312.7507-13.072-.1427-22.589-.8706-9.512-2.956-20.744-6.5133-32.852-3.5333-12.117-8.5093-25.079-14.1787-38.456-1.4293-3.339-2.8426-6.639-4.2346-9.889-1.396-3.243-2.7814-6.459-4.332-9.52-3.072-6.138-6.4947-11.804-9.9107-17.082-3.416-5.281-6.8493-10.168-10.0933-14.713-3.2547-4.541-6.368-8.717-9.368-12.401-5.9787-7.394-11.4974-12.775-15.436-16.315-1.9667-1.777-3.53603-3.105-4.61336-3.992-.51867-.42-.924-.751-1.23066-1-.28-.221-.42667-.329-.43467-.32z" fill="#1a2e35"/><path d="m56.9871 245.896c.0493.008.1853-.597.3893-1.7.2093-1.102.46-2.705.74-4.69.564-3.97 1.1547-9.476 1.784-15.551.628-6.079 1.296-11.561 1.9187-15.511.3066-1.974.5693-3.572.7653-4.673.1907-1.103.272-1.719.2227-1.731-.0494-.01-.2254.584-.5014 1.671-.2826 1.085-.624 2.673-.996 4.644-.756 3.94-1.5093 9.437-2.1373 15.52-.6053 5.996-1.1533 11.421-1.5707 15.565-.2 1.872-.3706 3.448-.508 4.714-.116 1.113-.1573 1.734-.1066 1.742z" fill="#1a2e35"/><path d="m5.73701 236.318c-.00133.051.72801.136 2.044.246 1.31601.116 3.21869.276 5.56399.548 4.6947.506 11.1533 1.433 18.236 2.768 7.0813 1.348 13.4387 2.84 18.0054 4.052 2.2893.589 4.1266 1.117 5.4013 1.473 1.272.363 1.9826.54 2 .492.0146-.051-.6667-.32-1.916-.768-1.2507-.441-3.072-1.047-5.3494-1.704-4.544-1.345-10.904-2.923-18.008-4.276-7.1026-1.337-13.5986-2.187-18.32-2.56-2.3586-.205-4.27462-.287-5.59862-.313-1.324-.022-2.056-.01-2.05867.042z" fill="#1a2e35"/><path d="m79.3113 302.847c.024.01.1427-.204.352-.626.236-.501.5254-1.113.876-1.853.7534-1.613 1.784-3.977 3.0187-6.913 2.472-5.871 5.632-14.088 8.9973-23.203 3.3667-9.119 6.4467-17.355 8.7917-23.268 1.151-2.876 2.098-5.24 2.8-6.999.302-.762.548-1.39.751-1.908.164-.438.24-.674.217-.686-.024-.01-.144.205-.352.626-.237.502-.526 1.112-.876 1.854-.754 1.613-1.784 3.976-3.018 6.912-2.4737 5.87-5.6337 14.089-8.999 23.206-3.3653 9.116-6.4453 17.351-8.792 23.267-1.1507 2.873-2.096 5.239-2.7987 6.996-.3013.763-.5493 1.393-.752 1.908-.164.44-.24.676-.216.687z" fill="#1a2e35"/><path d="m11.2084 280.898c-.0067.025.2266.12.676.278.532.179 1.1853.398 1.9773.663 1.8267.592 4.2933 1.392 7.2933 2.364 6.1574 1.997 14.6307 4.852 23.988 8.02 9.3614 3.171 17.8694 5.951 24.0693 7.82 3.1001.937 5.6161 1.668 7.3641 2.139.8093.212 1.476.386 2.0173.529.464.113.7107.16.7173.136.0067-.026-.2266-.12-.676-.28-.5306-.177-1.184-.396-1.9773-.662-1.8267-.592-4.292-1.39-7.292-2.364-6.1573-1.995-14.6307-4.851-23.992-8.021-9.3587-3.169-17.864-5.949-24.0653-7.818-3.1-.938-5.616-1.668-7.3654-2.139-.8093-.212-1.4746-.388-2.0173-.529-.464-.114-.7093-.162-.7173-.136z" fill="#1a2e35"/><path d="m241.777.613556-25.82-.118683c-3.463-.015991-6.283 2.905337-6.297 6.525327l-.022 4.6827c-.013 3.62-2.833 6.5426-6.296 6.5253l-50.329-.232c-3.463-.016-6.257-2.964-6.243-6.5827l.02-4.68398c.015-3.61999-2.78-6.56799-6.242-6.583982l-9.08-.041351-22.6-.10400389c-11.2229-.05200191-20.3629 9.00668689-20.4095 20.23071689l-1.3774 325.8831c-.048 11.218 9.004 20.352 20.2229 20.404l132.908.613c11.222.052 20.362-9.007 20.41-20.231l1.378-325.8838c.046-11.21737-9.006-20.350642-20.223-20.402644z" fill="#fff"/><path d="m188.847 293.541-39.337-.286-1.097 26.745 40.733-.378z" fill="#61d2d2"/><path d="m188.847 293.541-18.617-15.065c-.789-.638-1.917-.634-2.701.009l-18.02 14.77" fill="#61d2d2"/><path d="m189.146 319.622c.049-.046-3.1-3.485-7.033-7.679-3.935-4.196-7.163-7.559-7.212-7.513s3.1 3.483 7.034 7.68c3.933 4.194 7.162 7.558 7.211 7.512z" fill="#1a2e35"/><path d="m148.413 320c.05.044 3.117-3.325 6.849-7.524 3.734-4.201 6.719-7.642 6.668-7.687-.05-.045-3.116 3.324-6.85 7.525-3.732 4.199-6.717 7.641-6.667 7.686z" fill="#1a2e35"/><path d="m149.509 293.255 19.754 15.78 19.584-15.495" fill="#000" opacity=".125"/><path d="m186.866 295.002.061-12.286-34.445-.407-.388 12.926 17.171 13.593z" fill="#fafafa"/><path d="m186.866 295.002s-.111.083-.323.247c-.212.166-.525.41-.934.728-.819.64-2.02 1.58-3.555 2.78-3.067 2.405-7.469 5.855-12.811 10.043l.044.001c-4.947-3.919-10.816-8.568-17.166-13.599l.016.035c.074-2.466.152-5.054.231-7.686.053-1.773.106-3.524.157-5.241l-.043.042c13.881.158 26.126.297 34.445.392l-.027-.028c-.014 3.865-.025 6.935-.032 9.039-.002 1.052-.004 1.863-.005 2.412 0 .273.001.481.001.623 0 .14.002.212.002.212s.003-.07.005-.209c.001-.141.003-.348.006-.62.005-.548.011-1.357.02-2.408.013-2.107.033-5.179.058-9.049v-.028h-.027c-8.319-.102-20.565-.252-34.446-.423h-.042l-.001.042c-.052 1.717-.104 3.469-.158 5.241-.079 2.633-.156 5.22-.23 7.686l-.001.022.017.013c6.354 5.027 12.227 9.672 17.176 13.587l.022.018.022-.018c5.338-4.202 9.736-7.664 12.801-10.077 1.529-1.205 2.725-2.149 3.539-2.792.406-.321.716-.566.926-.733.208-.166.313-.252.313-.252z" fill="#1a2e35"/><path d="m157.926 288.494c0 .024 5.268.076 11.764.115 6.499.04 11.766.052 11.766.028.001-.024-5.266-.075-11.765-.115-6.497-.039-11.765-.052-11.765-.028z" fill="#1a2e35"/><path d="m157.926 291.965c0 .024 5.268.075 11.764.115 6.499.039 11.766.052 11.766.028.001-.024-5.266-.076-11.765-.115-6.497-.04-11.765-.052-11.765-.028z" fill="#1a2e35"/><path d="m157.926 295.965c0 .024 5.268.075 11.764.115 6.499.039 11.766.052 11.766.028.001-.024-5.266-.076-11.765-.115-6.497-.04-11.765-.052-11.765-.028z" fill="#1a2e35"/><path d="m157.926 299.965c0 .024 5.026.074 11.224.111 6.2.038 11.225.049 11.225.025s-5.024-.074-11.225-.112c-6.198-.037-11.224-.048-11.224-.024z" fill="#1a2e35"/><path d="m162.332 303.476c0 .003.047.006.138.009.098.003.23.007.395.011.353.006.848.014 1.456.024 1.236.018 2.929.042 4.8.069 1.876.031 3.574.042 4.803.043.608-.001 1.103-.002 1.456-.003.165-.003.297-.004.395-.006.091-.002.138-.005.138-.008s-.047-.006-.138-.009c-.098-.003-.23-.007-.395-.011-.352-.006-.847-.014-1.455-.024-1.237-.018-2.93-.042-4.802-.069-1.875-.031-3.573-.042-4.802-.043-.608.001-1.103.002-1.456.003-.165.003-.297.004-.395.006-.091.002-.138.005-.138.008z" fill="#1a2e35"/><path d="m166.766 306.85c0 .024 1.123.044 2.508.044 1.386 0 2.509-.02 2.509-.044s-1.123-.043-2.509-.043c-1.385 0-2.508.019-2.508.043z" fill="#1a2e35"/><path d="m144.322 102.677-34.288-.159.027-6.2905 34.288.1587z" fill="#091941"/><path d="m244.909 134.993c-.005-.026.287.016.783-.184.466-.181 1.206-.749 1.292-1.793-.004-2.127-.011-5.217-.019-9.187 0-1.997-.001-4.216-.003-6.641.002-.608.002-1.228.002-1.861.017-.647.016-1.248-.374-1.747-.35-.493-.95-.809-1.577-.812-.684-.001-1.38-.003-2.088-.004-5.673-.011-12.128-.024-19.26-.037-28.563-.107-67.983-.252-111.52-.414-.575-.005-1.136.276-1.469.743-.371.471-.355 1.028-.347 1.743-.005 1.353-.011 2.701-.017 4.046-.012 2.688-.023 5.36-.035 8.011-.007 1.327-.012 2.647-.019 3.963.022.63-.061 1.385.056 1.874.132.536.538.99 1.04 1.203.263.107.508.144.826.141l.976.006 1.946.008c1.295.006 2.584.013 3.867.02 10.269.054 20.173.108 29.611.157 18.865.115 35.857.219 50.136.305 14.252.114 25.794.204 33.8.267 3.97.047 7.062.083 9.189.108 1.032.02 1.825.035 2.389.045.539.015.815.04.815.04s-.276.023-.815.031c-.564.007-1.357.015-2.389.024-2.128.005-5.22.013-9.191.023-8.006-.011-19.548-.027-33.8-.046-14.278-.045-31.272-.098-50.138-.157-9.436-.037-19.34-.076-29.61-.117-1.282-.006-2.572-.01-3.866-.016l-1.947-.008-.976-.004c-.333.006-.747-.046-1.088-.195-.699-.293-1.255-.919-1.44-1.66-.105-.376-.081-.759-.083-1.067l.004-.985c.006-1.316.011-2.637.016-3.963.011-2.652.022-5.322.032-8.01.006-1.346.012-2.694.016-4.047.011-.347-.018-.651.035-1.065.06-.39.211-.766.445-1.083.458-.644 1.244-1.039 2.034-1.029 43.537.24 82.956.458 111.518.617 7.134.052 13.588.099 19.262.14.708.005 1.404.011 2.088.017.748.007 1.457.391 1.865.978.457.574.453 1.361.428 1.957-.005.633-.009 1.253-.015 1.86-.022 2.427-.041 4.645-.058 6.643-.05 3.973-.087 7.068-.114 9.196-.116 1.112-.913 1.682-1.406 1.849-.52.183-.807.117-.807.117z" fill="#e1e1e1"/><path d="m181.961 126.598-62.724-.289.026-5.882 62.724.29z" fill="#091941"/><path d="m144.08 160.095-34.288-.159.026-6.291 34.288.158z" fill="#091941"/><path d="m244.029 192.408c-.003-.024.28.001.791-.15.483-.158 1.263-.558 1.687-1.51.229-.47.252-1.039.231-1.691-.003-.648-.005-1.353-.008-2.119-.003-1.534-.007-3.3-.009-5.285 0-1.991-.002-4.201-.002-6.619v-1.853c.028-.637-.049-1.228-.389-1.76-.321-.523-.841-.937-1.449-1.124-.598-.188-1.311-.085-2.015-.115-5.653-.01-12.086-.024-19.194-.037-28.463-.105-67.746-.251-111.132-.412-1.206-.029-2.319.953-2.435 2.147-.04 1.268-.02 2.669-.035 3.992-.012 2.678-.022 5.341-.034 7.982-.006 1.322-.012 2.638-.018 3.95.022.654-.072 1.338.084 1.861.151.551.503 1.044.974 1.367.488.329 1.017.45 1.657.426l1.94.01c1.291.006 2.575.013 3.855.02 10.232.054 20.102.106 29.506.156 18.8.114 35.734.218 49.963.305 14.203.112 25.704.204 33.681.265 3.957.048 7.039.083 9.157.108 1.03.02 1.821.035 2.383.046.536.014.811.04.811.04s-.275.022-.812.03c-.561.007-1.354.015-2.383.024-2.117.006-5.2.014-9.157.024-7.977-.012-19.48-.026-33.683-.046-14.229-.044-31.161-.098-49.964-.156-9.402-.038-19.273-.076-29.506-.116-1.279-.006-2.564-.011-3.855-.016l-1.939-.008c-.652.034-1.453-.124-2.042-.544-.603-.415-1.055-1.044-1.248-1.754-.199-.746-.08-1.396-.11-2.046.004-1.311.01-2.627.015-3.948.011-2.643.021-5.304.032-7.984.016-1.356-.011-2.646.039-4.071.148-1.535 1.58-2.797 3.126-2.757 43.387.238 82.67.456 111.132.614 7.108.052 13.54.099 19.193.14.698.038 1.403-.076 2.125.146.696.218 1.285.694 1.645 1.293.383.585.465 1.333.426 1.949-.005.631-.008 1.248-.013 1.854-.021 2.417-.043 4.628-.058 6.618-.022 1.986-.041 3.751-.055 5.286-.01.764-.018 1.47-.026 2.118.013.635-.025 1.267-.276 1.747-.469.991-1.293 1.38-1.797 1.521-.529.132-.809.082-.809.082z" fill="#e1e1e1"/><path d="m143.827 219.978-34.288-.157.025-6.292 34.29.157z" fill="#091941"/><path d="m243.775 252.292c-.001-.024.281.001.791-.148.485-.159 1.264-.56 1.688-1.512.228-.469.252-1.039.23-1.691-.002-.648-.005-1.353-.008-2.118-.002-1.535-.005-3.3-.008-5.284-.001-1.992-.001-4.203-.002-6.62 0-.604.001-1.223.001-1.855.027-.636-.049-1.227-.389-1.759-.323-.522-.842-.937-1.45-1.124-.597-.188-1.31-.085-2.016-.114-5.652-.012-12.085-.024-19.193-.038-28.464-.105-67.745-.252-111.132-.412-1.207-.029-2.319.954-2.435 2.147-.04 1.268-.021 2.668-.034 3.992-.012 2.677-.023 5.341-.035 7.983-.007 1.321-.012 2.637-.017 3.949.021.653-.072 1.337.082 1.86.151.552.503 1.045.974 1.368.489.329 1.018.452 1.658.427l1.939.009c1.291.007 2.576.013 3.855.02 10.232.055 20.102.107 29.506.156 18.8.116 35.734.219 49.963.305 14.203.112 25.704.204 33.681.266 3.958.048 7.04.084 9.158.109 1.029.019 1.821.033 2.382.045.536.014.811.039.811.039s-.275.023-.811.031c-.562.005-1.353.013-2.382.024-2.119.005-5.202.013-9.159.024-7.977-.012-19.479-.027-33.683-.047-14.229-.044-31.161-.097-49.962-.156-9.404-.037-19.275-.075-29.507-.116-1.28-.005-2.564-.011-3.855-.016l-1.94-.008c-.652.035-1.453-.124-2.041-.544-.604-.415-1.055-1.045-1.249-1.753-.199-.747-.08-1.398-.11-2.047.006-1.311.011-2.628.016-3.948.011-2.643.022-5.305.032-7.984.015-1.357-.01-2.645.039-4.071.148-1.534 1.58-2.797 3.127-2.757 43.386.239 82.668.456 111.132.615 7.106.052 13.54.098 19.193.14.697.036 1.403-.076 2.124.145.695.219 1.284.696 1.645 1.293.383.587.466 1.334.427 1.95-.005.63-.009 1.249-.015 1.853-.021 2.417-.041 4.628-.057 6.619-.021 1.985-.04 3.75-.055 5.285-.009.764-.018 1.471-.026 2.117.012.638-.026 1.268-.276 1.75-.468.989-1.294 1.38-1.796 1.52-.53.13-.811.081-.811.081z" fill="#e1e1e1"/><g fill="#091941"><path d="m181.719 184.016-62.724-.289.024-5.882 62.725.29z"/><path d="m124.718 241.408c-.007 1.615-1.24 2.917-2.755 2.912-1.515-.008-2.736-1.324-2.729-2.939.006-1.613 1.24-2.918 2.754-2.91 1.514.006 2.736 1.321 2.73 2.937z"/><path d="m133.215 241.447c-.007 1.615-1.24 2.917-2.755 2.912-1.514-.007-2.736-1.323-2.729-2.939.007-1.613 1.24-2.917 2.755-2.91 1.513.006 2.736 1.321 2.729 2.937z"/><path d="m141.712 241.486c-.007 1.615-1.24 2.919-2.755 2.912s-2.736-1.323-2.729-2.939c.006-1.613 1.24-2.917 2.754-2.91 1.514.006 2.736 1.321 2.73 2.937z"/><path d="m150.209 241.525c-.007 1.615-1.24 2.919-2.754 2.912s-2.737-1.323-2.73-2.939c.006-1.613 1.24-2.917 2.754-2.91 1.515.008 2.738 1.322 2.73 2.937z"/><path d="m158.706 241.564c-.007 1.616-1.24 2.919-2.753 2.912-1.515-.007-2.738-1.323-2.731-2.937.008-1.615 1.24-2.919 2.755-2.912 1.514.008 2.736 1.322 2.729 2.937z"/><path d="m167.203 241.603c-.006 1.616-1.24 2.919-2.754 2.912-1.515-.006-2.736-1.322-2.73-2.937.007-1.615 1.239-2.919 2.754-2.912 1.516.008 2.737 1.323 2.73 2.937z"/><path d="m175.701 241.642c-.008 1.616-1.242 2.919-2.755 2.914-1.515-.008-2.736-1.324-2.729-2.939.006-1.615 1.238-2.919 2.753-2.911 1.515.007 2.737 1.322 2.731 2.936z"/><path d="m184.197 241.681c-.007 1.616-1.24 2.919-2.754 2.914-1.514-.008-2.737-1.323-2.729-2.939.007-1.613 1.239-2.919 2.753-2.911 1.515.007 2.738 1.322 2.73 2.936z"/><path d="m192.694 241.722c-.006 1.614-1.24 2.917-2.753 2.912-1.515-.007-2.737-1.323-2.731-2.939.008-1.613 1.24-2.917 2.755-2.911 1.515.007 2.737 1.322 2.729 2.938z"/><path d="m180.627 49.2328c1.794-.752 3.07-2.6026 3.081-4.7826.011-2.856-2.151-5.1827-4.829-5.1947-2.676-.012-4.858 2.2933-4.87 5.1493-.009 2.2 1.276 4.0734 3.09 4.828-7.462 1.124-7.123 9.2347-7.123 9.2347l17.645.0813s.403-8.1986-6.994-9.316z"/><path d="m209.268 71.3812-62.922-.2906.032-7.5227 62.921.2893z"/><path d="m306.178 475.68v-11.408l20.442-.136.169 17.234-1.268.094c-5.639.364-28.693.895-32.472-.274-4.213-1.306 13.129-5.51 13.129-5.51z"/></g><path d="m292.566 480.119c0 .193 7.646.348 17.076.348 9.433 0 17.077-.155 17.077-.348 0-.192-7.644-.347-17.077-.347-9.43 0-17.076.155-17.076.347z" fill="#1a2e35"/><path d="m305.819 478.008c.168-.088.024-.692-.416-1.285-.437-.596-.972-.912-1.105-.779-.138.139.144.64.546 1.191.406.548.804.964.975.873z" fill="#1a2e35"/><path d="m304.515 478.76c.177-.067.085-.743-.316-1.454-.4-.713-.932-1.14-1.08-1.022-.153.118.104.701.475 1.364.373.66.74 1.182.921 1.112z" fill="#1a2e35"/><path d="m320.561 480.068c.08.056.384-.244.827-.746.445-.498 1.028-1.202 1.792-1.795.76-.593 1.595-.889 2.212-.967.621-.082 1.029.014 1.064-.086.036-.075-.344-.36-1.08-.404-.727-.05-1.752.226-2.619.906-.862.674-1.414 1.476-1.765 2.058-.349.586-.508.981-.431 1.034z" fill="#1a2e35"/><path d="m305.757 475.864c-.1.161.251.557.833.77.583.216 1.108.142 1.136-.046.031-.192-.385-.415-.896-.604-.512-.188-.972-.286-1.073-.12z" fill="#1a2e35"/><path d="m306.078 474.761c-.019.192.526.356 1.216.364.69.009 1.24-.139 1.226-.331-.013-.19-.557-.353-1.217-.362-.657-.01-1.207.138-1.225.329z" fill="#1a2e35"/><path d="m255.843 475.68v-11.408l20.441-.136.17 17.059-1.268.093c-5.639.364-28.695 1.071-32.472-.098-4.214-1.306 13.129-5.51 13.129-5.51z" fill="#091941"/><path d="m242.23 480.145c0 .192 7.646.348 17.076.348 9.434 0 17.078-.156 17.078-.348s-7.644-.348-17.078-.348c-9.43 0-17.076.156-17.076.348z" fill="#1a2e35"/><path d="m255.483 478.008c.168-.088.024-.692-.416-1.285-.437-.596-.972-.912-1.105-.779-.138.139.144.64.546 1.191.406.548.804.964.975.873z" fill="#1a2e35"/><path d="m254.179 478.76c.178-.067.086-.743-.316-1.454-.4-.713-.932-1.14-1.08-1.022-.153.118.104.701.475 1.364.375.66.74 1.182.921 1.112z" fill="#1a2e35"/><path d="m270.226 480.068c.08.056.384-.244.827-.746.444-.498 1.028-1.202 1.792-1.795.758-.593 1.594-.889 2.212-.967.621-.082 1.029.014 1.064-.086.036-.075-.344-.36-1.08-.404-.727-.05-1.752.226-2.62.906-.863.674-1.414 1.476-1.766 2.058-.348.586-.506.981-.429 1.034z" fill="#1a2e35"/><path d="m255.421 475.864c-.1.161.251.557.834.77.584.216 1.108.142 1.136-.046.03-.192-.384-.415-.895-.604-.513-.188-.973-.286-1.075-.12z" fill="#1a2e35"/><path d="m255.742 474.761c-.018.192.527.356 1.216.364.691.009 1.239-.139 1.227-.331-.015-.19-.559-.353-1.217-.362-.659-.01-1.207.138-1.226.329z" fill="#1a2e35"/><path d="m180.542 137.152c.533-.55 1.845-.291 1.845-.291s-.229-1.557.013-2.312c.24-.753 1.922-.608 1.922-.608s.104-.725-.043-1.896c-.039-.292.124-.509.391-.671.794-.481 2.51-.457 2.51-.457 1.031-.736-3.134-6.56-4.678-8.425-1.527-1.842-1.27-3.316.108-3.315.938.003 5.8 5.6 7.285 7.48 1.483 1.879 5.46 7.107 5.596 2.935.135-4.172 1.812-7.328 2.859-7.867 1.048-.537 2.178.724 1.598 1.883-.468.936-.765 2.74-.933 4.104-.137 1.125-.092 2.266.155 3.373.696 3.125 1.442 5.155 1.794 6.021l.103-.057s29.103 27.905 31.2 29.897c1.888 1.792 39.704-2.12 47.28-2.924 2.071-.232 5.137-.648 7.795-.532 3.285.144 3.87.611 7.16.655 10.07.135 18.464 1.116 24.71 2.173 7.552 1.278 13.744 6.652 16.082 13.947 7.646 23.864 24.945 80.359 28.028 112.096 2.428 4.565 5.141 9.897 6.244 12.897 2.142 5.834 1.622 6.034.9 6.167-1.938.359-4.156-10.117-4.986-7.589-.829 2.528 4.203 12.497 2.162 12.789-2.662.38-4.783-10.629-5.031-11.549-.241-.892-1.584-.591-1.316.226.385 1.175 4.137 13.615 1.528 14.014-1.447.221-1.603-2.414-1.603-2.414s-2.652-11.897-3.877-11.668c-1.245.232.077 7.271.691 9.612.606 2.314-.248 3.543-1.495 2.96-.852-.397-2.9-7.524-3.453-9.853-.554-2.329-1.955-8.747-3.838-5.021-1.882 3.725-4.733 5.88-5.909 5.926-1.177.046-1.671-1.573-.656-2.381.821-.651 1.851-2.161 2.577-3.328.6-.961 1.04-2.016 1.283-3.123.937-4.266.929-6.746.929-6.746l.218-1.372c-2.986-14.79-11.592-58.183-23.955-85.906l-5.091 10.476-2.209 7.756 13.567 33.518-57.884-.763 8.629-33.252-10.484-34.672v-.001c-11.347.253-40.489.676-45.387-1.514-6.105-2.728-37.704-42.56-37.704-42.56h.002c-2.135-1.7-4.306-3.529-5.907-5.124 0 0-1.883-1.524-.725-2.714z" fill="#ffbf9d"/><path d="m332.523 233.075c-1.676-5.732-10.305-34.076-10.305-34.076s-4.235 23.108-3.122 25.89c1.283 3.208 3.64 6.878 3.64 6.878 9.787 14.904 8.503 22.353 8.503 22.353l-59.121-1.803c-.144-8.269 4.75-27.492 5.773-30.553 1.024-3.063-2.371-13.115-2.371-13.115s-6.681-6.785-6.422-10.277c.521-7.035 1.165-9.308 1.165-9.308l-35.975 1.324 1.131-24.408 51.711-5.175c1.789 5.092 18.073 2.598 18.073 2.598 17.58.577 18.644 3.81 25.975 9.486 7.33 5.676 19.404 54.426 19.404 54.426z" fill="#61d2d2"/><path d="m297.559 227.309c.001.092 1.19.171 3.116.157 1.924-.012 4.582-.13 7.506-.424 2.924-.296 5.554-.708 7.442-1.08 1.889-.37 3.04-.682 3.021-.774-.017-.098-1.199.045-3.1.29-1.901.247-4.525.58-7.432.872s-5.545.488-7.457.626-3.098.233-3.096.333z" fill="#1a2e35"/><path d="m293.511 222.28c-.025.084 1.195.548 3.228 1.1 2.032.551 4.885 1.16 8.081 1.542 3.196.378 6.115.456 8.219.394 2.107-.06 3.4-.226 3.396-.313-.005-.103-1.304-.112-3.395-.177-2.089-.066-4.973-.219-8.138-.594-3.163-.377-6.002-.904-8.05-1.329-2.048-.427-3.313-.721-3.341-.623z" fill="#1a2e35"/><path d="m273.624 199.853c-.092.02.06 1.172.404 3.016s.886 4.377 1.567 7.156c.681 2.78 1.375 5.277 1.923 7.07.548 1.795.945 2.887 1.037 2.862.093-.027-.137-1.164-.564-2.99-.504-2.08-1.083-4.469-1.723-7.108-.653-2.633-1.245-5.018-1.76-7.097-.466-1.813-.789-2.929-.884-2.909z" fill="#1a2e35"/><path d="m331.902 229.679c.051.185 4.128-.765 9.107-2.124 4.98-1.359 8.975-2.609 8.924-2.795-.051-.185-4.127.767-9.107 2.124-4.978 1.359-8.974 2.61-8.924 2.795z" fill="#1a2e35"/><path d="m269.612 188.752c0 .032.548.089 1.531-.008.977-.102 2.408-.328 4.065-.97 1.659-.621 3.544-1.66 5.305-3.23 1.763-1.564 3.336-3.716 4.34-6.25 1.02-2.529 1.355-5.166 1.195-7.514-.155-2.344-.775-4.463-1.825-5.947-1.038-1.504-2.415-2.233-3.374-2.485-.486-.128-.877-.159-1.138-.152-.263.006-.399.034-.398.056-.004.066.552.034 1.455.353.885.317 2.131 1.065 3.048 2.501 1.815 2.854 2.321 8.063.392 12.931-.967 2.435-2.453 4.503-4.125 6.033-1.671 1.538-3.468 2.587-5.058 3.248-3.204 1.33-5.437 1.286-5.413 1.434z" fill="#1a2e35"/><path d="m238.533 189.902c.192 0 .336-5.502.322-12.287-.013-6.788-.18-12.287-.372-12.287s-.336 5.502-.322 12.288c.013 6.786.18 12.286.372 12.286z" fill="#1a2e35"/><path d="m287.448 162.292c-.145-2.976-.457-6.337-.457-6.337s-7.358-.812-7.804-8.412c-.447-7.601 0-25.128 0-25.128l13.4-6.824 14.742 11.632-2.234 38.003-13.564.862c-2.138.136-3.974-1.568-4.083-3.796z" fill="#ffbf9d"/><path d="m286.122 141.53c-.022.005-.023.141.116.326.136.179.433.382.846.374.855-.042 1.676-.986 1.98-2.138.151-.585.151-1.178.036-1.689-.09-.504-.381-1.008-.8-1.145-.2-.075-.408-.067-.566.013-.156.077-.251.197-.302.305-.098.227-.021.364-.002.354.03-.003.022-.127.134-.27.104-.145.355-.277.632-.133.283.128.478.489.548.952.084.46.074.985-.061 1.507-.267 1.033-.983 1.877-1.619 1.954-.316.04-.577-.081-.718-.197-.144-.119-.196-.225-.224-.213z" fill="#ff9a6c"/><path d="m274.617 118.312c1.025-3.5 4.744-5.238 8.133-6.198 5.155-1.461 10.741-2.108 15.779-.253 5.037 1.855 11.094 5.117 11.093 10.683 2.973-.244 4.672 2.361 5.853 5.589.698 1.905 1.155 4.029 1.264 6.132l.048-.016c.383 7.284 2.412 17.32 7.135 22.707 2.608 2.974 6.363 5.03 7.883 8.734 1.321 3.22.637 7.026 1.886 10.276 1.103 2.87 3.544 4.907 5.295 7.403 3.812 5.437 4.072 13.119 1.271 19.187-2.802 6.068-8.352 10.508-14.514 12.542-6.161 2.035-12.873 1.811-19.144.179-4.629-1.207-9.133-3.201-12.822-6.353-3.69-3.154-6.52-7.538-7.364-12.43-.939-5.446.585-10.977 1.706-16.386 3.548-17.115 2.535-18.004-1.942-33.879-.1-.279-.163-.571-.24-.859-.06-.21-.116-.412-.178-.628l.01-.004c-.124-.621-.207-1.253-.21-1.898 1.296.51 2.863.172 3.856-.834.994-1.005 1.364-2.626.911-3.99-.52-1.57-1.96-2.619-3.439-3.24-1.478-.623-3.069-.931-4.521-1.622-3.079-1.464-5.212-4.505-6.665-7.69-1.018-2.232-1.776-4.79-1.084-7.152z" fill="#1a2e35"/><path d="m285.596 141.855c-.047-.02-.306.476-.702 1.317-.396.843-.928 2.031-1.517 3.396l-.112.259.283.024c.445.037.894.076 1.357.116.931.061 1.707.172 2.608.162.143-.025.301-.156.344-.302.048-.144.035-.266.02-.371-.039-.209-.084-.364-.125-.541l-.236-.944c-.295-1.152-.504-1.858-.56-1.846-.056.014.052.743.273 1.91l.185.954c.07.322.186.804.012.767-.664-.029-1.609-.14-2.486-.204-.464-.037-.914-.072-1.358-.108l.171.283c.571-1.372 1.055-2.582 1.384-3.451s.505-1.401.459-1.421z" fill="#ff4f5b"/><path d="m331.238 254.12-59.12-1.804-25.713 100.452 4.736 115.226h31.292l-3.879-112.772 22.87-69.928-3.523 187.168 31.591.465 3.329-175.931c.139-4.889 1.748-15.921 1.148-20.772z" fill="#1a2e35"/><path d="m293.55 286.714c.012.092 1.122.037 2.9-.172 1.779-.209 4.226-.584 6.906-1.123 2.68-.54 5.082-1.14 6.804-1.634 1.721-.495 2.765-.872 2.74-.963-.052-.192-4.346.848-9.682 1.917-5.332 1.078-9.693 1.778-9.668 1.975z" fill="#375a64"/><path d="m251.425 461.675c0 .193 7.084.348 15.821.348 8.74 0 15.823-.155 15.823-.348 0-.192-7.083-.347-15.823-.347-8.737 0-15.821.155-15.821.347z" fill="#375a64"/><path d="m298.184 467.6c0 .193 6.872.348 15.349.348 8.479 0 15.349-.155 15.349-.348 0-.192-6.87-.347-15.349-.347-8.477 0-15.349.155-15.349.347z" fill="#375a64"/><path d="m302.253 467.12c.192.003 1.023-40.896 1.856-91.337.834-50.46 1.352-91.356 1.162-91.357-.192-.003-1.023 40.886-1.856 91.345-.834 50.441-1.354 91.345-1.162 91.349z" fill="#375a64"/><path d="m255.628 461.675c.012 0 .016-.185.014-.544-.008-.393-.017-.923-.029-1.597-.041-1.443-.101-3.503-.179-6.14-.185-5.367-.453-13.071-.782-22.575-.731-19.089-1.738-45.401-2.848-74.465-.011-.268-.022-.538-.032-.784l-.01.098c7.007-28.057 13.34-53.416 17.931-71.804 2.253-9.16 4.079-16.58 5.351-21.75.61-2.542 1.086-4.53 1.42-5.919.149-.653.265-1.163.352-1.544.076-.348.109-.528.097-.531-.011-.002-.067.172-.165.515-.103.375-.242.881-.419 1.525-.364 1.383-.883 3.36-1.547 5.888-1.321 5.156-3.22 12.559-5.562 21.698-4.644 18.373-11.047 43.716-18.131 71.753l-.013.048.002.051c.01.246.022.514.031.784 1.191 29.06 2.269 55.369 3.052 74.457.423 9.5.765 17.199 1.004 22.565.132 2.634.236 4.694.308 6.134.041.674.073 1.204.099 1.596.025.358.044.542.056.541z" fill="#375a64"/><path d="m265.827 353.224c-.032.19 3.063.878 6.913 1.539 2.875.495 5.358.833 6.442.895l.002-.271c-.36.099-.553.176-.546.224.008.048.216.063.588.047l.809-.035-.807-.236c-1.042-.304-3.496-.813-6.37-1.307-3.851-.661-6.999-1.046-7.031-.856z" fill="#375a64"/><path d="m266.424 357.058c.027.193 2.804-.022 6.224-.284 3.42-.27 6.198-.488 6.194-.684-.004-.188-2.806-.28-6.248-.008-3.44.265-6.195.789-6.17.976z" fill="#375a64"/><path d="m331.501 256.243c-1.43 2.012-3.468 2.717-5.836 3.105-2.37.388-4.786.129-7.171-.135-15.26-1.693-31.431-3.256-46.376-6.896 19.345 1.084 39.775.719 59.12 1.803 0 0 .165 1.331.204 1.651" fill="#000" opacity=".00799964001"/><path d="m311.56 283.511-10.899 42.309.763-40.526z" fill="#000" opacity=".00799964001"/></svg>