<svg width="35" height="22" viewBox="0 0 35 22" fill="none" xmlns="http://www.w3.org/2000/svg">
<path d="M10.8785 21.7575C4.8805 21.7575 0 16.8774 0 10.879C0 4.88099 4.8801 0.000488281 10.8785 0.000488281C13.4013 0.000488281 15.8599 0.884088 17.801 2.48739C17.9098 2.57723 17.9731 2.71063 17.9731 2.85243C17.9731 2.99423 17.9106 3.12762 17.801 3.21747C15.5051 5.11317 14.1893 7.90557 14.1893 10.8795C14.1893 13.8545 15.5061 16.648 17.801 18.5435C17.9098 18.6343 17.9731 18.7657 17.9731 18.9077C17.9731 19.0478 17.9106 19.1829 17.801 19.2737C15.8609 20.8724 13.4014 21.7569 10.8785 21.7569V21.7575ZM10.8785 0.946988C5.4015 0.946988 0.946 5.40244 0.946 10.8795C0.946 16.3565 5.40145 20.812 10.8785 20.812C12.9945 20.812 15.0615 20.1309 16.7565 18.886C14.5164 16.8266 13.2432 13.9397 13.2432 10.8795C13.2432 7.81834 14.5164 4.93299 16.7565 2.87299C15.0604 1.62709 12.9944 0.946988 10.8785 0.946988Z" fill="#61D2D2"/>
<path d="M24.1215 21.7575C21.5987 21.7575 19.1383 20.8731 17.199 19.2715C17.0903 19.1807 17.027 19.0483 17.027 18.9055C17.027 18.7655 17.0895 18.6303 17.199 18.5432C19.4949 16.6484 20.8107 13.8541 20.8107 10.8782C20.8107 7.9042 19.493 5.1127 17.199 3.2162C17.0903 3.12733 17.027 2.99393 17.027 2.85194C17.027 2.71014 17.0895 2.57674 17.199 2.4869C19.14 0.8836 21.5986 0 24.1215 0C30.1195 0 35 4.8801 35 10.8785C35 16.876 30.1199 21.758 24.1215 21.758V21.7575ZM18.2435 18.8856C19.9386 20.1305 22.0064 20.8116 24.1215 20.8116C29.5985 20.8116 34.054 16.3561 34.054 10.8791C34.054 5.40207 29.5986 0.94657 24.1215 0.94657C22.0065 0.94657 19.9395 1.62667 18.2435 2.87257C20.4836 4.93292 21.7568 7.81787 21.7568 10.8791C21.7568 13.9392 20.4836 16.8261 18.2435 18.8856Z" fill="#61D2D2"/>
</svg>
