<svg width="35" height="23" viewBox="0 0 35 23" fill="none" xmlns="http://www.w3.org/2000/svg">
<path d="M0 0H3.46498V22.6069H0V0Z" fill="#61D2D2"/>
<path d="M31.535 0H35V22.6069H31.535V0Z" fill="#61D2D2"/>
<path d="M8.65894 0H10.3916V22.6069H8.65894V0Z" fill="#61D2D2"/>
<path d="M4.3291 0H5.19717V22.6069H4.3291V0Z" fill="#61D2D2"/>
<path d="M6.06152 0H6.92959V22.6069H6.06152V0Z" fill="#61D2D2"/>
<path d="M22.5161 0H25.9811V22.6069H22.5161V0Z" fill="#61D2D2"/>
<path d="M26.849 0H27.7135V22.6069H26.849V0Z" fill="#61D2D2"/>
<path d="M28.5778 0H29.4458V22.6069H28.5778V0Z" fill="#61D2D2"/>
<path d="M30.0515 0H30.9196V22.6069H30.0515V0Z" fill="#61D2D2"/>
<path d="M17.3215 0H18.1861V22.6069H17.3215V0Z" fill="#61D2D2"/>
<path d="M19.9188 0H21.6515V22.6069H19.9188V0Z" fill="#61D2D2"/>
<path d="M11.2592 0H12.1237V22.6069H11.2592V0Z" fill="#61D2D2"/>
<path d="M12.9917 0H16.4532V22.6069H12.9917V0Z" fill="#61D2D2"/>
</svg>
