<svg width="70" height="70" viewBox="0 0 70 70" fill="none" xmlns="http://www.w3.org/2000/svg">
<circle cx="35" cy="35" r="34.5" fill="#61D2D2" stroke="white" stroke-dasharray="2 2"/>
<path d="M45.5741 47.1544H46.3048V29.6179H24.3842V47.1544H29.499V43.501C29.499 42.2588 30.4489 41.3089 31.691 41.3089H38.9979C40.2401 41.3089 41.19 42.2588 41.19 43.501V47.1544H45.5741ZM35.3445 40.5782C34.5407 40.5782 33.8831 39.9206 33.8831 39.1168C33.8831 38.3131 34.5407 37.6555 35.3445 37.6555C36.1482 37.6555 36.8059 38.3131 36.8059 39.1168C36.8059 39.9206 36.1482 40.5782 35.3445 40.5782ZM35.3445 36.1941C33.737 36.1941 32.4217 34.8788 32.4217 33.2713C32.4217 31.6638 33.737 30.3486 35.3445 30.3486C36.952 30.3486 38.2672 31.6638 38.2672 33.2713C38.2672 34.8788 36.952 36.1941 35.3445 36.1941Z" fill="white"/>
<path d="M30.9604 43.501V47.1545H34.6139V42.7704H31.6911C31.2527 42.7704 30.9604 43.0626 30.9604 43.501Z" fill="white"/>
<path d="M36.0751 42.7704V47.1545H39.7286V43.501C39.7286 43.0626 39.4363 42.7704 38.9979 42.7704H36.0751Z" fill="white"/>
<path d="M47.7664 48.6159H22.923V50.0773H47.7664V48.6159Z" fill="white"/>
<path d="M20 51.5386V53H50.6889V51.5386H20Z" fill="white"/>
<path d="M21.5336 25.2338H49.1536L35.3432 18L21.5336 25.2338Z" fill="white"/>
<path d="M36.8054 33.2714C36.8054 34.0784 36.1511 34.7328 35.3441 34.7328C34.537 34.7328 33.8827 34.0784 33.8827 33.2714C33.8827 32.4644 34.537 31.81 35.3441 31.81C36.1511 31.81 36.8054 32.4644 36.8054 33.2714Z" fill="white"/>
<path d="M22.923 28.1566H47.7664V26.6952H22.923V28.1566Z" fill="white"/>
</svg>
