<svg width="35" height="18" viewBox="0 0 35 18" fill="none" xmlns="http://www.w3.org/2000/svg">
<path d="M33.7957 0L1.20445 0C0.538816 0 0 0.539058 0 1.20418L0 15.9581C0 16.6235 0.538781 17.1626 1.20445 17.1626H33.7964C34.4612 17.1626 35 16.6235 35 15.9581V1.20418C35 0.539348 34.4612 0.000276813 33.7961 0.000276813L33.7957 0ZM5.93503 15.2816H1.95524L1.95524 11.3703H2.83966V14.3972H5.93468L5.93503 15.2816ZM5.93503 2.76481H2.84001V5.7917H1.95531L1.95531 1.88039L5.93482 1.88039L5.93503 2.76481ZM20.6724 13.0478C20.2355 13.4214 19.6878 13.6802 19.0341 13.829V14.9106C19.0341 15.2251 18.7791 15.4805 18.4642 15.4805C18.1497 15.4805 17.8943 15.2254 17.8943 14.9106V13.9693C17.7951 13.9734 17.6972 13.9788 17.5944 13.9788C17.4261 13.9788 17.2625 13.9734 17.1029 13.9642V14.9103C17.1029 15.2249 16.8479 15.4802 16.533 15.4802C16.2185 15.4802 15.9631 15.2251 15.9631 14.9103V13.794C15.3538 13.6431 14.8301 13.4013 14.399 13.0613C13.6235 12.4495 13.2354 11.6087 13.2354 10.5389H15.2864C15.3529 11.0081 15.483 11.36 15.6783 11.5924C16.0342 12.0157 16.6444 12.2275 17.5089 12.2275C18.0269 12.2275 18.4469 12.1715 18.7696 12.06C19.3822 11.8461 19.6886 11.4485 19.6886 10.867C19.6886 10.5273 19.5388 10.2641 19.2385 10.0785C18.9386 9.89733 18.4626 9.73694 17.8104 9.59738L16.6969 9.35259C15.6023 9.11106 14.8512 8.84816 14.4417 8.56442C13.7487 8.08973 13.402 7.34812 13.402 6.33865C13.402 5.4174 13.7409 4.65228 14.4187 4.04316C14.8204 3.68235 15.337 3.43135 15.962 3.28448V2.25071C15.962 1.93615 16.2171 1.68082 16.5319 1.68082C16.8465 1.68082 17.1018 1.93588 17.1018 2.25071V3.13894C17.2027 3.13488 17.3017 3.13001 17.4072 3.13001C17.573 3.13001 17.735 3.13867 17.8932 3.15192V2.25123C17.8932 1.93667 18.1488 1.68134 18.4631 1.68134C18.7774 1.68134 19.033 1.9364 19.033 2.25123V3.3818C19.4606 3.52461 19.8558 3.72585 20.2147 3.99199C20.9894 4.56675 21.3956 5.40009 21.4332 6.49362H19.3679C19.3295 5.8745 19.0533 5.43498 18.5381 5.17477C18.1949 5.00221 17.7678 4.91647 17.2577 4.91647C16.6902 4.91647 16.2372 5.02791 15.8985 5.25104C15.5602 5.47419 15.3909 5.78604 15.3909 6.18608C15.3909 6.55338 15.5577 6.82818 15.892 7.00971C16.1063 7.13007 16.5623 7.27261 17.2582 7.43489L19.063 7.86061C19.8542 8.0467 20.447 8.29526 20.8414 8.60711C21.4549 9.09072 21.7613 9.79072 21.7613 10.7071C21.7624 11.6464 21.3989 12.427 20.6723 13.0478L20.6724 13.0478ZM33.0437 14.3972V15.2816L29.0642 15.2816L29.0639 14.3972L32.159 14.3972V11.3703H33.0434L33.0437 14.3972ZM33.0437 2.76467V5.79156H32.1593V2.76467H29.0643V1.88025H33.0438L33.0437 2.76467Z" fill="#61D2D2"/>
</svg>
