<svg width="70" height="70" viewBox="0 0 70 70" fill="none" xmlns="http://www.w3.org/2000/svg">
<circle cx="35" cy="35" r="34.5" fill="#61D2D2" stroke="white" stroke-dasharray="2 2"/>
<path d="M35.9938 38.8277L35.9938 38.8277L35.9989 38.8234L52.5 25.1303V46.3952H18.5V25.1303L34.9993 38.8216C34.9998 38.822 35.0004 38.8225 35.0009 38.8229C35.0497 38.8635 35.0951 38.8874 35.1136 38.8969L35.1214 38.9008C35.1326 38.9076 35.161 38.9244 35.1979 38.9401L35.1982 38.9402C35.2797 38.9748 35.3825 39.0034 35.5002 39.0034C35.6185 39.0034 35.7211 38.9747 35.8023 38.9402L35.8024 38.9403L35.8122 38.9359C35.8423 38.9223 35.8659 38.9086 35.8791 38.9006C35.8811 38.8996 35.8831 38.8986 35.8851 38.8976C35.9063 38.8868 35.9482 38.8645 35.9938 38.8277ZM35.1299 38.905C35.1301 38.9051 35.13 38.9051 35.1297 38.9049L35.1299 38.905Z" fill="white" stroke="#61D2D2"/>
<path d="M18.9813 23.5H52.0202L35.5005 37.2081L18.9813 23.5Z" fill="white" stroke="#61D2D2"/>
</svg>
