<svg width="12" height="12" viewBox="0 0 12 12" fill="none" xmlns="http://www.w3.org/2000/svg">
<path fill-rule="evenodd" clip-rule="evenodd" d="M11.8819 0.112518C11.8136 0.0450183 11.7191 0 11.6145 0H8.25C8.04263 0 7.875 0.16875 7.875 0.375C7.875 0.58125 8.04263 0.75 8.25 0.75H10.7359L6.68624 4.80002L7.2165 5.32874L11.2616 1.28252L11.25 3.75C11.25 3.95625 11.4176 4.125 11.625 4.125C11.8324 4.125 12 3.95625 12 3.75V0.375C12 0.2625 11.9542 0.172518 11.8819 0.112518ZM4.7835 6.67126L0.738373 10.7175L0.75 8.25C0.75 8.04375 0.582375 7.875 0.375 7.875C0.167625 7.875 0 8.04375 0 8.25V11.625C0 11.7375 0.0457509 11.8275 0.118126 11.8875C0.186376 11.955 0.280881 12 0.385506 12H3.75C3.95738 12 4.125 11.8313 4.125 11.625C4.125 11.4187 3.95738 11.25 3.75 11.25H1.26413L5.31376 7.19998L4.7835 6.67126Z" fill="#444444"/>
</svg>
