<svg fill="none" height="22" viewBox="0 0 24 22" width="24" xmlns="http://www.w3.org/2000/svg"><path clip-rule="evenodd" d="m1.30417 6.52404 17.52183-3.97364-.2428-1.07098c-.0674-.30491-.375-.496352-.6771-.42897l-16.42096 3.69851c-.30491.06738-.496345.37229-.42896.67721.08355.36414.16454.73373.24825 1.09802zm-.14566-2.74616 16.62869-3.7418637c.7931-.1779923 1.5835.3210787 1.7617 1.1141937l1.7427 7.70204h-1.0414l-.7905-3.4882-17.52185 3.97364 1.08456 4.78321.09715.4235c.03777.17.20776.2806.38046.2401l.12949-.0296v1.0197l-.01889.0056c-.65818.1484-1.31378-.2697-1.46487-.9253l-2.1070342-9.3123c-.088996-.39663-.0243266-.76878.1915882-1.11419.215763-.34526.531391-.56118.928016-.65018zm4.31635 5.35221c-.81198 0-1.47303.66361-1.47303 1.47571v9.5823c0 .812.6609 1.4731 1.47303 1.4731h17.04954c.812 0 1.4756-.6636 1.4756-1.4731v-9.5823c0-.81195-.6636-1.47571-1.4756-1.47571zm16.69104 4.28931v-1.9505c0-.1268-.0999-.2267-.2267-.2267h-4.3624c-.124 0-.2266.1025-.2266.2267v1.9505c0 .124.1024.2266.2266.2266h4.3624c.1213 0 .2267-.0999.2267-.2266zm-3.2158 5.9134c-.1268 0-.2294-.1026-.2294-.2266v-.4532c0-.124.1026-.2266.2294-.2266h2.9864c.124 0 .2266.1026.2266.2266v.4532c0 .124-.1024.2266-.2266.2266zm-4.1678 0c-.1241 0-.2267-.1026-.2267-.2266v-.4506c0-.1267.1025-.2266.2267-.2266h2.9891c.124 0 .2266.1024.2266.2266v.4506c0 .124-.1026.2266-.2266.2266zm-4.1655 0c-.1241 0-.2267-.1026-.2267-.2266v-.4506c0-.1267.1025-.2266.2267-.2266h2.9891c.124 0 .2266.1024.2266.2266v.4506c0 .124-.1026.2266-.2266.2266zm-4.16514 0c-.12405 0-.22665-.1026-.22665-.2266v-.4506c0-.1267.1026-.2266.22665-.2266h2.98911c.12404 0 .22664.1024.22664.2266v.4506c0 .124-.10244.2266-.22664.2266z" fill="#c5c7d3" fill-rule="evenodd"/></svg>