<svg width="16" height="16" viewBox="0 0 16 16" fill="none" xmlns="http://www.w3.org/2000/svg"><path d="M5.63798 7.67193L5.68883 8.32811L11.1745 11.205C11.6824 10.7003 12.3935 10.3975 13.1555 10.3975C14.7301 10.3975 16 11.6593 16 13.1735C16 14.7382 14.7301 16 13.1555 16C11.5301 16 10.2603 14.6372 10.3618 13.0221L4.77467 10.0947C2.94614 11.7097 0 10.4984 0 8.02527C0 5.55212 2.89522 4.34085 4.72363 5.90547L10.3618 3.07894C10.3618 2.978 10.311 2.92747 10.311 2.82653C10.311 1.26185 11.5809 0 13.1555 0C14.7301 0 16 1.26185 16 2.82653C16 4.39121 14.7301 5.65305 13.1555 5.65305C12.3935 5.65305 11.7333 5.35022 11.2254 4.89591L5.63822 7.67189L5.63798 7.67193Z" fill="#C5C7D3"/></svg>
