<svg fill="none" height="17" viewBox="0 0 17 17" width="17" xmlns="http://www.w3.org/2000/svg"><g fill="#61d2d2"><path d="m15.1106 1.873h-.7868v.93654c0 .77447-.6353 1.40478-1.4165 1.40478-.7811 0-1.4168-.63007-1.4168-1.40478v-.93654h-1.57394v.93654c0 .77447-.6354 1.40478-1.41666 1.40478-.78102 0-1.41666-.63007-1.41666-1.40478v-.93654h-1.57398v.93654c0 .77447-.63568 1.40478-1.41666 1.40478-.78102 0-1.41643-.63007-1.41643-1.40478v-.93654h-.78714c-1.041713 0-1.88903.83994-1.88903 1.87305v11.38105c0 1.0329.847317 1.8728 1.88903 1.8728h13.22167c1.0416 0 1.8892-.8399 1.8892-1.8728l.0001-11.38105c0-1.03284-.8476-1.87291-1.8892-1.87291zm.6297 13.2541c0 .344-.2823.6243-.6297.6243h-13.22164c-.34705 0-.62955-.2801-.62955-.6243v-8.88407c0-.34469.28195-.62427.62955-.62427h13.22164c.3479 0 .6297.27932.6297.62427z"/><path d="m4.0929 3.74599c.52179 0 .94446-.41939.94446-.93654v-1.87291c0-.517144-.42294-.93654-.94446-.93654s-.94446.419396-.94446.93654v1.87305c0 .51714.42294.9364.94446.9364z"/><path d="m8.50016 3.74599c.52152 0 .94405-.41939.94405-.93654v-1.87291c0-.517144-.42253-.93654-.94405-.93654-.52179 0-.94447.419396-.94447.93654v1.87305c.00027.51714.42281.9364.94447.9364z"/><path d="m12.9071 3.74599c.5215 0 .9446-.41939.9446-.93654v-1.87291c0-.517144-.4231-.93654-.9446-.93654s-.9442.419396-.9442.93654v1.87305c0 .51714.4227.9364.9442.9364z"/><path d="m4.33493 6.93359h-1.05393c-.29112 0-.52709.234-.52709.52268v1.04508c0 .28842.23598.52268.52709.52268h1.05393c.29112 0 .5271-.234.5271-.52268v-1.04535c0-.28868-.23598-.52241-.5271-.52241z"/><path d="m7.46286 6.93359h-1.05393c-.29112 0-.52709.234-.52709.52268v1.04508c0 .28842.23598.52268.52709.52268h1.05393c.29112 0 .52709-.234.52709-.52268v-1.04535c-.00026-.28868-.23611-.52241-.52709-.52241z"/><path d="m10.5909 6.93359h-1.05355c-.29112 0-.5271.234-.5271.52268v1.04508c0 .28842.23585.52268.5271.52268h1.05355c.2913 0 .5272-.234.5272-.52268v-1.04535c-.0001-.28868-.2359-.52241-.5272-.52241z"/><path d="m13.7192 6.93359h-1.0539c-.2909 0-.5271.234-.5271.52268v1.04508c0 .28842.236.52268.5271.52268h1.0539c.2911 0 .5272-.234.5272-.52268v-1.04535c-.0004-.28868-.2362-.52241-.5272-.52241z"/><path d="m4.33499 9.64017h-1.05392c-.29113 0-.5271.234-.5271.52283v1.0449c0 .2884.23598.5227.5271.5227h1.05392c.29112 0 .5271-.234.5271-.5227v-1.0449c0-.28896-.23598-.52283-.5271-.52283z"/><path d="m7.46286 9.64014h-1.05393c-.29112 0-.52709.234-.52709.52276v1.045c0 .2884.23598.5227.52709.5227h1.05393c.29112 0 .52709-.234.52709-.5227v-1.045c-.00026-.28889-.23611-.52276-.52709-.52276z"/><path d="m10.5909 9.64014h-1.05355c-.29112 0-.5271.234-.5271.52276v1.045c0 .2884.23585.5227.5271.5227h1.05355c.2913 0 .5272-.234.5272-.5227v-1.045c-.0001-.28889-.2359-.52276-.5272-.52276z"/><path d="m13.7192 9.64014h-1.0539c-.2909 0-.5271.234-.5271.52276v1.045c0 .2884.236.5227.5271.5227h1.0539c.2911 0 .5272-.234.5272-.5227v-1.045c-.0004-.28889-.2362-.52276-.5272-.52276z"/><path d="m4.33499 12.3458h-1.05392c-.29113 0-.5271.234-.5271.5227v1.0449c0 .2888.23598.5228.5271.5228h1.05392c.29112 0 .5271-.2338.5271-.5228v-1.0449c0-.2884-.23598-.5227-.5271-.5227z"/><path d="m7.46286 12.3457h-1.05393c-.29112 0-.52709.234-.52709.5227v1.0449c0 .2888.23598.5228.52709.5228h1.05393c.29112 0 .52709-.2338.52709-.5228l-.00013-1.0449c-.00013-.2884-.23598-.5227-.52696-.5227z"/><path d="m10.5909 12.3457h-1.05355c-.29112 0-.5271.234-.5271.5227v1.0449c0 .2888.23585.5228.5271.5228h1.05355c.2913 0 .5272-.2338.5272-.5228l.0002-1.0449c-.0003-.2884-.2361-.5227-.5274-.5227z"/></g></svg>