<svg fill="none" height="22" viewBox="0 0 24 22" width="24" xmlns="http://www.w3.org/2000/svg"><g fill="#c5c7d3"><path d="m7.91209 5.41317h-5.45055c-1.34799 0-2.46154 1.13773-2.46154 2.51497v4.49106c0 1.3772 1.11355 2.5149 2.46154 2.5149h1.28938l1.11355 6.3473c.05861.4192.41025.7186.82051.7186h2.46154c.52747 0 .87912-.479.82051-.9581l-1.05494-6.0479c2.16851 0 4.21981.6587 6.03661 1.9162l2.0513 1.4371v-16.3473l-2.0513 1.43713c-1.7582 1.31736-3.8681 1.97604-6.03661 1.97604z"/><path d="m20.8454 7.18228v-5.90494c0-1.034881-1.1753-1.643636-2.0413-1.03488l-.8041.54788v19.41936l.8041.5478c.866.6088 2.0413 0 2.0413-1.0348v-5.905c1.7319-.1217 3.1546-1.5219 3.1546-3.2873 0-1.76535-1.4227-3.22637-3.1546-3.34812z"/></g></svg>