<svg width="17" height="12" viewBox="0 0 17 12" fill="none" xmlns="http://www.w3.org/2000/svg"><path d="M15.4613 0.000715277C15.1643 0.010271 14.8827 0.134893 14.6763 0.348503C11.8435 3.18755 8.81091 6.44072 5.98089 9.31203L1.94083 5.98546C1.71228 5.7615 1.40015 5.64365 1.0804 5.66077C0.760886 5.67809 0.463079 5.82859 0.259784 6.07564C0.0565248 6.3229 -0.0336557 6.6442 0.0113352 6.96094C0.0561278 7.27787 0.231912 7.56134 0.495889 7.74252L5.3476 11.738C5.56639 11.9189 5.84489 12.0119 6.12836 11.9988C6.41205 11.9856 6.68061 11.8672 6.88166 11.6667C9.94923 8.59258 13.2786 4.99045 16.2998 1.9632V1.963C16.5229 1.74739 16.649 1.45035 16.6484 1.14003C16.648 0.829673 16.5212 0.532849 16.2972 0.318036C16.0732 0.10303 15.7715 -0.0114349 15.4615 0.000903467L15.4613 0.000715277Z" fill="#444444"/></svg>