<svg width="24" height="24" viewBox="0 0 24 24" fill="none" xmlns="http://www.w3.org/2000/svg"><path d="M21.037 0H2.96296C1.32751 0 0 1.32751 0 2.96296V5.38381H24V2.96296C24 1.32751 22.6725 0 21.037 0ZM18.6904 3.11116H17.8519V2.27265H18.6904V3.11116ZM20.4207 3.11116H19.5793V2.27265H20.4207V3.11116ZM22.0504 3.11116H21.209V2.27265H22.0504V3.11116Z" fill="#C5C7D3"/><path d="M0 5.77783V21.0371C0 22.6725 1.32751 24.0001 2.96296 24.0001H21.037C22.6725 24.0001 24 22.6725 24 21.0371V5.77783H0ZM4.05053 19.209H2.6164V17.778H4.05053V19.209ZM4.05053 15.5053H2.6164V14.0743H4.05053V15.5053ZM4.05053 11.5055H2.6164V10.0744H4.05053V11.5055ZM21.431 19.2092H6.29603V17.7781H21.431V19.2092ZM21.431 15.5055H6.29603V14.0744H21.431V15.5055ZM21.431 11.5056H6.29603V10.0745H21.431V11.5056Z" fill="#C5C7D3"/></svg>
