<svg width="14" height="16" viewBox="0 0 14 16" fill="none" xmlns="http://www.w3.org/2000/svg"><path d="M11.6667 13.2998H12V5.2998H2V13.2998H4.33333V11.6331C4.33333 11.0665 4.76667 10.6331 5.33333 10.6331H8.66667C9.23333 10.6331 9.66667 11.0665 9.66667 11.6331V13.2998H11.6667ZM7 10.2998C6.63333 10.2998 6.33333 9.9998 6.33333 9.63314C6.33333 9.26647 6.63333 8.96647 7 8.96647C7.36667 8.96647 7.66667 9.26647 7.66667 9.63314C7.66667 9.9998 7.36667 10.2998 7 10.2998ZM7 8.2998C6.26667 8.2998 5.66667 7.6998 5.66667 6.96647C5.66667 6.23314 6.26667 5.63314 7 5.63314C7.73333 5.63314 8.33333 6.23314 8.33333 6.96647C8.33333 7.6998 7.73333 8.2998 7 8.2998Z" fill="#C5C7D3"/><path d="M5 11.6331V13.2998H6.66667V11.2998H5.33333C5.13333 11.2998 5 11.4331 5 11.6331Z" fill="#C5C7D3"/><path d="M7.33325 11.2998V13.2998H8.99992V11.6331C8.99992 11.4331 8.86659 11.2998 8.66659 11.2998H7.33325Z" fill="#C5C7D3"/><path d="M12.6667 13.9668H1.33337V14.6335H12.6667V13.9668Z" fill="#C5C7D3"/><path d="M0 15.2998V15.9665H14V15.2998H0Z" fill="#C5C7D3"/><path d="M0.699829 3.3H13.2998L6.99964 0L0.699829 3.3Z" fill="#C5C7D3"/><path d="M7.66659 6.96647C7.66659 7.33463 7.36807 7.63314 6.99992 7.63314C6.63176 7.63314 6.33325 7.33463 6.33325 6.96647C6.33325 6.59832 6.63176 6.2998 6.99992 6.2998C7.36807 6.2998 7.66659 6.59832 7.66659 6.96647Z" fill="#C5C7D3"/><path d="M1.33337 4.63346H12.6667V3.9668H1.33337V4.63346Z" fill="#C5C7D3"/></svg>
