<svg width="24" height="19" viewBox="0 0 24 19" fill="none" xmlns="http://www.w3.org/2000/svg"><path d="M23.0494 7.39489C22.4157 5.90144 21.5628 4.61518 20.4914 3.53546C19.4199 2.45591 18.1432 1.5968 16.6608 0.958149C15.1785 0.319493 13.6251 0 12 0C10.3749 0 8.82132 0.319493 7.33923 0.958149C5.85715 1.59697 4.58038 2.45591 3.50893 3.53546C2.43732 4.61518 1.58482 5.90144 0.950795 7.39489C0.316932 8.88834 0 10.4537 0 12.0909C0 14.4478 0.629425 16.6204 1.88844 18.6088C2.05792 18.8697 2.29907 19 2.61156 19H12H21.3884C21.7008 19 21.9419 18.8697 22.1114 18.6088C23.3706 16.6117 24 14.439 24 12.0909C24 10.4537 23.6831 8.88834 23.0494 7.39489ZM10.7878 2.23347C11.1228 1.89609 11.5267 1.72732 12 1.72732C12.4733 1.72732 12.8772 1.89609 13.212 2.23347C13.5468 2.57069 13.7145 2.9778 13.7145 3.45464C13.7145 3.93147 13.5468 4.33842 13.212 4.6758C12.8772 5.01318 12.4733 5.18195 12 5.18195C11.5267 5.18195 11.1227 5.01318 10.7878 4.6758C10.4532 4.33842 10.2856 3.93147 10.2856 3.45464C10.2856 2.9778 10.453 2.57069 10.7878 2.23347ZM4.64071 13.3121C4.30586 13.6494 3.90181 13.8184 3.42855 13.8184C2.95545 13.8184 2.5514 13.6494 2.21655 13.3121C1.8817 12.975 1.71436 12.5677 1.71436 12.0909C1.71436 11.6141 1.8817 11.2071 2.21655 10.8697C2.5514 10.5323 2.95545 10.3636 3.42855 10.3636C3.90181 10.3636 4.30603 10.5323 4.64071 10.8697C4.9754 11.2071 5.1429 11.6141 5.1429 12.0909C5.1429 12.5677 4.9754 12.9747 4.64071 13.3121ZM7.21216 7.26669C6.87715 7.60407 6.47326 7.77285 6 7.77285C5.52674 7.77285 5.12268 7.60391 4.78784 7.26669C4.45315 6.92948 4.28564 6.52237 4.28564 6.04553C4.28564 5.56869 4.45299 5.16175 4.78784 4.82437C5.12285 4.48699 5.52674 4.31821 6 4.31821C6.47326 4.31821 6.87732 4.48699 7.21216 4.82437C7.54685 5.16175 7.71436 5.56869 7.71436 6.04553C7.71436 6.5222 7.54685 6.92931 7.21216 7.26669ZM14.799 7.38147L13.4462 12.5361C13.8929 12.842 14.2142 13.2511 14.4108 13.7642C14.6071 14.277 14.6341 14.8032 14.4912 15.343C14.3127 16.0356 13.9152 16.562 13.2991 16.9217C12.683 17.2816 12.0312 17.3717 11.3436 17.1917C10.6562 17.0118 10.1338 16.6115 9.77671 15.9907C9.41967 15.3698 9.33041 14.7133 9.50893 14.0204C9.65178 13.4808 9.93304 13.0378 10.3527 12.6916C10.7722 12.3451 11.2499 12.1495 11.7856 12.1045L13.1384 6.94968C13.2008 6.71582 13.3346 6.53794 13.5399 6.41653C13.7454 6.29529 13.9596 6.26598 14.1828 6.32892C14.4062 6.39202 14.578 6.52452 14.6985 6.72692C14.8192 6.92948 14.8527 7.14761 14.799 7.38147ZM16.788 7.26669C16.4532 6.92948 16.2855 6.52237 16.2855 6.04553C16.2855 5.56869 16.4532 5.16175 16.788 4.82437C17.1228 4.48699 17.5267 4.31821 18 4.31821C18.4733 4.31821 18.8772 4.48699 19.212 4.82437C19.5468 5.16175 19.7145 5.56869 19.7145 6.04553C19.7145 6.5222 19.5468 6.92931 19.212 7.26669C18.8772 7.60407 18.4733 7.77285 18 7.77285C17.5267 7.77285 17.1228 7.60407 16.788 7.26669ZM21.7835 13.3121C21.4486 13.6494 21.0447 13.8184 20.5715 13.8184C20.0982 13.8184 19.6943 13.6494 19.3595 13.3121C19.0246 12.975 18.8571 12.5677 18.8571 12.0909C18.8571 11.6141 19.0246 11.2071 19.3595 10.8697C19.6943 10.5323 20.0982 10.3636 20.5715 10.3636C21.0447 10.3636 21.4486 10.5323 21.7835 10.8697C22.1181 11.2071 22.2856 11.6141 22.2856 12.0909C22.2856 12.5677 22.1183 12.9747 21.7835 13.3121Z" fill="#C5C7D3"/></svg>
