<svg width="17" height="17" viewBox="0 0 17 17" fill="none" xmlns="http://www.w3.org/2000/svg"><path d="M8.5 0C13.1945 0 17 3.80552 17 8.5C17 13.1945 13.1945 17 8.5 17C3.80552 17 0 13.1945 0 8.5C0 3.80552 3.80552 0 8.5 0ZM7.92094 12.4996C8.24921 12.8347 8.77969 12.8342 9.10836 12.4954L11.9199 9.59943C12.7188 8.79801 11.5201 7.59576 10.7211 8.39719L9.74849 9.37611C9.52694 9.59904 9.34748 9.52335 9.34748 9.21088V5.31348C9.34748 4.84508 8.96703 4.4656 8.49981 4.4656C8.0318 4.4656 7.65234 4.84764 7.65234 5.31348V9.21088C7.65234 9.52512 7.47268 9.59885 7.25133 9.37611L6.27894 8.39719C5.47969 7.59576 4.28124 8.798 5.08009 9.59943L7.92094 12.4996Z" fill="#61D2D2"/></svg>
