<svg fill="none" height="27" viewBox="0 0 24 27" width="24" xmlns="http://www.w3.org/2000/svg"><path clip-rule="evenodd" d="m9.9115 3.12698c-3.69684.95105-6.42844 4.3056-6.42844 8.30102v5.7137c0 .5264-.42773.9532-.95137.9532-1.0525 0-1.905713.8549-1.905713 1.9047 0 1.0519.854293 1.9047 1.909433 1.9047h19.03779c1.0546 0 1.9095-.8549 1.9095-1.9047 0-1.052-.8573-1.9047-1.9058-1.9047-.5254 0-.9513-.4235-.9513-.9532v-5.7137c0-3.99384-2.7311-7.34964-6.4285-8.30098v-.9838c0-1.186455-.9593-2.14322-2.1428-2.14322-1.181 0-2.1428.959553-2.1428 2.14322zm-1.19045 19.72972h6.66655c0 1.8409-1.4924 3.3332-3.3333 3.3332s-3.33325-1.4923-3.33325-3.3332z" fill="#c5c7d3" fill-rule="evenodd"/></svg>