<svg fill="none" height="17" viewBox="0 0 24 17" width="24" xmlns="http://www.w3.org/2000/svg"><g fill="#c5c7d3"><path d="m11.4471.052266c1.2105.27718 3.7355 2.506754 4.6533 3.346014h-4.3291l.294-.84464-.7315.8611-1.54168-.1621 1.50338.46388 2.816.72361c.4612.10397.7738.51327.7738.96665 0 .07222-.0077.14563-.0244.21944-.1206.5345-.671.91388-1.2188.91667-1.48.00714-4.4899-.24444-4.4899-.24444s-2.22221 1.12004-5.1281.82996c-.09167-.00893-.18452-.01944-.27778-.03155-.34881-.04504-.70674-.11051-1.07103-.20218v-4.46505c.33948-.00436.92002-.04047 1.34882-.20992 1.90653-.75636 5.7615-2.547389 7.42299-2.1674537z"/><path d="m9.204 6.5818c.47778.03889 2.995.23889 4.3738.23889h.0651c.7039-.00337 1.3438-.49047 1.4888-1.1333.0206-.09167.0312-.18611.0312-.28055 0-.59601-.4056-1.10374-.9868-1.23672l-1.9222-.49385h10.3588c.7627 0 1.3873.62379 1.3873 1.38727v10.13836c0 .7627-.6244 1.3873-1.3873 1.3873l-17.20218-.0002c-.76327 0-1.38727-.6244-1.38727-1.3873v-7.79424c.31885.03115.64503.04662.97006.04662 2.20672.0002 3.84841-.70318 4.21067-.87202zm13.0768 1.46667c0-.25437-.2078-.4627-.4621-.4627h-2.9667c-.2543 0-.4623.20833-.4623.4627v2.21943c0 .2543.2078.4623.4623.4623h2.9667c.2543 0 .4621-.2078.4621-.4623zm-1.9457 5.88743h1.9457v-.8938h-1.9457zm-2.9182 0h1.9456v-.8938h-1.9456zm-2.9189 0h1.946v-.8938h-1.946zm-2.9184 0h1.9457v-.8938h-1.9457zm-2.91822 0h1.94562v-.8938h-1.94562zm-2.91824 0h1.94565v-.8938h-1.94565z"/><path d="m21.8516 9.51056c.0639 0 .1154.05218.1154.11607 0 .0633-.0515.11548-.1154.11548h-1.4012v.64109c0 .0639-.0518.1154-.1155.1154-.0639 0-.1155-.0515-.1155-.1154v-.64109h-1.4012c-.0638 0-.1154-.05218-.1154-.11548 0-.06389.0516-.11607.1154-.11607h1.4012v-.70557h-1.4012c-.0638 0-.1154-.05178-.1154-.11547 0-.06389.0516-.11548.1154-.11548h1.4012v-.64167c0-.0633.0516-.11548.1155-.11548s.1155.05218.1155.11548v.64167h1.4012c.0639 0 .1154.05159.1154.11548 0 .06388-.0515.11547-.1154.11547h-1.4012v.70557z"/><path d="m2.39673 1.71094h-2.39664369v5.64162h2.39664369z"/></g></svg>