<svg width="16" height="16" viewBox="0 0 16 16" fill="none" xmlns="http://www.w3.org/2000/svg"><path d="M1.6 6.40002H2.66667C3.55035 6.40002 4.26667 7.28371 4.26667 8.00002V14.4C4.26667 15.2837 3.55035 16 2.66667 16H1.6C0.716312 16 0 15.1163 0 14.4V8.00002C0 7.11634 0.716312 6.40002 1.6 6.40002Z" fill="#C5C7D3"/><path d="M7.4667 4.26665H8.53337C9.41705 4.26665 10.1334 5.15034 10.1334 5.86665V14.4C10.1334 15.2837 9.41705 16 8.53337 16H7.4667C6.58301 16 5.8667 15.1163 5.8667 14.4V5.86665C5.8667 4.98296 6.58301 4.26665 7.4667 4.26665Z" fill="#C5C7D3"/><path d="M13.3333 0H14.4C15.2837 0 16 0.883688 16 1.6V14.4C16 15.2837 15.2837 16 14.4 16H13.3333C12.4496 16 11.7333 15.1163 11.7333 14.4V1.6C11.7333 0.716312 12.4496 0 13.3333 0Z" fill="#C5C7D3"/></svg>
