<svg fill="none" height="17" viewBox="0 0 16 17" width="16" xmlns="http://www.w3.org/2000/svg"><path d="m10.1223 11.8295c-.0597-.0597-.16229-.068-.23573-.0141 0 0 .00711-.0043-.05437.039-1.0152.7141-2.25278 1.1334-3.5883 1.1334-3.44841 0-6.2439-2.7955-6.2439-6.2439 0-3.44841 2.79549-6.2439 6.2439-6.2439s6.2439 2.79549 6.2439 6.2439c0 1.3291-.4153 2.56121-1.1231 3.5737-.0465.0664-.0509.0709-.0509.0709-.051.0694-.0421.1759.0157.2338l.3733.3732c.0597.0597.1793.091.2572.0736 0 0-.0082-.0008.0634-.0119.5343-.0824 1.0994.0821 1.511.4937l1.9513 1.9513c.6857.6858.6857 1.7977 0 2.4835-.6858.6857-1.7977.6857-2.4835 0l-1.9513-1.9513c-.4096-.4096-.5745-.9712-.4949-1.5032.0112-.0742.0122-.0657.0122-.0657.0196-.0854-.0148-.2049-.0727-.2627zm-3.8784-1.1832c2.15526 0 3.9024-1.74714 3.9024-3.9024s-1.74714-3.90244-3.9024-3.90244-3.90244 1.74718-3.90244 3.90244 1.74718 3.9024 3.90244 3.9024z" fill="#c5c7d3"/></svg>