<svg fill="none" height="28" viewBox="0 0 24 28" width="24" xmlns="http://www.w3.org/2000/svg"><g fill="#fff"><path d="m13.0352 13.5528c0-.5832-.4666-1.0499-1.0498-1.0499s-1.0499.4667-1.0499 1.0499c0 .4082.2334.7581.5832.9332l-.2624 1.079c-.0584.2042.0875.3791.2917.3791h.904c.2042 0 .3499-.1749.2917-.3791l-.2624-1.079c.3206-.1749.5539-.525.5539-.9332z"/><path d="m11.9854 7.2832c-.9333 0-1.7205.75816-1.7205 1.7205v1.6914h3.441v-1.6914c0-.93308-.7872-1.7205-1.7205-1.7205z"/><path d="m23.5043 2.52973-11.3731-2.5079137c-.0874-.02908839-.1749-.02908839-.2624 0l-11.373075 2.5079137c-.291702.05838-.495725.32079-.495725.6125v6.29895c0 6.03652 2.8578 11.69392 7.72788 15.25162l3.90762 2.8871c.2333.1749.5248.1749.7582 0l3.9076-2.8871c4.8409-3.5577 7.6987-9.2443 7.6987-15.25162v-6.29895c0-.2917-.204-.55412-.4957-.6125zm-6.6197 14.61007c0 .3208-.2624.6125-.6125.6125l-8.57356-.0002c-.32079 0-.61251-.2624-.61251-.6125v-5.8324c0-.3208.26241-.6125.61251-.6125h.8749v-1.69136c0-1.89541 1.54556-3.44099 3.44096-3.44099 1.8957.00021 3.412 1.57485 3.412 3.4412v1.69135h.8749c.3208 0 .6125.2624.6125.6125v5.8324z"/></g></svg>