<svg width="24" height="20" viewBox="0 0 24 20" fill="none" xmlns="http://www.w3.org/2000/svg"><mask id="path-1-inside-1_266_755" fill="white"><path fill-rule="evenodd" clip-rule="evenodd" d="M2 0C0.895431 0 0 0.895431 0 2V14C0 15.1046 0.89543 16 2 16H22C23.1046 16 24 15.1046 24 14V2C24 0.895431 23.1046 0 22 0H2ZM12 13C14.7614 13 17 10.7614 17 8C17 5.23858 14.7614 3 12 3C9.23858 3 7 5.23858 7 8C7 10.7614 9.23858 13 12 13Z"/></mask><path fill-rule="evenodd" clip-rule="evenodd" d="M2 0C0.895431 0 0 0.895431 0 2V14C0 15.1046 0.89543 16 2 16H22C23.1046 16 24 15.1046 24 14V2C24 0.895431 23.1046 0 22 0H2ZM12 13C14.7614 13 17 10.7614 17 8C17 5.23858 14.7614 3 12 3C9.23858 3 7 5.23858 7 8C7 10.7614 9.23858 13 12 13Z" fill="#C5C7D3"/><path d="M1 2C1 1.44772 1.44772 1 2 1V-1C0.343146 -1 -1 0.343146 -1 2H1ZM1 14V2H-1V14H1ZM2 15C1.44772 15 1 14.5523 1 14H-1C-1 15.6569 0.343145 17 2 17V15ZM22 15H2V17H22V15ZM23 14C23 14.5523 22.5523 15 22 15V17C23.6569 17 25 15.6569 25 14H23ZM23 2V14H25V2H23ZM22 1C22.5523 1 23 1.44772 23 2H25C25 0.343146 23.6569 -1 22 -1V1ZM2 1H22V-1H2V1ZM16 8C16 10.2091 14.2091 12 12 12V14C15.3137 14 18 11.3137 18 8H16ZM12 4C14.2091 4 16 5.79086 16 8H18C18 4.68629 15.3137 2 12 2V4ZM8 8C8 5.79086 9.79086 4 12 4V2C8.68629 2 6 4.68629 6 8H8ZM12 12C9.79086 12 8 10.2091 8 8H6C6 11.3137 8.68629 14 12 14V12Z" fill="#C5C7D3" mask="url(#path-1-inside-1_266_755)"/><path d="M15 16H8.5L12 19L15 16Z" fill="#C5C7D3" stroke="#C5C7D3" stroke-width="0.1"/><path d="M12 9.03857L14.034 9.3649" stroke="#C5C7D3" stroke-linecap="round"/><path d="M12 6L12 9.03836" stroke="#C5C7D3" stroke-linecap="round"/></svg>
