<svg width="20" height="20" viewBox="0 0 20 20" fill="none" xmlns="http://www.w3.org/2000/svg"><path d="M0.688732 0.688732C1.60706 -0.229589 3.0959 -0.229561 4.01419 0.688732L9.99999 6.67457L15.9858 0.688732C16.9041 -0.229561 18.3929 -0.229594 19.3113 0.688732C20.2296 1.60706 20.2296 3.09592 19.3113 4.0142L13.3254 10L19.3113 15.9858C20.2296 16.9041 20.2296 18.393 19.3113 19.3113C18.3929 20.2296 16.9041 20.2296 15.9858 19.3112L10 13.3255L4.01418 19.3113C3.09589 20.2296 1.60706 20.2296 0.688732 19.3112C-0.229589 18.3929 -0.229561 16.9041 0.688728 15.9858L6.67455 10L0.688732 4.0142C-0.229561 3.09591 -0.229594 1.60706 0.688732 0.688732Z" fill="white"/></svg>
