<svg width="146" height="19" viewBox="0 0 146 19" fill="none" xmlns="http://www.w3.org/2000/svg">
<path fill-rule="evenodd" clip-rule="evenodd" d="M4.34128 8.22243C4.34128 7.68835 4.42998 7.17631 4.5883 6.69605L1.81715 4.5799C1.27707 5.67647 0.972778 6.91207 0.972778 8.22243C0.972778 9.53166 1.27669 10.7665 1.81603 11.8623L4.58568 9.74208C4.42886 9.26406 4.34128 8.7539 4.34128 8.22243Z" fill="#FBBC05"/>
<path fill-rule="evenodd" clip-rule="evenodd" d="M9.20687 3.36372C10.3671 3.36372 11.4151 3.77484 12.2385 4.44759L14.6339 2.05561C13.1742 0.784868 11.3028 0 9.20687 0C5.95291 0 3.1563 1.86088 1.81714 4.57989L4.58829 6.69605C5.22681 4.7578 7.04692 3.36372 9.20687 3.36372Z" fill="#EB4335"/>
<path fill-rule="evenodd" clip-rule="evenodd" d="M9.20688 13.0811C7.04692 13.0811 5.22681 11.6871 4.58829 9.74881L1.81714 11.8646C3.1563 14.584 5.95291 16.4449 9.20688 16.4449C11.2152 16.4449 13.1327 15.7317 14.5718 14.3956L11.9413 12.362C11.1992 12.8296 10.2646 13.0811 9.20688 13.0811Z" fill="#34A853"/>
<path fill-rule="evenodd" clip-rule="evenodd" d="M17.0667 8.22242C17.0667 7.73655 16.9919 7.2133 16.8796 6.72743H9.20691V9.90428H13.6234C13.4026 10.9874 12.8015 11.8201 11.9414 12.362L14.5718 14.3956C16.0835 12.9925 17.0667 10.9026 17.0667 8.22242Z" fill="#4285F4"/>
<path d="M29.434 15V5.00586H30.5961V13.9609H35.0326V15H29.434ZM43.0375 11.2402C43.0375 11.8555 42.9577 12.4046 42.7982 12.8877C42.6387 13.3708 42.4086 13.7786 42.1078 14.1113C41.807 14.444 41.4424 14.6992 41.014 14.877C40.5902 15.0501 40.1094 15.1367 39.5717 15.1367C39.0704 15.1367 38.6101 15.0501 38.1908 14.877C37.7761 14.6992 37.4161 14.444 37.1107 14.1113C36.8099 13.7786 36.5752 13.3708 36.4066 12.8877C36.2426 12.4046 36.1605 11.8555 36.1605 11.2402C36.1605 10.4199 36.2995 9.72266 36.5775 9.14844C36.8555 8.56966 37.252 8.12988 37.767 7.8291C38.2865 7.52376 38.904 7.37109 39.6195 7.37109C40.3031 7.37109 40.9001 7.52376 41.4105 7.8291C41.9255 8.13444 42.3243 8.5765 42.6068 9.15527C42.8939 9.72949 43.0375 10.4245 43.0375 11.2402ZM37.3363 11.2402C37.3363 11.8418 37.4161 12.3636 37.5756 12.8057C37.7351 13.2477 37.9812 13.5895 38.3138 13.8311C38.6465 14.0726 39.0749 14.1934 39.599 14.1934C40.1185 14.1934 40.5446 14.0726 40.8773 13.8311C41.2146 13.5895 41.4629 13.2477 41.6224 12.8057C41.7819 12.3636 41.8617 11.8418 41.8617 11.2402C41.8617 10.6432 41.7819 10.1283 41.6224 9.69531C41.4629 9.25781 41.2168 8.92057 40.8842 8.68359C40.5515 8.44661 40.1208 8.32812 39.5922 8.32812C38.8129 8.32812 38.2409 8.58561 37.8763 9.10059C37.5163 9.61556 37.3363 10.3288 37.3363 11.2402ZM47.0912 18.3633C46.1068 18.3633 45.348 18.1787 44.8148 17.8096C44.2816 17.445 44.015 16.9323 44.015 16.2715C44.015 15.8021 44.1631 15.401 44.4594 15.0684C44.7601 14.7357 45.1748 14.5146 45.7035 14.4053C45.5075 14.3141 45.3389 14.1774 45.1976 13.9951C45.0609 13.8128 44.9926 13.6032 44.9926 13.3662C44.9926 13.0928 45.0677 12.8535 45.2181 12.6484C45.3731 12.4388 45.6078 12.2383 45.9222 12.0469C45.5303 11.8874 45.2113 11.6185 44.9652 11.2402C44.7237 10.8574 44.6029 10.4131 44.6029 9.90723C44.6029 9.36947 44.7146 8.91146 44.9379 8.5332C45.1612 8.15039 45.4847 7.85872 45.9086 7.6582C46.3324 7.45768 46.8451 7.35742 47.4467 7.35742C47.5788 7.35742 47.711 7.36426 47.8431 7.37793C47.9799 7.38704 48.1097 7.40299 48.2328 7.42578C48.3558 7.44401 48.4629 7.4668 48.5541 7.49414H51.1244V8.22559L49.7435 8.39648C49.8802 8.57422 49.9942 8.78841 50.0853 9.03906C50.1765 9.28971 50.222 9.56771 50.222 9.87305C50.222 10.6204 49.9691 11.2152 49.4633 11.6572C48.9574 12.0947 48.2624 12.3135 47.3783 12.3135C47.1687 12.3135 46.9545 12.2952 46.7357 12.2588C46.5124 12.3818 46.3415 12.5186 46.223 12.6689C46.1091 12.8193 46.0521 12.9925 46.0521 13.1885C46.0521 13.3343 46.0954 13.4505 46.182 13.5371C46.2732 13.6237 46.403 13.6875 46.5717 13.7285C46.7403 13.765 46.9431 13.7832 47.1801 13.7832H48.4994C49.3151 13.7832 49.9395 13.9541 50.3724 14.2959C50.8099 14.6377 51.0287 15.1367 51.0287 15.793C51.0287 16.6224 50.6914 17.2581 50.017 17.7002C49.3425 18.1423 48.3672 18.3633 47.0912 18.3633ZM47.1254 17.4746C47.7452 17.4746 48.2579 17.4108 48.6635 17.2832C49.0736 17.1602 49.3789 16.9801 49.5795 16.7432C49.7845 16.5107 49.8871 16.2327 49.8871 15.9092C49.8871 15.6084 49.8187 15.3805 49.682 15.2256C49.5453 15.0752 49.3448 14.9749 49.0804 14.9248C48.8161 14.8701 48.4926 14.8428 48.1097 14.8428H46.8109C46.4737 14.8428 46.1797 14.8952 45.9291 15C45.6784 15.1048 45.4847 15.2598 45.348 15.4648C45.2159 15.6699 45.1498 15.9251 45.1498 16.2305C45.1498 16.6361 45.3207 16.9437 45.6625 17.1533C46.0043 17.3675 46.4919 17.4746 47.1254 17.4746ZM47.4193 11.4863C47.9616 11.4863 48.3695 11.3496 48.6429 11.0762C48.9164 10.8027 49.0531 10.404 49.0531 9.87988C49.0531 9.31934 48.9141 8.90007 48.6361 8.62207C48.3581 8.33952 47.948 8.19824 47.4056 8.19824C46.8861 8.19824 46.4851 8.34408 46.2025 8.63574C45.9245 8.92285 45.7855 9.3444 45.7855 9.90039C45.7855 10.4108 45.9268 10.8027 46.2094 11.0762C46.4919 11.3496 46.8952 11.4863 47.4193 11.4863ZM53.7357 7.50781V15H52.601V7.50781H53.7357ZM53.182 4.70508C53.3689 4.70508 53.5284 4.7666 53.6605 4.88965C53.7972 5.00814 53.8656 5.19499 53.8656 5.4502C53.8656 5.70085 53.7972 5.8877 53.6605 6.01074C53.5284 6.13379 53.3689 6.19531 53.182 6.19531C52.986 6.19531 52.822 6.13379 52.6898 6.01074C52.5622 5.8877 52.4984 5.70085 52.4984 5.4502C52.4984 5.19499 52.5622 5.00814 52.6898 4.88965C52.822 4.7666 52.986 4.70508 53.182 4.70508ZM59.6898 7.37109C60.5785 7.37109 61.2507 7.58984 61.7064 8.02734C62.1622 8.46029 62.39 9.15755 62.39 10.1191V15H61.2689V10.1943C61.2689 9.56999 61.1254 9.10286 60.8383 8.79297C60.5557 8.48307 60.1205 8.32812 59.5326 8.32812C58.7032 8.32812 58.1198 8.56283 57.7826 9.03223C57.4454 9.50163 57.2767 10.1829 57.2767 11.0762V15H56.142V7.50781H57.058L57.2289 8.58789H57.2904C57.4499 8.32357 57.6527 8.10254 57.8988 7.9248C58.1449 7.74251 58.4206 7.60579 58.726 7.51465C59.0313 7.41895 59.3526 7.37109 59.6898 7.37109ZM74.4623 14.9863L73.1293 10.625C73.07 10.4382 73.0131 10.2559 72.9584 10.0781C72.9082 9.89583 72.8604 9.72266 72.8148 9.55859C72.7738 9.38997 72.7351 9.23503 72.6986 9.09375C72.6667 8.94792 72.6394 8.82259 72.6166 8.71777H72.5687C72.5505 8.82259 72.5254 8.94792 72.4935 9.09375C72.4616 9.23503 72.4229 9.38997 72.3773 9.55859C72.3363 9.72721 72.2907 9.90495 72.2406 10.0918C72.1905 10.2741 72.1335 10.4587 72.0697 10.6455L70.6752 14.9863H69.3969L67.3324 7.49414H68.5082L69.5883 11.6299C69.6612 11.9033 69.7295 12.1745 69.7933 12.4434C69.8617 12.7077 69.9187 12.9583 69.9642 13.1953C70.0144 13.4277 70.0508 13.6305 70.0736 13.8037H70.1283C70.1556 13.6898 70.1853 13.5531 70.2172 13.3936C70.2536 13.234 70.2924 13.0654 70.3334 12.8877C70.3789 12.7054 70.4268 12.5254 70.4769 12.3477C70.5271 12.1654 70.5772 11.9945 70.6273 11.835L72.0082 7.49414H73.2318L74.5648 11.8281C74.6332 12.0469 74.6993 12.2747 74.7631 12.5117C74.8314 12.7487 74.8929 12.9788 74.9476 13.2021C75.0023 13.4209 75.0411 13.6169 75.0638 13.79H75.1185C75.1368 13.6351 75.1709 13.4437 75.2211 13.2158C75.2712 12.988 75.3282 12.7373 75.392 12.4639C75.4603 12.1904 75.531 11.9124 75.6039 11.6299L76.6976 7.49414H77.8529L75.7816 14.9863H74.4623ZM80.3549 7.50781V15H79.2201V7.50781H80.3549ZM79.8011 4.70508C79.988 4.70508 80.1475 4.7666 80.2797 4.88965C80.4164 5.00814 80.4847 5.19499 80.4847 5.4502C80.4847 5.70085 80.4164 5.8877 80.2797 6.01074C80.1475 6.13379 79.988 6.19531 79.8011 6.19531C79.6052 6.19531 79.4411 6.13379 79.309 6.01074C79.1814 5.8877 79.1176 5.70085 79.1176 5.4502C79.1176 5.19499 79.1814 5.00814 79.309 4.88965C79.4411 4.7666 79.6052 4.70508 79.8011 4.70508ZM85.181 14.207C85.3679 14.207 85.5593 14.1911 85.7552 14.1592C85.9512 14.1273 86.1107 14.0885 86.2338 14.043V14.9248C86.1016 14.984 85.917 15.0342 85.6801 15.0752C85.4476 15.1162 85.2198 15.1367 84.9965 15.1367C84.6 15.1367 84.2399 15.0684 83.9164 14.9316C83.5928 14.7904 83.333 14.5534 83.1371 14.2207C82.9457 13.888 82.85 13.4277 82.85 12.8398V8.39648H81.7836V7.84277L82.8568 7.39844L83.308 5.77148H83.9916V7.50781H86.1859V8.39648H83.9916V12.8057C83.9916 13.2751 84.0987 13.626 84.3129 13.8584C84.5316 14.0908 84.821 14.207 85.181 14.207ZM88.8861 4.36328V7.54199C88.8861 7.72428 88.8816 7.90885 88.8724 8.0957C88.8633 8.27799 88.8474 8.44661 88.8246 8.60156H88.8998C89.0547 8.33724 89.2507 8.11621 89.4877 7.93848C89.7292 7.75618 90.0026 7.61947 90.308 7.52832C90.6133 7.43262 90.9369 7.38477 91.2787 7.38477C91.8802 7.38477 92.3816 7.48047 92.7826 7.67188C93.1882 7.86328 93.4913 8.15951 93.6918 8.56055C93.8969 8.96159 93.9994 9.48112 93.9994 10.1191V15H92.8783V10.1943C92.8783 9.56999 92.7347 9.10286 92.4476 8.79297C92.1651 8.48307 91.7299 8.32812 91.142 8.32812C90.586 8.32812 90.1416 8.43522 89.809 8.64941C89.4808 8.85905 89.2439 9.16895 89.098 9.5791C88.9567 9.98926 88.8861 10.4906 88.8861 11.083V15H87.7513V4.36328H88.8861ZM104.417 9.76367H107.911V14.6104C107.386 14.7881 106.846 14.9202 106.29 15.0068C105.739 15.0934 105.121 15.1367 104.438 15.1367C103.399 15.1367 102.522 14.9294 101.806 14.5146C101.095 14.0999 100.555 13.5098 100.186 12.7441C99.8168 11.974 99.6322 11.0602 99.6322 10.0029C99.6322 8.96842 99.835 8.06608 100.241 7.2959C100.651 6.52572 101.241 5.92871 102.011 5.50488C102.786 5.0765 103.716 4.8623 104.8 4.8623C105.356 4.8623 105.883 4.91471 106.379 5.01953C106.881 5.11979 107.345 5.26335 107.774 5.4502L107.329 6.46191C106.96 6.30241 106.552 6.16569 106.106 6.05176C105.664 5.93783 105.206 5.88086 104.732 5.88086C103.916 5.88086 103.217 6.04948 102.633 6.38672C102.054 6.72396 101.61 7.2002 101.3 7.81543C100.995 8.43066 100.842 9.15983 100.842 10.0029C100.842 10.8369 100.977 11.5638 101.245 12.1836C101.514 12.7988 101.934 13.2773 102.503 13.6191C103.073 13.9609 103.807 14.1318 104.704 14.1318C105.156 14.1318 105.543 14.1068 105.867 14.0566C106.19 14.002 106.484 13.9382 106.748 13.8652V10.8027H104.417V9.76367ZM116.62 11.2402C116.62 11.8555 116.54 12.4046 116.38 12.8877C116.221 13.3708 115.991 13.7786 115.69 14.1113C115.389 14.444 115.024 14.6992 114.596 14.877C114.172 15.0501 113.691 15.1367 113.154 15.1367C112.652 15.1367 112.192 15.0501 111.773 14.877C111.358 14.6992 110.998 14.444 110.693 14.1113C110.392 13.7786 110.157 13.3708 109.989 12.8877C109.825 12.4046 109.743 11.8555 109.743 11.2402C109.743 10.4199 109.882 9.72266 110.16 9.14844C110.438 8.56966 110.834 8.12988 111.349 7.8291C111.869 7.52376 112.486 7.37109 113.202 7.37109C113.885 7.37109 114.482 7.52376 114.993 7.8291C115.508 8.13444 115.906 8.5765 116.189 9.15527C116.476 9.72949 116.62 10.4245 116.62 11.2402ZM110.918 11.2402C110.918 11.8418 110.998 12.3636 111.158 12.8057C111.317 13.2477 111.563 13.5895 111.896 13.8311C112.229 14.0726 112.657 14.1934 113.181 14.1934C113.701 14.1934 114.127 14.0726 114.459 13.8311C114.797 13.5895 115.045 13.2477 115.204 12.8057C115.364 12.3636 115.444 11.8418 115.444 11.2402C115.444 10.6432 115.364 10.1283 115.204 9.69531C115.045 9.25781 114.799 8.92057 114.466 8.68359C114.134 8.44661 113.703 8.32812 113.174 8.32812C112.395 8.32812 111.823 8.58561 111.458 9.10059C111.098 9.61556 110.918 10.3288 110.918 11.2402ZM125.041 11.2402C125.041 11.8555 124.962 12.4046 124.802 12.8877C124.643 13.3708 124.412 13.7786 124.112 14.1113C123.811 14.444 123.446 14.6992 123.018 14.877C122.594 15.0501 122.113 15.1367 121.576 15.1367C121.074 15.1367 120.614 15.0501 120.195 14.877C119.78 14.6992 119.42 14.444 119.115 14.1113C118.814 13.7786 118.579 13.3708 118.411 12.8877C118.246 12.4046 118.164 11.8555 118.164 11.2402C118.164 10.4199 118.303 9.72266 118.581 9.14844C118.859 8.56966 119.256 8.12988 119.771 7.8291C120.29 7.52376 120.908 7.37109 121.623 7.37109C122.307 7.37109 122.904 7.52376 123.414 7.8291C123.929 8.13444 124.328 8.5765 124.611 9.15527C124.898 9.72949 125.041 10.4245 125.041 11.2402ZM119.34 11.2402C119.34 11.8418 119.42 12.3636 119.579 12.8057C119.739 13.2477 119.985 13.5895 120.318 13.8311C120.65 14.0726 121.079 14.1934 121.603 14.1934C122.122 14.1934 122.549 14.0726 122.881 13.8311C123.218 13.5895 123.467 13.2477 123.626 12.8057C123.786 12.3636 123.866 11.8418 123.866 11.2402C123.866 10.6432 123.786 10.1283 123.626 9.69531C123.467 9.25781 123.221 8.92057 122.888 8.68359C122.555 8.44661 122.125 8.32812 121.596 8.32812C120.817 8.32812 120.245 8.58561 119.88 9.10059C119.52 9.61556 119.34 10.3288 119.34 11.2402ZM129.095 18.3633C128.111 18.3633 127.352 18.1787 126.819 17.8096C126.286 17.445 126.019 16.9323 126.019 16.2715C126.019 15.8021 126.167 15.401 126.463 15.0684C126.764 14.7357 127.179 14.5146 127.707 14.4053C127.511 14.3141 127.343 14.1774 127.202 13.9951C127.065 13.8128 126.996 13.6032 126.996 13.3662C126.996 13.0928 127.072 12.8535 127.222 12.6484C127.377 12.4388 127.612 12.2383 127.926 12.0469C127.534 11.8874 127.215 11.6185 126.969 11.2402C126.728 10.8574 126.607 10.4131 126.607 9.90723C126.607 9.36947 126.718 8.91146 126.942 8.5332C127.165 8.15039 127.489 7.85872 127.912 7.6582C128.336 7.45768 128.849 7.35742 129.451 7.35742C129.583 7.35742 129.715 7.36426 129.847 7.37793C129.984 7.38704 130.114 7.40299 130.237 7.42578C130.36 7.44401 130.467 7.4668 130.558 7.49414H133.128V8.22559L131.747 8.39648C131.884 8.57422 131.998 8.78841 132.089 9.03906C132.18 9.28971 132.226 9.56771 132.226 9.87305C132.226 10.6204 131.973 11.2152 131.467 11.6572C130.961 12.0947 130.266 12.3135 129.382 12.3135C129.173 12.3135 128.958 12.2952 128.74 12.2588C128.516 12.3818 128.345 12.5186 128.227 12.6689C128.113 12.8193 128.056 12.9925 128.056 13.1885C128.056 13.3343 128.099 13.4505 128.186 13.5371C128.277 13.6237 128.407 13.6875 128.576 13.7285C128.744 13.765 128.947 13.7832 129.184 13.7832H130.503C131.319 13.7832 131.943 13.9541 132.376 14.2959C132.814 14.6377 133.033 15.1367 133.033 15.793C133.033 16.6224 132.695 17.2581 132.021 17.7002C131.346 18.1423 130.371 18.3633 129.095 18.3633ZM129.129 17.4746C129.749 17.4746 130.262 17.4108 130.667 17.2832C131.078 17.1602 131.383 16.9801 131.583 16.7432C131.788 16.5107 131.891 16.2327 131.891 15.9092C131.891 15.6084 131.823 15.3805 131.686 15.2256C131.549 15.0752 131.349 14.9749 131.084 14.9248C130.82 14.8701 130.496 14.8428 130.114 14.8428H128.815C128.478 14.8428 128.184 14.8952 127.933 15C127.682 15.1048 127.489 15.2598 127.352 15.4648C127.22 15.6699 127.154 15.9251 127.154 16.2305C127.154 16.6361 127.325 16.9437 127.666 17.1533C128.008 17.3675 128.496 17.4746 129.129 17.4746ZM129.423 11.4863C129.966 11.4863 130.373 11.3496 130.647 11.0762C130.92 10.8027 131.057 10.404 131.057 9.87988C131.057 9.31934 130.918 8.90007 130.64 8.62207C130.362 8.33952 129.952 8.19824 129.41 8.19824C128.89 8.19824 128.489 8.34408 128.206 8.63574C127.928 8.92285 127.789 9.3444 127.789 9.90039C127.789 10.4108 127.931 10.8027 128.213 11.0762C128.496 11.3496 128.899 11.4863 129.423 11.4863ZM135.746 15H134.605V4.36328H135.746V15ZM141.031 7.37109C141.669 7.37109 142.216 7.51237 142.671 7.79492C143.127 8.07747 143.476 8.47396 143.717 8.98438C143.959 9.49023 144.079 10.0827 144.079 10.7617V11.4658H138.905C138.918 12.3454 139.137 13.0153 139.561 13.4756C139.985 13.9359 140.582 14.166 141.352 14.166C141.826 14.166 142.245 14.1227 142.61 14.0361C142.974 13.9495 143.353 13.8219 143.745 13.6533V14.6514C143.366 14.82 142.99 14.943 142.617 15.0205C142.247 15.098 141.81 15.1367 141.304 15.1367C140.584 15.1367 139.955 14.9909 139.417 14.6992C138.884 14.403 138.469 13.9701 138.173 13.4004C137.877 12.8307 137.729 12.1335 137.729 11.3086C137.729 10.502 137.863 9.80469 138.132 9.2168C138.406 8.62435 138.788 8.16862 139.281 7.84961C139.777 7.5306 140.361 7.37109 141.031 7.37109ZM141.017 8.30078C140.411 8.30078 139.928 8.49902 139.568 8.89551C139.208 9.29199 138.994 9.8457 138.925 10.5566H142.89C142.885 10.11 142.815 9.7181 142.678 9.38086C142.546 9.03906 142.343 8.77474 142.07 8.58789C141.796 8.39648 141.445 8.30078 141.017 8.30078Z" fill="#444444"/>
</svg>
