<svg width="154" height="19" viewBox="0 0 154 19" fill="none" xmlns="http://www.w3.org/2000/svg">
<path fill-rule="evenodd" clip-rule="evenodd" d="M16.7097 15H13.1735V9.72689C13.1735 8.34667 12.6204 7.40443 11.404 7.40443C10.4736 7.40443 9.95618 8.04028 9.71535 8.65307C9.62504 8.87302 9.63916 9.17942 9.63916 9.48581V15H6.13588C6.13588 15 6.18103 5.65922 6.13588 4.81015H9.63916V6.40937C9.84612 5.71013 10.9656 4.71217 12.752 4.71217C14.9684 4.71217 16.7097 6.17789 16.7097 9.33406V15ZM2.59306 3.53557H2.57049C1.44161 3.53557 0.709717 2.75661 0.709717 1.76922C0.709717 0.762627 1.46324 0 2.6147 0C3.76522 0 4.47265 0.760715 4.49523 1.76635C4.49523 2.75374 3.76522 3.53557 2.59306 3.53557ZM1.11328 4.81015H4.23182V15H1.11328V4.81015Z" fill="#007EBB"/>
<path d="M28.0769 15V5.00586H29.239V13.9609H33.6755V15H28.0769ZM41.6804 11.2402C41.6804 11.8555 41.6007 12.4046 41.4412 12.8877C41.2817 13.3708 41.0515 13.7786 40.7507 14.1113C40.45 14.444 40.0854 14.6992 39.657 14.877C39.2332 15.0501 38.7524 15.1367 38.2146 15.1367C37.7133 15.1367 37.253 15.0501 36.8337 14.877C36.419 14.6992 36.059 14.444 35.7537 14.1113C35.4529 13.7786 35.2182 13.3708 35.0496 12.8877C34.8855 12.4046 34.8035 11.8555 34.8035 11.2402C34.8035 10.4199 34.9425 9.72266 35.2205 9.14844C35.4985 8.56966 35.8949 8.12988 36.4099 7.8291C36.9294 7.52376 37.547 7.37109 38.2625 7.37109C38.946 7.37109 39.5431 7.52376 40.0535 7.8291C40.5684 8.13444 40.9672 8.5765 41.2498 9.15527C41.5369 9.72949 41.6804 10.4245 41.6804 11.2402ZM35.9792 11.2402C35.9792 11.8418 36.059 12.3636 36.2185 12.8057C36.378 13.2477 36.6241 13.5895 36.9568 13.8311C37.2895 14.0726 37.7179 14.1934 38.2419 14.1934C38.7615 14.1934 39.1876 14.0726 39.5203 13.8311C39.8575 13.5895 40.1059 13.2477 40.2654 12.8057C40.4249 12.3636 40.5046 11.8418 40.5046 11.2402C40.5046 10.6432 40.4249 10.1283 40.2654 9.69531C40.1059 9.25781 39.8598 8.92057 39.5271 8.68359C39.1944 8.44661 38.7638 8.32812 38.2351 8.32812C37.4558 8.32812 36.8839 8.58561 36.5193 9.10059C36.1593 9.61556 35.9792 10.3288 35.9792 11.2402ZM45.7341 18.3633C44.7498 18.3633 43.991 18.1787 43.4578 17.8096C42.9246 17.445 42.658 16.9323 42.658 16.2715C42.658 15.8021 42.8061 15.401 43.1023 15.0684C43.4031 14.7357 43.8178 14.5146 44.3464 14.4053C44.1505 14.3141 43.9819 14.1774 43.8406 13.9951C43.7039 13.8128 43.6355 13.6032 43.6355 13.3662C43.6355 13.0928 43.7107 12.8535 43.8611 12.6484C44.016 12.4388 44.2507 12.2383 44.5652 12.0469C44.1733 11.8874 43.8542 11.6185 43.6082 11.2402C43.3666 10.8574 43.2458 10.4131 43.2458 9.90723C43.2458 9.36947 43.3575 8.91146 43.5808 8.5332C43.8041 8.15039 44.1277 7.85872 44.5515 7.6582C44.9753 7.45768 45.488 7.35742 46.0896 7.35742C46.2218 7.35742 46.3539 7.36426 46.4861 7.37793C46.6228 7.38704 46.7527 7.40299 46.8757 7.42578C46.9988 7.44401 47.1059 7.4668 47.197 7.49414H49.7673V8.22559L48.3865 8.39648C48.5232 8.57422 48.6371 8.78841 48.7283 9.03906C48.8194 9.28971 48.865 9.56771 48.865 9.87305C48.865 10.6204 48.6121 11.2152 48.1062 11.6572C47.6003 12.0947 46.9054 12.3135 46.0212 12.3135C45.8116 12.3135 45.5974 12.2952 45.3787 12.2588C45.1554 12.3818 44.9845 12.5186 44.866 12.6689C44.752 12.8193 44.6951 12.9925 44.6951 13.1885C44.6951 13.3343 44.7384 13.4505 44.825 13.5371C44.9161 13.6237 45.046 13.6875 45.2146 13.7285C45.3832 13.765 45.586 13.7832 45.823 13.7832H47.1423C47.9581 13.7832 48.5824 13.9541 49.0154 14.2959C49.4529 14.6377 49.6716 15.1367 49.6716 15.793C49.6716 16.6224 49.3344 17.2581 48.6599 17.7002C47.9854 18.1423 47.0102 18.3633 45.7341 18.3633ZM45.7683 17.4746C46.3881 17.4746 46.9008 17.4108 47.3064 17.2832C47.7166 17.1602 48.0219 16.9801 48.2224 16.7432C48.4275 16.5107 48.53 16.2327 48.53 15.9092C48.53 15.6084 48.4617 15.3805 48.325 15.2256C48.1882 15.0752 47.9877 14.9749 47.7234 14.9248C47.4591 14.8701 47.1355 14.8428 46.7527 14.8428H45.4539C45.1166 14.8428 44.8227 14.8952 44.572 15C44.3214 15.1048 44.1277 15.2598 43.991 15.4648C43.8588 15.6699 43.7927 15.9251 43.7927 16.2305C43.7927 16.6361 43.9636 16.9437 44.3054 17.1533C44.6472 17.3675 45.1348 17.4746 45.7683 17.4746ZM46.0623 11.4863C46.6046 11.4863 47.0125 11.3496 47.2859 11.0762C47.5593 10.8027 47.696 10.404 47.696 9.87988C47.696 9.31934 47.557 8.90007 47.2791 8.62207C47.0011 8.33952 46.5909 8.19824 46.0486 8.19824C45.5291 8.19824 45.128 8.34408 44.8455 8.63574C44.5675 8.92285 44.4285 9.3444 44.4285 9.90039C44.4285 10.4108 44.5697 10.8027 44.8523 11.0762C45.1348 11.3496 45.5382 11.4863 46.0623 11.4863ZM52.3787 7.50781V15H51.2439V7.50781H52.3787ZM51.825 4.70508C52.0118 4.70508 52.1713 4.7666 52.3035 4.88965C52.4402 5.00814 52.5085 5.19499 52.5085 5.4502C52.5085 5.70085 52.4402 5.8877 52.3035 6.01074C52.1713 6.13379 52.0118 6.19531 51.825 6.19531C51.629 6.19531 51.4649 6.13379 51.3328 6.01074C51.2052 5.8877 51.1414 5.70085 51.1414 5.4502C51.1414 5.19499 51.2052 5.00814 51.3328 4.88965C51.4649 4.7666 51.629 4.70508 51.825 4.70508ZM58.3328 7.37109C59.2214 7.37109 59.8936 7.58984 60.3494 8.02734C60.8051 8.46029 61.033 9.15755 61.033 10.1191V15H59.9119V10.1943C59.9119 9.56999 59.7683 9.10286 59.4812 8.79297C59.1986 8.48307 58.7634 8.32812 58.1755 8.32812C57.3461 8.32812 56.7628 8.56283 56.4255 9.03223C56.0883 9.50163 55.9197 10.1829 55.9197 11.0762V15H54.7849V7.50781H55.7009L55.8718 8.58789H55.9333C56.0929 8.32357 56.2957 8.10254 56.5417 7.9248C56.7878 7.74251 57.0636 7.60579 57.3689 7.51465C57.6742 7.41895 57.9955 7.37109 58.3328 7.37109ZM73.1052 14.9863L71.7722 10.625C71.713 10.4382 71.656 10.2559 71.6013 10.0781C71.5512 9.89583 71.5033 9.72266 71.4578 9.55859C71.4167 9.38997 71.378 9.23503 71.3416 9.09375C71.3097 8.94792 71.2823 8.82259 71.2595 8.71777H71.2117C71.1934 8.82259 71.1684 8.94792 71.1365 9.09375C71.1046 9.23503 71.0658 9.38997 71.0203 9.55859C70.9792 9.72721 70.9337 9.90495 70.8835 10.0918C70.8334 10.2741 70.7764 10.4587 70.7126 10.6455L69.3181 14.9863H68.0398L65.9753 7.49414H67.1511L68.2312 11.6299C68.3041 11.9033 68.3725 12.1745 68.4363 12.4434C68.5046 12.7077 68.5616 12.9583 68.6072 13.1953C68.6573 13.4277 68.6938 13.6305 68.7166 13.8037H68.7712C68.7986 13.6898 68.8282 13.5531 68.8601 13.3936C68.8966 13.234 68.9353 13.0654 68.9763 12.8877C69.0219 12.7054 69.0697 12.5254 69.1199 12.3477C69.17 12.1654 69.2201 11.9945 69.2703 11.835L70.6511 7.49414H71.8748L73.2078 11.8281C73.2761 12.0469 73.3422 12.2747 73.406 12.5117C73.4744 12.7487 73.5359 12.9788 73.5906 13.2021C73.6453 13.4209 73.684 13.6169 73.7068 13.79H73.7615C73.7797 13.6351 73.8139 13.4437 73.864 13.2158C73.9141 12.988 73.9711 12.7373 74.0349 12.4639C74.1033 12.1904 74.1739 11.9124 74.2468 11.6299L75.3406 7.49414H76.4958L74.4246 14.9863H73.1052ZM78.9978 7.50781V15H77.863V7.50781H78.9978ZM78.4441 4.70508C78.6309 4.70508 78.7904 4.7666 78.9226 4.88965C79.0593 5.00814 79.1277 5.19499 79.1277 5.4502C79.1277 5.70085 79.0593 5.8877 78.9226 6.01074C78.7904 6.13379 78.6309 6.19531 78.4441 6.19531C78.2481 6.19531 78.0841 6.13379 77.9519 6.01074C77.8243 5.8877 77.7605 5.70085 77.7605 5.4502C77.7605 5.19499 77.8243 5.00814 77.9519 4.88965C78.0841 4.7666 78.2481 4.70508 78.4441 4.70508ZM83.824 14.207C84.0108 14.207 84.2022 14.1911 84.3982 14.1592C84.5942 14.1273 84.7537 14.0885 84.8767 14.043V14.9248C84.7445 14.984 84.56 15.0342 84.323 15.0752C84.0906 15.1162 83.8627 15.1367 83.6394 15.1367C83.2429 15.1367 82.8829 15.0684 82.5593 14.9316C82.2358 14.7904 81.976 14.5534 81.78 14.2207C81.5886 13.888 81.4929 13.4277 81.4929 12.8398V8.39648H80.4265V7.84277L81.4998 7.39844L81.9509 5.77148H82.6345V7.50781H84.8289V8.39648H82.6345V12.8057C82.6345 13.2751 82.7416 13.626 82.9558 13.8584C83.1746 14.0908 83.4639 14.207 83.824 14.207ZM87.5291 4.36328V7.54199C87.5291 7.72428 87.5245 7.90885 87.5154 8.0957C87.5063 8.27799 87.4903 8.44661 87.4675 8.60156H87.5427C87.6977 8.33724 87.8936 8.11621 88.1306 7.93848C88.3722 7.75618 88.6456 7.61947 88.9509 7.52832C89.2563 7.43262 89.5798 7.38477 89.9216 7.38477C90.5232 7.38477 91.0245 7.48047 91.4255 7.67188C91.8311 7.86328 92.1342 8.15951 92.3347 8.56055C92.5398 8.96159 92.6423 9.48112 92.6423 10.1191V15H91.5212V10.1943C91.5212 9.56999 91.3777 9.10286 91.0906 8.79297C90.808 8.48307 90.3728 8.32812 89.7849 8.32812C89.2289 8.32812 88.7846 8.43522 88.4519 8.64941C88.1238 8.85905 87.8868 9.16895 87.741 9.5791C87.5997 9.98926 87.5291 10.4906 87.5291 11.083V15H86.3943V4.36328H87.5291ZM98.7878 15V5.00586H99.95V13.9609H104.386V15H98.7878ZM107.066 7.50781V15H105.931V7.50781H107.066ZM106.512 4.70508C106.699 4.70508 106.859 4.7666 106.991 4.88965C107.128 5.00814 107.196 5.19499 107.196 5.4502C107.196 5.70085 107.128 5.8877 106.991 6.01074C106.859 6.13379 106.699 6.19531 106.512 6.19531C106.316 6.19531 106.152 6.13379 106.02 6.01074C105.893 5.8877 105.829 5.70085 105.829 5.4502C105.829 5.19499 105.893 5.00814 106.02 4.88965C106.152 4.7666 106.316 4.70508 106.512 4.70508ZM113.02 7.37109C113.909 7.37109 114.581 7.58984 115.037 8.02734C115.493 8.46029 115.72 9.15755 115.72 10.1191V15H114.599V10.1943C114.599 9.56999 114.456 9.10286 114.169 8.79297C113.886 8.48307 113.451 8.32812 112.863 8.32812C112.034 8.32812 111.45 8.56283 111.113 9.03223C110.776 9.50163 110.607 10.1829 110.607 11.0762V15H109.472V7.50781H110.388L110.559 8.58789H110.621C110.78 8.32357 110.983 8.10254 111.229 7.9248C111.475 7.74251 111.751 7.60579 112.056 7.51465C112.362 7.41895 112.683 7.37109 113.02 7.37109ZM119.186 4.36328V9.88672C119.186 10.069 119.179 10.2923 119.166 10.5566C119.152 10.8164 119.141 11.0465 119.132 11.2471H119.179C119.275 11.1286 119.414 10.9531 119.596 10.7207C119.783 10.4883 119.941 10.3014 120.068 10.1602L122.556 7.50781H123.889L120.875 10.707L124.108 15H122.741L120.095 11.4521L119.186 12.2861V15H118.058V4.36328H119.186ZM128.299 7.37109C128.937 7.37109 129.483 7.51237 129.939 7.79492C130.395 8.07747 130.744 8.47396 130.985 8.98438C131.227 9.49023 131.347 10.0827 131.347 10.7617V11.4658H126.173C126.186 12.3454 126.405 13.0153 126.829 13.4756C127.253 13.9359 127.85 14.166 128.62 14.166C129.094 14.166 129.513 14.1227 129.878 14.0361C130.242 13.9495 130.621 13.8219 131.012 13.6533V14.6514C130.634 14.82 130.258 14.943 129.885 15.0205C129.515 15.098 129.078 15.1367 128.572 15.1367C127.852 15.1367 127.223 14.9909 126.685 14.6992C126.152 14.403 125.737 13.9701 125.441 13.4004C125.145 12.8307 124.997 12.1335 124.997 11.3086C124.997 10.502 125.131 9.80469 125.4 9.2168C125.674 8.62435 126.056 8.16862 126.549 7.84961C127.045 7.5306 127.629 7.37109 128.299 7.37109ZM128.285 8.30078C127.679 8.30078 127.196 8.49902 126.836 8.89551C126.476 9.29199 126.261 9.8457 126.193 10.5566H130.158C130.153 10.11 130.083 9.7181 129.946 9.38086C129.814 9.03906 129.611 8.77474 129.338 8.58789C129.064 8.39648 128.713 8.30078 128.285 8.30078ZM135.941 15.1367C134.993 15.1367 134.241 14.8132 133.685 14.166C133.134 13.5189 132.858 12.5573 132.858 11.2812C132.858 9.99154 133.141 9.01855 133.706 8.3623C134.271 7.7015 135.023 7.37109 135.962 7.37109C136.358 7.37109 136.705 7.4235 137.001 7.52832C137.297 7.63314 137.552 7.77441 137.766 7.95215C137.981 8.12533 138.161 8.32357 138.306 8.54688H138.388C138.37 8.4056 138.352 8.21191 138.334 7.96582C138.316 7.71973 138.306 7.51921 138.306 7.36426V4.36328H139.441V15H138.525L138.354 13.9336H138.306C138.165 14.1569 137.985 14.3597 137.766 14.542C137.552 14.7243 137.295 14.8701 136.994 14.9795C136.698 15.0843 136.347 15.1367 135.941 15.1367ZM136.119 14.1934C136.921 14.1934 137.488 13.9655 137.821 13.5098C138.154 13.054 138.32 12.3773 138.32 11.4795V11.2744C138.32 10.3219 138.161 9.59049 137.842 9.08008C137.527 8.56966 136.953 8.31445 136.119 8.31445C135.422 8.31445 134.9 8.58333 134.553 9.12109C134.207 9.6543 134.034 10.3835 134.034 11.3086C134.034 12.2292 134.205 12.9401 134.547 13.4414C134.893 13.9427 135.417 14.1934 136.119 14.1934ZM142.982 7.50781V15H141.847V7.50781H142.982ZM142.428 4.70508C142.615 4.70508 142.775 4.7666 142.907 4.88965C143.044 5.00814 143.112 5.19499 143.112 5.4502C143.112 5.70085 143.044 5.8877 142.907 6.01074C142.775 6.13379 142.615 6.19531 142.428 6.19531C142.233 6.19531 142.068 6.13379 141.936 6.01074C141.809 5.8877 141.745 5.70085 141.745 5.4502C141.745 5.19499 141.809 5.00814 141.936 4.88965C142.068 4.7666 142.233 4.70508 142.428 4.70508ZM148.936 7.37109C149.825 7.37109 150.497 7.58984 150.953 8.02734C151.409 8.46029 151.636 9.15755 151.636 10.1191V15H150.515V10.1943C150.515 9.56999 150.372 9.10286 150.085 8.79297C149.802 8.48307 149.367 8.32812 148.779 8.32812C147.95 8.32812 147.366 8.56283 147.029 9.03223C146.692 9.50163 146.523 10.1829 146.523 11.0762V15H145.388V7.50781H146.304L146.475 8.58789H146.537C146.696 8.32357 146.899 8.10254 147.145 7.9248C147.391 7.74251 147.667 7.60579 147.972 7.51465C148.278 7.41895 148.599 7.37109 148.936 7.37109Z" fill="#444444"/>
</svg>
