<svg width="20" height="17" viewBox="0 0 18 17" fill="none" xmlns="http://www.w3.org/2000/svg">
<path fill-rule="evenodd" clip-rule="evenodd" d="M4.34122 8.22243C4.34122 7.68835 4.42992 7.17631 4.58824 6.69605L1.81709 4.5799C1.277 5.67647 0.972717 6.91207 0.972717 8.22243C0.972717 9.53166 1.27663 10.7665 1.81596 11.8623L4.58562 9.74208C4.4288 9.26406 4.34122 8.7539 4.34122 8.22243Z" fill="#FBBC05"/>
<path fill-rule="evenodd" clip-rule="evenodd" d="M9.20678 3.36372C10.367 3.36372 11.415 3.77484 12.2384 4.44759L14.6338 2.05561C13.1741 0.784868 11.3027 0 9.20678 0C5.95281 0 3.15621 1.86088 1.81705 4.57989L4.5882 6.69605C5.22672 4.7578 7.04683 3.36372 9.20678 3.36372Z" fill="#EB4335"/>
<path fill-rule="evenodd" clip-rule="evenodd" d="M9.20678 13.0811C7.04683 13.0811 5.22672 11.6871 4.5882 9.74881L1.81705 11.8646C3.15621 14.584 5.95281 16.4449 9.20678 16.4449C11.2152 16.4449 13.1326 15.7317 14.5717 14.3956L11.9413 12.362C11.1991 12.8296 10.2645 13.0811 9.20678 13.0811Z" fill="#34A853"/>
<path fill-rule="evenodd" clip-rule="evenodd" d="M17.0666 8.22242C17.0666 7.73655 16.9918 7.2133 16.8795 6.72743H9.20682V9.90428H13.6233C13.4025 10.9874 12.8014 11.8201 11.9413 12.362L14.5717 14.3956C16.0834 12.9925 17.0666 10.9026 17.0666 8.22242Z" fill="#4285F4"/>
</svg>
