<svg width="17" height="15" viewBox="0 0 17 15" fill="none" xmlns="http://www.w3.org/2000/svg">
<path fill-rule="evenodd" clip-rule="evenodd" d="M16.7097 15H13.1735V9.72689C13.1735 8.34667 12.6204 7.40443 11.404 7.40443C10.4736 7.40443 9.95618 8.04028 9.71535 8.65307C9.62504 8.87302 9.63916 9.17942 9.63916 9.48581V15H6.13588C6.13588 15 6.18103 5.65922 6.13588 4.81015H9.63916V6.40937C9.84612 5.71013 10.9656 4.71217 12.752 4.71217C14.9684 4.71217 16.7097 6.17789 16.7097 9.33406V15ZM2.59306 3.53557H2.57049C1.44161 3.53557 0.709717 2.75661 0.709717 1.76922C0.709717 0.762627 1.46324 0 2.6147 0C3.76522 0 4.47265 0.760715 4.49523 1.76635C4.49523 2.75374 3.76522 3.53557 2.59306 3.53557ZM1.11328 4.81015H4.23182V15H1.11328V4.81015Z" fill="#007EBB"/>
</svg>
