<svg width="511" height="370" viewBox="0 0 511 370" fill="none" xmlns="http://www.w3.org/2000/svg">
<path d="M180.853 313.478L43.8456 265.863L75.9104 173.431L212.918 221.047L180.853 313.478Z" fill="#ECECEC"/>
<path d="M212.92 221.047C212.936 221.089 212.35 221.359 211.218 221.833C209.963 222.343 208.309 223.014 206.243 223.852C201.766 225.606 195.515 228.054 187.842 231.06C172.133 237.076 150.63 245.311 126.813 254.432L126.311 254.624L126.023 254.167C125.803 253.819 125.564 253.442 125.326 253.063C111.622 231.18 99.2204 211.377 90.1531 196.898C85.7627 189.77 82.1838 183.958 79.622 179.797C78.4554 177.851 77.522 176.293 76.8146 175.113C76.1855 174.034 75.8741 173.455 75.9123 173.431C75.9506 173.407 76.3377 173.938 77.0388 174.971C77.7988 176.118 78.8016 177.631 80.0553 179.524C82.7035 183.63 86.4025 189.365 90.9406 196.401C100.092 210.826 112.609 230.558 126.44 252.359C126.679 252.738 126.916 253.117 127.136 253.464L126.347 253.2C150.217 244.222 171.769 236.116 187.514 230.194C195.249 227.351 201.551 225.036 206.062 223.377C208.165 222.634 209.849 222.038 211.125 221.587C212.287 221.192 212.904 221.004 212.92 221.047Z" fill="#E1E1E1"/>
<path d="M43.8472 265.864C43.6622 265.55 58.3603 256.46 76.6728 245.563C94.9925 234.663 109.989 226.082 110.175 226.395C110.36 226.707 95.6643 235.795 77.3455 246.696C59.033 257.594 44.0332 266.176 43.8472 265.864Z" fill="#E1E1E1"/>
<path d="M156.115 241.067C156.46 240.948 162.277 257.064 169.108 277.057C175.94 297.057 181.198 313.361 180.854 313.478C180.51 313.596 174.694 297.484 167.861 277.484C161.031 257.491 155.772 241.184 156.115 241.067Z" fill="#E1E1E1"/>
<path d="M495.697 240.889L360.129 263.88L344.645 172.421L480.214 149.429L495.697 240.889Z" fill="#E1E1E1"/>
<path d="M480.214 149.429C480.247 149.456 479.882 149.949 479.157 150.86C478.347 151.857 477.279 153.169 475.943 154.811C473.023 158.312 468.943 163.201 463.936 169.202C453.622 181.376 439.506 198.039 423.87 216.496L423.54 216.885L423.092 216.636C422.751 216.447 422.381 216.243 422.01 216.036C400.646 204.108 381.313 193.313 367.177 185.421C360.279 181.5 354.656 178.305 350.63 176.018C348.773 174.932 347.287 174.063 346.163 173.405C345.147 172.796 344.624 172.458 344.646 172.42C344.666 172.383 345.23 172.647 346.284 173.185C347.438 173.791 348.961 174.592 350.865 175.592C354.938 177.795 360.626 180.872 367.605 184.648C381.786 192.458 401.182 203.14 422.615 214.944C422.986 215.149 423.356 215.354 423.697 215.544L422.92 215.685C438.667 197.322 452.883 180.744 463.269 168.632C468.402 162.737 472.583 157.936 475.577 154.497C476.985 152.919 478.114 151.656 478.968 150.698C479.754 149.838 480.182 149.401 480.214 149.429Z" fill="#ECECEC"/>
<path d="M360.129 263.881C359.832 263.706 367.904 249.44 378.157 232.021C388.412 214.596 396.964 200.617 397.261 200.792C397.557 200.967 389.488 215.23 379.232 232.654C368.979 250.074 360.426 264.056 360.129 263.881Z" fill="#ECECEC"/>
<path d="M442.131 192.006C442.364 191.751 454.543 202.488 469.333 215.985C484.128 229.486 495.929 240.635 495.697 240.89C495.466 241.144 483.287 230.41 468.492 216.909C453.703 203.412 441.898 192.26 442.131 192.006Z" fill="#ECECEC"/>
<path d="M412.395 102.401L320.259 66.1404L344.678 3.9817L436.813 40.2427L412.395 102.401Z" fill="#ECECEC"/>
<path d="M436.815 41.1065C436.826 41.1359 436.418 41.3033 435.632 41.5963C434.762 41.9089 433.616 42.3213 432.183 42.8361C429.082 43.9084 424.751 45.4056 419.434 47.2438C408.553 50.9132 393.66 55.9354 377.164 61.4983L376.816 61.6159L376.632 61.2961C376.492 61.053 376.34 60.7885 376.188 60.524C367.443 45.2203 359.531 31.3701 353.746 21.2446C350.948 16.2606 348.667 12.1985 347.035 9.2897C346.293 7.92971 345.7 6.84136 345.249 6.01664C344.849 5.26316 344.653 4.8606 344.68 4.84457C344.706 4.82943 344.957 5.2026 345.406 5.92668C345.893 6.72914 346.535 7.78988 347.337 9.11513C349.031 11.9883 351.395 16.0024 354.297 20.9266C360.14 31.0183 368.133 44.8222 376.966 60.0751C377.118 60.3396 377.27 60.6041 377.41 60.8482L376.88 60.6451C393.408 55.1811 408.332 50.2479 419.234 46.6435C424.589 44.9184 428.95 43.513 432.073 42.5066C433.529 42.0577 434.693 41.6988 435.575 41.4253C436.379 41.1875 436.805 41.0771 436.815 41.1065Z" fill="#E1E1E1"/>
<path d="M320.26 67.0035C320.141 66.7852 330.418 60.9917 343.208 54.0644C356.004 47.1353 366.47 41.6972 366.587 41.9162C366.705 42.1344 356.432 47.9271 343.636 54.8562C330.845 61.7826 320.378 67.2217 320.26 67.0035Z" fill="#E1E1E1"/>
<path d="M397.52 53.1917C397.758 53.1214 401.281 64.2738 405.388 78.099C409.497 91.9296 412.633 103.194 412.397 103.266C412.158 103.336 408.635 92.1852 404.527 78.3555C400.42 64.5303 397.281 53.263 397.52 53.1917Z" fill="#E1E1E1"/>
<path d="M318.574 286.461C397.939 287.194 438.705 246.53 438.705 246.53C458.935 228.3 465.641 203.751 463.602 176.582C461.497 148.525 452.243 127.32 427.313 114.321C402.384 101.32 371.982 100.485 345.426 109.71C329.669 115.184 314.36 124.128 297.695 123.413C274.957 122.437 256.934 103.71 245.388 84.0775C233.844 64.4453 225.866 42.2981 210.229 25.7458C188.369 2.60638 152.299 -5.8074 122.471 5.27557C92.6428 16.3594 70.0982 42.9785 63.7707 75.1364C63.7707 75.1364 50.6636 118.721 81.7745 178.522C146.974 303.847 318.574 286.461 318.574 286.461Z" fill="#ECECEC"/>
<path d="M510.007 369.287C510.007 369.415 395.829 369.519 255.015 369.519C114.154 369.519 0 369.415 0 369.287C0 369.159 114.154 369.054 255.015 369.054C395.829 369.054 510.007 369.159 510.007 369.287Z" fill="#1A2E35"/>
<path d="M25.1604 126.484L37.9 121.967L32.433 114.66C32.3395 114.182 32.0539 112.493 32.0414 109.768C32.0379 108.926 32.1856 108.09 32.4641 107.294C32.8013 106.33 33.3014 105.067 33.7908 104.46C34.395 103.71 33.7739 102.614 32.9286 102.839C32.0833 103.065 30.3668 105.091 29.6078 108.1C28.8496 111.111 26.7897 106.682 26.0102 105.082C25.2307 103.481 22.5871 98.6436 21.9063 98.494C20.9071 98.274 20.488 99.3053 21.303 100.885C22.1288 102.485 24.2306 107.375 23.3665 107.747C22.515 108.113 18.6585 99.9119 18.6585 99.9119C18.6585 99.9119 18.1175 98.0255 17.1049 98.4209C15.278 99.1343 20.019 107.551 20.4897 108.34C20.8172 108.889 19.8927 109.326 19.5732 108.718C19.2431 108.092 15.9161 100.449 14.0492 101.157C12.6166 101.701 17.8843 108.115 17.6948 110.086C17.5044 112.055 14.1934 104.814 12.8471 105.39C12.3452 105.605 11.9999 105.834 14.5012 109.717C15.3475 111.03 16.8655 112.965 18.5161 114.963H18.5143L25.1604 126.484Z" fill="#FFBF9D"/>
<path d="M139.688 142.059C139.688 142.059 133.411 127.375 129.073 120.242C124.989 113.53 119.582 112.439 116.7 112.236C114.522 111.597 113.029 111.484 113.029 111.484L89.4559 111.283C89.4559 111.283 82.1353 110.899 75.3869 116.446C74.3004 117.34 66.1523 126.794 55.3472 140.263L36.4357 119.811L25.1617 126.484C25.1617 126.484 37.4074 168.799 52.772 165.893C61.8758 164.172 68.9953 157.827 68.9953 157.827L80.9589 148.175L81.2366 149.775C81.4786 151.726 82.0846 154.878 82.5419 156.79C83.9888 162.834 84.7932 170.797 81.6859 176.072C81.6859 176.072 77.4219 179.336 80.813 182.927H125.166C125.166 182.927 131.449 178.664 125.713 173.921L122.119 164.914L124.442 153.924L125.312 149.524L129.213 156.22C129.213 156.22 136.941 165.951 144.975 164.754C154.634 163.316 160.231 145.707 151.513 122.427L141.012 125.624L139.688 142.059Z" fill="#091941"/>
<g opacity="0.399994">
<g opacity="0.399994">
<path opacity="0.399994" d="M25.1615 126.484L26.2756 130.015L38.7989 122.366L36.4356 119.811L25.1615 126.484Z" fill="black"/>
</g>
</g>
<g opacity="0.199997">
<g opacity="0.199997">
<path opacity="0.199997" d="M81.6851 176.072C85.4873 175.555 88.7405 173.401 91.0247 170.316C93.3089 167.23 94.2877 163.207 93.6755 159.416C93.4593 158.079 92.9716 156.66 91.8255 155.941C90.4267 155.064 88.5181 155.515 87.0614 154.738C85.8735 154.105 85.2382 152.804 84.4151 151.738C83.5938 150.671 82.4406 149.01 81.2073 149.548C81.2073 149.548 82.6968 157.387 83.3464 160.876C84.0013 164.389 84.2069 169.376 82.9843 173.043C82.6488 174.128 82.2083 175.133 81.6851 176.072Z" fill="black"/>
</g>
</g>
<path d="M53.5663 147.49C53.4266 147.469 53.6509 145.791 54.2239 143.813C54.7952 141.839 55.2214 140.244 55.346 140.264C55.4857 140.285 55.2614 141.962 54.6884 143.941C54.118 145.915 53.6909 147.509 53.5663 147.49Z" fill="#1A2E35"/>
<path d="M56.3707 145.535C56.2408 145.562 55.8964 144.401 55.6028 142.943C55.31 141.484 55.1774 140.281 55.3082 140.255C55.4382 140.228 55.7825 141.389 56.0753 142.847C56.3689 144.305 56.5006 145.509 56.3707 145.535Z" fill="#1A2E35"/>
<path d="M140.959 93.6927L124.855 119.811L137.529 123.339L151.587 101.64L140.959 93.6927Z" fill="#375A64"/>
<path d="M139.952 115.944L140.502 119.761L142.748 122.655L142.974 125.026L151.053 122.567L147.788 111.029C147.788 111.029 148.312 107.671 148.103 106.306L145.884 109.258L145.272 104.447L140.717 100.783C140.223 100.415 139.523 100.522 139.162 101.022C138.842 101.465 138.894 102.074 139.283 102.457L142.937 105.683L143.174 109.665L140.531 107.202C140.27 106.96 139.948 106.794 139.599 106.724L135.925 105.988C135.37 105.877 134.841 106.27 134.784 106.833C134.738 107.287 135.019 107.711 135.455 107.845L138.796 108.874L142.177 112.289L138.874 111.029L134.38 111.659C133.951 111.719 133.63 112.087 133.63 112.522C133.63 113.022 134.05 113.421 134.55 113.393L137.406 113.234L139.084 113.758L135.219 114.783C134.863 114.878 134.621 115.208 134.639 115.577C134.661 116.018 135.043 116.352 135.483 116.316L139.952 115.944Z" fill="#FFBF9D"/>
<g opacity="0.399994">
<g opacity="0.399994">
<path opacity="0.399994" d="M141.012 125.624L140.667 129.903L152.918 126.52L151.512 122.428L141.012 125.624Z" fill="black"/>
</g>
</g>
<path d="M124.857 119.811C124.857 119.811 123.775 118.34 123.858 118.089C123.942 117.839 139.184 92.7306 139.184 92.7306L140.96 93.6924L124.857 119.811Z" fill="#1A2E35"/>
<path d="M144.991 100.257C145.263 99.9843 145.811 100.123 145.921 100.493C146.03 100.862 145.648 101.277 145.271 101.199C144.895 101.12 144.712 100.585 144.96 100.291" fill="#1A2E35"/>
<path d="M134.905 132.485C134.905 132.485 134.802 132.742 134.44 133.112C134.082 133.479 133.419 133.919 132.459 134.143C131.506 134.386 130.278 134.372 128.923 134.139C127.573 133.951 126.016 133.561 124.36 133.935C122.703 134.298 121.116 135.36 119.541 136.62C117.95 137.844 116.272 139.354 114.008 140.067C112.88 140.388 111.662 140.496 110.446 140.347C109.232 140.186 108.043 139.812 106.876 139.356C104.542 138.438 102.303 137.147 99.8519 136.256C98.6257 135.816 97.3746 135.517 96.1236 135.426C94.8698 135.348 93.624 135.489 92.4219 135.74C90.0131 136.238 87.7539 137.079 85.5 137.557C80.9512 138.579 76.6498 137.531 73.6012 135.909C70.5038 134.278 68.5328 132.152 67.4081 130.586C66.2931 128.992 65.9265 127.971 65.9265 127.971C65.9835 127.94 66.4097 128.933 67.5593 130.474C68.717 131.989 70.696 134.043 73.757 135.605C76.7752 137.16 80.9752 138.144 85.4047 137.122C87.6168 136.642 89.869 135.792 92.3276 135.277C93.5537 135.018 94.8431 134.867 96.152 134.948C97.461 135.04 98.761 135.352 100.015 135.802C102.52 136.715 104.762 138.011 107.051 138.916C108.193 139.367 109.345 139.732 110.504 139.89C111.664 140.035 112.811 139.937 113.88 139.642C116.02 138.985 117.689 137.525 119.296 136.304C120.888 135.055 122.54 133.962 124.289 133.601C126.05 133.231 127.633 133.664 128.966 133.873C130.309 134.128 131.484 134.167 132.419 133.96C133.353 133.77 134.004 133.375 134.373 133.041C134.746 132.706 134.883 132.469 134.905 132.485Z" fill="#FAFAFA"/>
<path d="M139.946 149.45C139.813 149.454 139.65 147.686 139.582 145.499C139.515 143.314 139.567 141.539 139.7 141.534C139.833 141.53 139.996 143.298 140.064 145.485C140.132 147.671 140.079 149.446 139.946 149.45Z" fill="#1A2E35"/>
<path d="M112.19 313.209C112.581 314.753 121.655 365.69 121.655 365.69L135.558 364.649L133.017 312.638L112.19 313.209Z" fill="#FFBF9D"/>
<path d="M135.98 365.456L135.936 363.991L121.12 364.3L121.209 369.129L122.124 369.166C126.2 369.3 142.855 369.579 145.558 368.761C148.573 367.847 135.98 365.456 135.98 365.456Z" fill="#091941"/>
<g opacity="0.300003">
<g opacity="0.300003">
<path opacity="0.300003" d="M126.553 368.921C126.317 367.778 125.607 366.724 124.605 366.029C123.601 365.334 122.377 364.98 121.133 365.096L121.218 368.932L126.553 368.921Z" fill="black"/>
</g>
</g>
<g opacity="0.300003">
<g opacity="0.300003">
<path opacity="0.300003" d="M142.138 366.827C142.138 366.827 146.557 367.924 146.024 368.608C145.492 369.292 128.651 369.598 121.208 369.129L121.225 368.821L140.873 368.619C140.873 368.619 141.28 366.877 142.138 366.827Z" fill="black"/>
</g>
</g>
<path d="M120.993 368.817C120.993 368.823 121.08 368.83 121.247 368.838C121.466 368.846 121.706 368.855 121.976 368.866C122.705 368.881 123.602 368.902 124.66 368.924C126.925 368.959 130.058 368.968 133.515 368.908C136.972 368.846 140.102 368.727 142.365 368.613C143.421 368.553 144.315 368.503 145.043 368.462C145.314 368.441 145.553 368.424 145.771 368.408C145.937 368.394 146.024 368.384 146.024 368.378C146.023 368.373 145.936 368.372 145.769 368.374C145.55 368.382 145.31 368.389 145.04 368.397C144.312 368.424 143.416 368.457 142.358 368.496C140.096 368.579 136.968 368.68 133.511 368.741C130.056 368.801 126.925 368.811 124.661 368.806C123.603 368.804 122.707 368.802 121.977 368.8C121.707 368.802 121.466 368.803 121.247 368.805C121.081 368.807 120.993 368.812 120.993 368.817Z" fill="#1A2E35"/>
<path d="M140.873 368.832C140.928 368.838 140.957 368.241 141.347 367.632C141.726 367.017 142.272 366.702 142.24 366.661C142.228 366.62 141.602 366.889 141.192 367.549C140.776 368.202 140.829 368.843 140.873 368.832Z" fill="#1A2E35"/>
<path d="M136.475 366.857C136.517 366.88 136.72 366.641 136.928 366.321C137.136 366.003 137.27 365.725 137.229 365.7C137.186 365.677 136.983 365.915 136.775 366.236C136.567 366.555 136.432 366.834 136.475 366.857Z" fill="#1A2E35"/>
<path d="M135.267 366.291C135.3 366.324 135.53 366.176 135.779 365.958C136.028 365.742 136.204 365.538 136.17 365.505C136.136 365.471 135.906 365.62 135.657 365.837C135.408 366.054 135.233 366.258 135.267 366.291Z" fill="#1A2E35"/>
<path d="M134.485 365.009C134.485 365.056 134.831 365.09 135.256 365.087C135.682 365.083 136.027 365.043 136.026 364.997C136.026 364.951 135.681 364.917 135.254 364.919C134.829 364.923 134.485 364.963 134.485 365.009Z" fill="#1A2E35"/>
<path d="M134.203 364.1C134.187 364.141 134.566 364.293 135.067 364.317C135.568 364.344 135.963 364.233 135.952 364.191C135.943 364.144 135.553 364.177 135.077 364.151C134.601 364.128 134.218 364.054 134.203 364.1Z" fill="#1A2E35"/>
<path d="M136.949 365.65C136.948 365.669 137.313 365.704 137.897 365.628C138.188 365.59 138.532 365.519 138.901 365.403C139.085 365.337 139.277 365.289 139.474 365.17C139.566 365.111 139.669 365.027 139.702 364.892C139.739 364.759 139.66 364.612 139.551 364.542C138.635 364.121 137.738 364.612 137.412 365.054C137.231 365.28 137.152 365.498 137.116 365.649C137.081 365.8 137.086 365.886 137.097 365.887C137.131 365.898 137.153 365.539 137.512 365.127C137.689 364.925 137.958 364.727 138.311 364.623C138.643 364.524 139.119 364.49 139.442 364.673C139.595 364.775 139.539 364.94 139.374 365.037C139.22 365.133 139.02 365.193 138.846 365.258C138.49 365.379 138.158 365.46 137.876 365.512C137.31 365.616 136.948 365.624 136.949 365.65Z" fill="#1A2E35"/>
<path d="M137.196 365.69C137.209 365.699 137.345 365.471 137.291 365.076C137.264 364.881 137.182 364.651 137.018 364.436C136.846 364.243 136.626 363.977 136.219 364.001C136 364.03 135.899 364.264 135.936 364.412C135.956 364.566 136.035 364.698 136.106 364.804C136.252 365.022 136.416 365.197 136.566 365.33C136.868 365.595 137.105 365.693 137.116 365.676C137.132 365.655 136.924 365.522 136.656 365.248C136.523 365.111 136.378 364.935 136.247 364.725C136.113 364.541 136.016 364.208 136.254 364.164C136.49 364.138 136.737 364.354 136.886 364.526C137.039 364.714 137.127 364.919 137.167 365.095C137.248 365.453 137.164 365.683 137.196 365.69Z" fill="#1A2E35"/>
<path d="M121.211 365.056C121.214 365.087 121.632 365.011 122.301 365.072C122.963 365.129 123.886 365.364 124.699 365.94C125.51 366.519 125.996 367.287 126.228 367.867C126.466 368.452 126.497 368.847 126.53 368.842C126.541 368.842 126.544 368.743 126.525 368.565C126.505 368.387 126.453 368.133 126.347 367.827C126.14 367.222 125.653 366.411 124.807 365.808C123.96 365.207 122.992 364.982 122.31 364.955C121.966 364.938 121.688 364.96 121.499 364.989C121.31 365.017 121.209 365.046 121.211 365.056Z" fill="#1A2E35"/>
<path d="M128.381 367.548C128.375 367.592 129.34 367.72 130.538 367.708C131.737 367.698 132.698 367.551 132.692 367.507C132.685 367.459 131.724 367.531 130.537 367.541C129.349 367.554 128.385 367.5 128.381 367.548Z" fill="#1A2E35"/>
<path d="M125.489 367.597C125.453 367.631 125.572 367.786 125.675 367.989C125.781 368.192 125.836 368.374 125.887 368.37C125.934 368.369 125.958 368.152 125.837 367.917C125.716 367.682 125.52 367.563 125.489 367.597Z" fill="#1A2E35"/>
<path d="M124.372 366.355C124.338 366.388 124.436 366.529 124.592 366.67C124.748 366.812 124.903 366.899 124.937 366.866C124.971 366.833 124.873 366.692 124.717 366.551C124.561 366.41 124.407 366.322 124.372 366.355Z" fill="#1A2E35"/>
<path d="M122.801 365.807C122.812 365.853 123.008 365.848 123.226 365.915C123.446 365.977 123.602 366.087 123.641 366.055C123.68 366.029 123.552 365.836 123.28 365.756C123.009 365.676 122.785 365.764 122.801 365.807Z" fill="#1A2E35"/>
<path d="M121.683 365.554C121.666 365.598 121.753 365.667 121.877 365.71C122 365.752 122.114 365.751 122.131 365.707C122.148 365.663 122.061 365.594 121.938 365.553C121.814 365.511 121.7 365.511 121.683 365.554Z" fill="#1A2E35"/>
<path d="M76.82 308.957C76.7488 310.549 70.9658 360.155 70.9658 360.155L84.5783 363.171L97.1302 312.636L76.82 308.957Z" fill="#FFBF9D"/>
<path d="M85.1922 364.494L85.4983 363.061L71.0333 359.831L69.9727 364.542L70.8527 364.795C74.7786 365.896 90.8889 370.137 93.7087 369.985C96.8542 369.817 85.1922 364.494 85.1922 364.494Z" fill="#091941"/>
<g opacity="0.300003">
<g opacity="0.300003">
<path opacity="0.300003" d="M75.2122 365.613C75.254 364.446 74.8154 363.255 74.0065 362.34C73.1977 361.425 72.0934 360.79 70.8574 360.607L70.0272 364.354L75.2122 365.613Z" fill="black"/>
</g>
</g>
<g opacity="0.300003">
<g opacity="0.300003">
<path opacity="0.300003" d="M90.844 367.292C90.844 367.292 94.8757 369.411 94.1959 369.947C93.5161 370.485 77.0864 366.771 69.9696 364.541L70.0586 364.247L89.1898 368.732C89.1898 368.732 89.9986 367.137 90.844 367.292Z" fill="black"/>
</g>
</g>
<path d="M69.8373 364.187C69.8364 364.194 69.9192 364.22 70.0793 364.268C70.2902 364.329 70.5207 364.394 70.7814 364.469C71.4852 364.658 72.351 364.891 73.3734 365.165C75.566 365.738 78.6056 366.493 81.978 367.258C85.3514 368.024 88.4186 368.654 90.6431 369.082C91.6833 369.276 92.5652 369.439 93.2815 369.572C93.5484 369.618 93.7851 369.658 94.0005 369.694C94.1651 369.72 94.2523 369.732 94.2532 369.725C94.254 369.72 94.1695 369.698 94.0067 369.661C93.7922 369.616 93.5573 369.565 93.293 369.509C92.5794 369.362 91.7011 369.18 90.6654 368.967C88.4471 368.509 85.3852 367.86 82.0136 367.097C78.643 366.331 75.6016 365.596 73.4019 365.051C72.3751 364.798 71.5057 364.581 70.7974 364.407C70.534 364.343 70.3009 364.287 70.0882 364.236C69.9254 364.199 69.8391 364.182 69.8373 364.187Z" fill="#1A2E35"/>
<path d="M89.1427 368.939C89.1943 368.958 89.3643 368.385 89.8884 367.886C90.4036 367.379 91.0078 367.204 90.9864 367.155C90.9855 367.112 90.3128 367.225 89.7584 367.769C89.1979 368.304 89.0973 368.939 89.1427 368.939Z" fill="#1A2E35"/>
<path d="M85.3394 365.972C85.375 366.005 85.6286 365.822 85.9071 365.561C86.1847 365.3 86.3814 365.062 86.3466 365.028C86.3111 364.995 86.0575 365.18 85.7789 365.44C85.5004 365.701 85.3038 365.939 85.3394 365.972Z" fill="#1A2E35"/>
<path d="M84.3025 365.135C84.3274 365.176 84.5854 365.086 84.8791 364.934C85.1736 364.783 85.3916 364.628 85.3667 364.587C85.3418 364.546 85.0837 364.636 84.7901 364.787C84.4956 364.939 84.2776 365.094 84.3025 365.135Z" fill="#1A2E35"/>
<path d="M83.8458 363.703C83.8352 363.748 84.1617 363.864 84.5764 363.962C84.991 364.06 85.3354 364.104 85.3461 364.058C85.3559 364.015 85.0293 363.899 84.6146 363.8C84.2 363.702 83.8556 363.658 83.8458 363.703Z" fill="#1A2E35"/>
<path d="M83.7881 362.754C83.7631 362.791 84.095 363.027 84.5755 363.171C85.0552 363.316 85.4645 363.303 85.4645 363.258C85.4671 363.211 85.0801 363.15 84.6245 363.011C84.168 362.876 83.813 362.713 83.7881 362.754Z" fill="#1A2E35"/>
<path d="M86.0875 364.914C86.0821 364.931 86.4283 365.052 87.0138 365.118C87.3056 365.15 87.6562 365.162 88.0424 365.137C88.2364 365.118 88.4348 365.117 88.6537 365.048C88.7578 365.012 88.8771 364.956 88.942 364.833C89.0088 364.712 88.9669 364.55 88.8779 364.457C88.0887 363.83 87.101 364.093 86.6792 364.445C86.4496 364.621 86.3206 364.815 86.2503 364.951C86.18 365.09 86.164 365.175 86.1747 365.179C86.2049 365.197 86.3117 364.854 86.7584 364.539C86.9782 364.385 87.2878 364.257 87.6544 364.239C88.0006 364.223 88.4704 364.304 88.7409 364.559C88.8655 364.693 88.7729 364.841 88.5888 364.895C88.417 364.952 88.207 364.963 88.0237 364.984C87.6482 365.017 87.3065 365.016 87.02 365C86.4461 364.966 86.0928 364.887 86.0875 364.914Z" fill="#1A2E35"/>
<path d="M86.316 365.01C86.3267 365.023 86.5117 364.834 86.5553 364.436C86.5749 364.242 86.5491 363.998 86.4414 363.75C86.3204 363.522 86.1692 363.21 85.7687 363.136C85.5489 363.114 85.3941 363.318 85.3959 363.47C85.379 363.624 85.4235 363.77 85.468 363.891C85.5578 364.137 85.6744 364.346 85.7892 364.51C86.0205 364.84 86.227 364.992 86.2412 364.979C86.2617 364.961 86.0917 364.782 85.8969 364.452C85.7999 364.287 85.7011 364.083 85.6237 363.847C85.5374 363.637 85.5222 363.29 85.7634 363.304C85.9992 363.335 86.1878 363.603 86.2919 363.807C86.3952 364.027 86.4317 364.246 86.429 364.427C86.4228 364.793 86.2866 364.997 86.316 365.01Z" fill="#1A2E35"/>
<path d="M70.9419 360.587C70.9384 360.617 71.3619 360.643 71.9972 360.862C72.6264 361.074 73.4681 361.523 74.1195 362.276C74.7699 363.031 75.0591 363.894 75.1463 364.512C75.2389 365.136 75.1748 365.528 75.2077 365.531C75.2184 365.533 75.2451 365.437 75.2682 365.261C75.2923 365.083 75.3029 364.823 75.2718 364.502C75.2149 363.865 74.9346 362.961 74.2565 362.174C73.5767 361.387 72.6895 360.939 72.0337 360.75C71.7036 360.652 71.4287 360.605 71.2382 360.589C71.0478 360.572 70.9419 360.576 70.9419 360.587Z" fill="#1A2E35"/>
<path d="M77.3137 364.715C77.2985 364.755 78.2044 365.111 79.3718 365.384C80.5384 365.661 81.5065 365.746 81.5109 365.702C81.5163 365.655 80.5651 365.496 79.4092 365.222C78.2533 364.952 77.3297 364.669 77.3137 364.715Z" fill="#1A2E35"/>
<path d="M74.4943 364.074C74.4525 364.098 74.5308 364.277 74.5815 364.499C74.6367 364.722 74.6464 364.911 74.6972 364.92C74.7434 364.93 74.8173 364.725 74.755 364.467C74.6954 364.211 74.5325 364.049 74.4943 364.074Z" fill="#1A2E35"/>
<path d="M73.7046 362.601C73.6627 362.624 73.725 362.785 73.8425 362.959C73.9608 363.134 74.0898 363.256 74.1308 363.232C74.1717 363.208 74.1103 363.048 73.992 362.873C73.8745 362.699 73.7455 362.578 73.7046 362.601Z" fill="#1A2E35"/>
<path d="M72.3082 361.694C72.3082 361.742 72.4995 361.784 72.6962 361.901C72.8946 362.014 73.0209 362.158 73.0654 362.135C73.109 362.12 73.0307 361.901 72.786 361.759C72.5422 361.616 72.3029 361.649 72.3082 361.694Z" fill="#1A2E35"/>
<path d="M71.284 361.184C71.2573 361.221 71.325 361.309 71.4347 361.379C71.5453 361.45 71.6558 361.475 71.6826 361.438C71.7093 361.4 71.6415 361.312 71.5319 361.242C71.4213 361.171 71.3108 361.145 71.284 361.184Z" fill="#1A2E35"/>
<path d="M86.6307 64.4886C86.4518 64.5714 86.2668 64.624 86.0826 64.6845C86.3575 64.4467 86.6013 64.192 86.8256 63.9426C87.6211 63.0226 88.308 62.181 89.1596 61.7855C89.9284 61.4034 90.6874 61.301 91.3156 61.3153C90.9348 61.4667 90.5646 61.6448 90.2176 61.8666C88.9674 62.6681 87.9797 63.8687 86.6307 64.4886ZM79.3075 65.1076C76.9281 65.4896 74.8744 67.1747 73.8066 69.3229C73.7203 68.915 73.6642 68.5089 73.6678 68.1063C73.6624 67.2566 73.9667 66.456 74.5086 65.8423C75.596 64.5776 77.3312 64.184 78.8492 64.3772C79.6927 64.4512 80.4713 64.7228 81.2437 64.9918C80.5915 64.9855 79.9428 65.0051 79.3075 65.1076ZM69.3414 81.4924C69.0184 81.423 68.8396 81.4684 68.8396 81.4684C68.8387 81.4924 68.9891 81.4951 69.2391 81.5673C69.1483 81.6341 69.0531 81.6973 68.9659 81.7676C68.1295 82.449 67.552 83.3913 67.2423 84.4199C66.7761 83.6032 66.7814 82.4294 67.1534 81.39C67.6027 80.112 68.642 78.9043 70.0675 78.3601C70.7821 78.0885 71.5936 77.978 72.4211 77.726C72.7619 77.6307 73.1098 77.473 73.4364 77.2744C73.3848 77.7536 73.2602 78.2158 73.0173 78.6522C72.2529 80.022 70.6335 80.584 69.3414 81.4924ZM127.891 88.0653C127.522 87.0072 126.626 86.2092 126.192 85.1761C125.542 83.6308 126.02 81.8754 126.197 80.2073C126.374 78.54 126.026 76.5156 124.498 75.8263C123.869 75.543 123.127 75.5395 122.54 75.1743C121.352 74.4342 121.415 72.7349 121.306 71.3384C121.235 70.4273 120.997 69.5117 120.607 68.6816C120.688 68.6567 120.771 68.6309 120.857 68.6042C122.77 68.1099 124.82 69.2721 125.407 70.8583C125.716 71.6385 125.691 72.5247 125.252 73.0947C124.824 73.6754 124.047 73.9194 123.524 73.6514C122.995 73.3824 122.744 72.7358 122.893 72.2985C123.025 71.8291 123.528 71.7044 123.864 71.7516C124.22 71.7944 124.452 71.9814 124.554 72.1355C124.656 72.2949 124.665 72.4063 124.691 72.4027C124.7 72.4045 124.732 72.2869 124.648 72.0838C124.562 71.8861 124.31 71.6314 123.898 71.5486C123.696 71.5076 123.455 71.5049 123.207 71.5967C122.958 71.6795 122.717 71.9066 122.613 72.2005C122.394 72.7937 122.662 73.589 123.35 73.9836C124.074 74.3737 125.052 74.0664 125.598 73.3646C126.177 72.6396 126.202 71.5798 125.862 70.6847C125.244 68.9747 123.237 67.7394 121.183 68.0226C121.625 67.3047 121.688 66.4025 121.455 65.6562C121.136 64.6177 120.272 63.9212 119.402 63.5944C118.519 63.2524 117.586 63.2586 116.794 63.4528C115.994 63.6407 115.311 63.9907 114.738 64.3621C114.162 64.7397 113.718 65.153 113.284 65.43C112.855 65.715 112.44 65.8637 112.083 65.8922C111.359 65.9572 111.027 65.6215 111.007 65.6687C110.974 65.6669 111.283 66.097 112.094 66.0953C112.485 66.0988 112.968 65.9581 113.437 65.6785C113.914 65.4068 114.379 65.0114 114.936 64.6765C116.022 64.0183 117.639 63.4109 119.226 64.0459C119.991 64.3452 120.714 64.9633 120.96 65.8058C121.21 66.6092 121.011 67.6156 120.347 68.1829C119.875 67.3698 119.24 66.6706 118.421 66.2075C116.643 65.2029 114.012 65.6918 113.11 67.5247L98.5098 62.5087C96.7177 60.9234 94.075 60.4558 91.8032 61.1585C91.7036 61.1407 91.6066 61.122 91.4971 61.1104C90.8147 61.0392 89.9373 61.1015 89.0314 61.5192C88.0989 61.92 87.3417 62.8097 86.5488 63.6897C86.1431 64.1261 85.6973 64.5625 85.1483 64.8511C85.0593 64.8983 84.9632 64.9312 84.8697 64.9668C84.2326 65.0452 83.5786 65.0497 82.9184 65.0345C81.6904 64.7531 80.4197 64.0459 78.9053 63.8927C78.0875 63.7939 77.2182 63.8268 76.3746 64.0744C75.5302 64.3256 74.7293 64.8047 74.1171 65.5012C73.4978 66.1897 73.133 67.1471 73.141 68.101C73.1348 68.7948 73.2745 69.4681 73.4604 70.1218C73.1401 71.0026 72.9817 71.9378 73.0306 72.881C73.0956 74.1189 73.4515 75.4139 73.4658 76.6332C73.1196 76.9084 72.7103 77.1132 72.2707 77.2424C71.5001 77.4855 70.6744 77.6022 69.8931 77.9041C68.3164 78.5231 67.2112 79.8501 66.7387 81.2457C66.3134 82.5095 66.3454 83.9702 67.1338 84.9258C66.7912 86.5637 67.0955 88.3449 68.1633 89.6408C68.8752 90.5047 69.846 91.1486 70.451 92.09C71.4103 93.5827 71.2741 95.4931 71.5153 97.2512C71.7573 99.0084 72.7753 100.993 74.5442 101.109C75.9706 101.202 77.2502 100.004 78.6739 100.121C80.6716 100.286 81.4884 102.68 82.6434 104.319C84.1036 106.391 86.7597 107.549 89.269 107.208C91.0852 106.96 92.8835 105.999 94.6596 106.451C96.893 107.018 98.2349 109.638 100.516 109.966C102.213 110.209 103.785 109.08 105.045 107.915C106.305 106.75 107.587 105.421 109.275 105.118C111.306 104.753 113.263 105.982 115.308 106.263C117.948 106.627 120.743 105.222 122.031 102.887C123.155 100.848 123.152 98.3467 124.202 96.2688C124.906 94.8768 126.04 93.7573 126.914 92.4659C127.786 91.1736 128.405 89.5375 127.891 88.0653Z" fill="#1A2E35"/>
<path d="M118.282 95.0869C118.979 90.6988 118.758 83.5043 118.388 77.6226C118.055 72.3287 113.39 68.3779 108.121 68.9354L92.8255 70.5555C91.2247 70.7247 90.0198 72.0918 90.051 73.7029L91.6277 111.309C89.5109 111.316 88.0907 111.319 88.0907 111.319V118.129C88.0907 125.92 94.4013 132.236 102.186 132.236C109.969 132.236 116.279 125.92 116.279 118.129V112.235C116.279 112.235 112.615 111.038 110.391 111.159C110.265 111.166 110.076 111.173 109.843 111.179C109.858 107.73 110.125 105.033 110.125 105.033C110.125 105.033 116.883 103.91 118.282 95.0869Z" fill="#FFBF9D"/>
<path d="M116.098 83.3343C116.119 83.932 115.631 84.4423 115.008 84.4761C114.386 84.5091 113.863 84.0531 113.842 83.4555C113.821 82.8579 114.309 82.3466 114.931 82.3137C115.554 82.2798 116.077 82.7367 116.098 83.3343Z" fill="#1A2E35"/>
<path d="M116.828 81.3653C116.688 81.5131 115.831 80.879 114.615 80.8816C113.399 80.8674 112.507 81.4944 112.374 81.3448C112.309 81.2789 112.452 81.0126 112.841 80.7293C113.224 80.447 113.877 80.1727 114.634 80.1763C115.392 80.1798 116.029 80.4595 116.396 80.7454C116.771 81.0322 116.897 81.2993 116.828 81.3653Z" fill="#1A2E35"/>
<path d="M104.204 83.3343C104.225 83.932 103.737 84.4423 103.114 84.4761C102.492 84.5091 101.97 84.0531 101.949 83.4555C101.927 82.8579 102.416 82.3466 103.038 82.3137C103.661 82.2798 104.183 82.7367 104.204 83.3343Z" fill="#1A2E35"/>
<path d="M104.869 81.5927C104.729 81.7405 103.871 81.1055 102.656 81.1091C101.44 81.0948 100.548 81.7218 100.416 81.5722C100.351 81.5063 100.492 81.24 100.882 80.9568C101.265 80.6744 101.918 80.4001 102.676 80.4028C103.433 80.4073 104.071 80.686 104.438 80.9719C104.811 81.2596 104.938 81.5268 104.869 81.5927Z" fill="#1A2E35"/>
<path d="M109.284 90.6234C109.279 90.5539 110.035 90.423 111.261 90.2672C111.571 90.2342 111.865 90.1728 111.917 89.9608C111.991 89.7355 111.861 89.4006 111.71 89.039C111.418 88.2864 111.112 87.4982 110.791 86.6717C109.516 83.2998 108.592 80.5281 108.728 80.4774C108.864 80.4275 110.009 83.119 111.285 86.49C111.592 87.3219 111.885 88.1145 112.165 88.8724C112.282 89.226 112.484 89.6259 112.326 90.0926C112.242 90.325 112.014 90.4934 111.815 90.5477C111.616 90.6083 111.441 90.6118 111.287 90.6207C110.054 90.6875 109.289 90.6929 109.284 90.6234Z" fill="#1A2E35"/>
<path d="M110.125 105.033C110.125 105.033 104.195 105.416 98.3193 101.881C98.3193 101.881 101.184 107.943 110.007 107.117L110.125 105.033Z" fill="#FF9A6C"/>
<path d="M108.771 93.5583C108.333 92.9794 107.567 92.6615 106.806 92.7434C106.278 92.8004 105.745 93.0551 105.424 93.4853C105.102 93.9155 105.036 94.5264 105.327 94.937C105.656 95.3983 106.342 95.5061 106.922 95.3405C107.503 95.1748 108.002 94.7927 108.477 94.4115C108.608 94.3056 108.743 94.196 108.825 94.0517C108.906 93.9075 108.924 93.7178 108.823 93.5975" fill="#FF9A6C"/>
<path d="M105.705 91.4657C105.903 91.4541 105.906 92.7758 107.036 93.7136C108.164 94.6559 109.572 94.5072 109.582 94.6915C109.6 94.7744 109.268 94.9489 108.674 94.965C108.091 94.9846 107.241 94.7975 106.549 94.2231C105.86 93.6477 105.562 92.88 105.518 92.3376C105.467 91.7854 105.614 91.4586 105.705 91.4657Z" fill="#1A2E35"/>
<path d="M105.418 79.4605C105.298 79.7918 104.084 79.6351 102.656 79.807C101.225 79.9504 100.074 80.369 99.8845 80.0724C99.8009 79.9299 100.001 79.6182 100.466 79.2975C100.927 78.9778 101.663 78.6732 102.521 78.5779C103.378 78.4844 104.162 78.6207 104.682 78.8317C105.206 79.0437 105.47 79.3038 105.418 79.4605Z" fill="#1A2E35"/>
<path d="M116.382 78.8773C116.168 79.1542 115.329 78.8666 114.322 78.8532C113.315 78.8042 112.461 79.0393 112.265 78.7499C112.178 78.6092 112.313 78.3322 112.686 78.0704C113.053 77.8094 113.667 77.5965 114.36 77.617C115.053 77.6393 115.652 77.8904 116.003 78.1728C116.36 78.4578 116.476 78.7428 116.382 78.8773Z" fill="#1A2E35"/>
<path d="M121.669 69.7474C121.066 67.398 119.285 65.2177 116.902 64.7759C115.348 64.4883 113.749 64.9487 112.172 64.8472C110.871 64.7626 110.397 63.7259 109.158 63.3189C107.093 62.6402 105.506 60.3433 101.049 60.8233C99.8593 60.9525 98.3279 62.3303 97.2361 63.9031C95.5285 63.1666 93.2773 63.9592 92.0458 64.4981C89.4955 65.6149 87.8992 68.489 87.3964 71.4102C86.8937 74.3306 87.3048 77.3329 87.7168 80.2702C87.9045 81.6115 88.0923 82.9537 88.2809 84.2941C88.4046 85.1838 88.5532 86.1002 88.991 86.8591L86.9613 105.748C90.9949 107.253 96.0437 104.476 96.9389 100.261C97.7264 96.5482 95.6611 92.7639 95.9886 88.9832C96.1825 86.7317 97.4541 84.6334 97.4461 82.3748C97.4434 81.6756 97.3331 80.9319 97.132 80.1758C100.719 77.2634 101.632 74.9193 101.481 72.1913C102.587 72.9412 103.877 73.4115 105.215 73.4284C107.104 73.4524 109.065 72.7186 110.833 73.3856C112.106 73.8666 113.008 74.9817 113.975 75.9382C114.944 76.8947 116.2 77.78 117.547 77.5903C118.198 77.4986 118.784 77.1655 119.4 76.9384C120.016 76.7113 120.74 76.6017 121.302 76.9393C121.891 74.5862 122.27 72.0978 121.669 69.7474Z" fill="#1A2E35"/>
<path d="M68.9593 89.08C68.9985 89.0168 69.8768 89.9101 71.8842 90.7553C72.8835 91.1605 74.179 91.5461 75.714 91.5648C77.2338 91.5871 79.0241 91.2309 80.584 90.0962C82.1243 88.9954 83.5053 87.1705 83.7349 84.9288C83.8496 83.828 83.6699 82.631 83.0728 81.6201C82.498 80.611 81.3982 79.8522 80.1809 79.821C79.5794 79.8023 78.9814 79.9992 78.5018 80.3741C78.0222 80.7526 77.6787 81.3075 77.4732 81.9095C77.0754 83.1324 77.2703 84.5618 78.1486 85.5932C78.9841 86.6512 80.2797 87.3219 81.6393 87.6701C83.0097 88.0103 84.4868 88.0237 85.9123 87.7405C87.3386 87.4537 88.6885 86.8588 89.7999 85.9868C90.9131 85.114 91.7522 83.9535 92.2104 82.6657C92.682 81.3841 92.7808 79.9947 92.5281 78.7122C92.4 78.0718 92.1864 77.4528 91.8696 76.8989C91.5573 76.3387 91.1782 75.8444 90.6728 75.489C90.1843 75.1256 89.6041 74.8807 89.0382 74.8754C88.4741 74.8611 87.9446 75.1639 87.6803 75.6413C87.4116 76.116 87.3636 76.7136 87.5059 77.2373C87.6474 77.7646 87.9775 78.2321 88.3682 78.6142C90.0188 80.1265 92.2692 80.5896 94.1476 80.3901C96.0616 80.2004 97.6651 79.3089 98.7195 78.2152C99.7891 77.118 100.363 75.8818 100.672 74.8531C101.247 72.7468 100.866 71.507 100.948 71.5133C100.948 71.5133 101.045 71.8054 101.089 72.3834C101.134 72.9587 101.13 73.8289 100.852 74.903C100.565 75.9637 100.003 77.2471 98.9135 78.4023C97.8412 79.5547 96.1773 80.5104 94.1849 80.7295C92.2247 80.953 89.8827 80.5139 88.0905 78.9019C87.6608 78.4869 87.2817 77.9694 87.1082 77.3451C86.9382 76.727 86.9809 76.0296 87.312 75.4302C87.6376 74.8237 88.337 74.4229 89.0373 74.4407C89.7367 74.4452 90.3881 74.7302 90.9344 75.1292C91.4959 75.5184 91.9328 76.084 92.2647 76.678C92.6082 77.2738 92.8404 77.9365 92.9792 78.6213C93.2542 79.9911 93.151 81.4633 92.6545 82.826C92.1731 84.1931 91.2734 85.4418 90.0971 86.3636C88.9216 87.288 87.5015 87.9133 86.0075 88.2134C84.5117 88.51 82.9714 88.4966 81.5219 88.135C80.0884 87.7663 78.7011 87.0556 77.7793 85.888C77.313 85.3224 76.9891 84.6242 76.8681 83.9019C76.7506 83.1796 76.82 82.4457 77.0363 81.7653C77.2676 81.0928 77.6565 80.4605 78.2206 80.0179C78.7848 79.5788 79.5011 79.3499 80.1925 79.3757C81.5877 79.4176 82.8121 80.2922 83.4377 81.4046C84.0855 82.5187 84.2616 83.7959 84.1335 84.9706C83.8657 87.3584 82.3966 89.2456 80.7806 90.375C79.1389 91.5408 77.2667 91.8855 75.7078 91.8347C74.1301 91.7884 72.8149 91.3671 71.8112 90.928C70.8004 90.4845 70.0876 90.0018 69.6285 89.6527C69.3927 89.4843 69.2316 89.3329 69.1186 89.2376C69.0083 89.1397 68.954 89.0862 68.9593 89.08Z" fill="#375A64"/>
<path d="M122.184 73.734C122.19 73.7429 122.057 73.8649 121.76 74.0323C121.464 74.2007 120.998 74.4117 120.358 74.5435C119.72 74.6647 118.904 74.7101 117.994 74.5035C117.085 74.3022 116.098 73.8275 115.214 73.0553C114.328 72.2858 113.547 71.2313 113.022 69.9461C112.776 69.3075 112.605 68.506 112.95 67.7543C113.117 67.3945 113.391 67.0614 113.779 66.8663C114.161 66.6642 114.665 66.6695 115.056 66.8824C115.823 67.3019 116.249 68.2682 115.973 69.1446C115.714 70.0067 115.001 70.6221 114.232 71.0024C112.66 71.7755 110.751 71.6722 109.08 71.0772C108.234 70.7806 107.442 70.3843 106.705 69.9301C105.981 69.4581 105.26 69.0065 104.683 68.3216C104.108 67.6617 103.878 66.5573 104.484 65.7905C104.776 65.4102 105.314 65.2409 105.757 65.3389C106.203 65.4315 106.577 65.6854 106.844 66.0211C107.113 66.3516 107.251 66.8156 107.191 67.2324C107.141 67.6492 106.951 68.0268 106.699 68.327C106.19 68.9237 105.455 69.2595 104.742 69.312C104.029 69.3761 103.356 69.2336 102.749 69.0493C102.14 68.8578 101.578 68.6369 101.049 68.3947C99.9936 67.9128 99.102 67.2644 98.5619 66.4878C98.0049 65.7112 97.8749 64.8589 97.9221 64.2087C97.9702 63.5452 98.23 63.0714 98.4409 62.8051C98.6633 62.5397 98.8297 62.4577 98.8297 62.4577C98.8974 62.4827 98.1695 62.9351 98.1099 64.2194C98.093 64.833 98.2451 65.6284 98.779 66.3284C99.3049 67.04 100.156 67.6358 101.19 68.0838C102.223 68.4989 103.425 69.0234 104.703 68.9139C105.33 68.8605 105.951 68.5585 106.373 68.0553C106.795 67.5628 106.939 66.8076 106.496 66.2972C106.102 65.77 105.244 65.5384 104.84 66.0817C104.639 66.3302 104.56 66.6927 104.604 67.0436C104.639 67.3971 104.81 67.7267 105.05 68.0242C105.538 68.6084 106.26 69.0724 106.957 69.5222C107.67 69.9586 108.433 70.3389 109.238 70.6203C110.833 71.1886 112.598 71.2723 114.025 70.5776C114.718 70.24 115.328 69.6941 115.532 69.0127C115.76 68.3608 115.406 67.5797 114.848 67.2751C114.28 66.942 113.585 67.3473 113.335 67.9333C113.055 68.5113 113.172 69.2078 113.396 69.8045C113.875 71.0229 114.611 72.0534 115.439 72.7997C116.27 73.5523 117.197 74.0243 118.057 74.2407C118.921 74.4625 119.705 74.4474 120.326 74.3592C121.577 74.1481 122.16 73.6796 122.184 73.734Z" fill="#375A64"/>
<path d="M96.488 94.4507C96.4951 94.4596 96.3776 94.5798 96.1116 94.7544C95.8473 94.929 95.4193 95.1534 94.8196 95.2736C94.2243 95.3956 93.4474 95.4152 92.6146 95.132C91.8111 94.8461 90.8572 94.2886 90.4096 93.2092C90.1916 92.6988 90.1925 91.9213 90.7477 91.4689C91.2656 91.0129 92.1154 91.0503 92.6662 91.4662C93.7874 92.2758 94.2518 93.821 94.0321 95.2674C93.8301 96.7013 92.9767 98.2412 91.4569 98.9154C89.9691 99.6038 88.1334 99.4141 86.6741 98.5609C85.9427 98.1316 85.2949 97.5679 84.8419 96.8527C84.3864 96.1518 84.1764 95.2416 84.4086 94.424C84.5225 94.0214 84.7174 93.6313 85.035 93.3356C85.3456 93.0364 85.7896 92.86 86.2158 92.8787C87.0781 92.909 87.7704 93.4986 88.1227 94.1594C88.4867 94.8283 88.613 95.5542 88.6451 96.2391C88.6753 96.9293 88.6086 97.6017 88.4511 98.2287C88.1396 99.4827 87.5088 100.566 86.6972 101.316C85.8902 102.08 84.8944 102.446 84.0304 102.518C83.1584 102.603 82.4047 102.415 81.8495 102.171C81.2924 101.918 80.9187 101.618 80.6963 101.39C80.4747 101.162 80.3821 101.022 80.3919 101.015C80.432 100.963 80.8288 101.554 81.9215 101.997C82.4626 102.204 83.1833 102.355 84.002 102.25C84.8161 102.155 85.7238 101.796 86.4632 101.068C87.2062 100.352 87.7846 99.3233 88.0622 98.1361C88.2019 97.5429 88.2571 96.9079 88.2206 96.2622C88.1859 95.6192 88.0551 94.9503 87.7348 94.3768C87.4287 93.8085 86.8485 93.357 86.206 93.3401C85.5618 93.3053 85.0333 93.8718 84.8642 94.546C84.6764 95.2246 84.8446 95.9701 85.2477 96.5962C85.6455 97.2259 86.2452 97.7513 86.9152 98.1432C88.258 98.9288 89.9344 99.0953 91.2603 98.4852C92.6066 97.901 93.3923 96.5214 93.5925 95.2024C93.8105 93.8825 93.378 92.4886 92.4384 91.7957C91.9846 91.4493 91.375 91.4341 90.9844 91.7565C90.5875 92.0647 90.552 92.6374 90.729 93.0898C91.0894 94.0303 91.9579 94.5914 92.7053 94.8773C93.4777 95.1667 94.2127 95.1774 94.7857 95.0893C95.9505 94.8933 96.4586 94.3892 96.488 94.4507Z" fill="#375A64"/>
<path d="M59.733 310.952C59.733 310.952 65.6788 322.524 81.2045 316.904C81.2045 316.904 96.4009 325.169 110.935 315.911C110.935 315.911 129.759 318.437 140 313.478L126.828 199.795L125.161 182.334H83.6328C83.6328 182.334 71.2945 187.955 69.3129 215.399C67.3312 242.841 63.0361 280.534 63.0361 280.534L59.733 310.952Z" fill="#1A2E35"/>
<path d="M110.054 316.261C110.046 316.261 110.03 316.145 110.008 315.918C109.985 315.668 109.955 315.334 109.918 314.909C109.847 313.996 109.746 312.694 109.616 311.028C109.36 307.658 109.036 302.776 108.68 296.743C107.962 284.676 107.194 267.991 106.79 249.55C106.394 231.102 106.44 214.398 106.633 202.311C106.728 196.267 106.84 191.378 106.95 187.999C107.007 186.33 107.051 185.025 107.082 184.11C107.102 183.683 107.117 183.349 107.128 183.098C107.142 182.87 107.152 182.755 107.16 182.755C107.169 182.755 107.174 182.871 107.177 183.099C107.176 183.35 107.176 183.685 107.176 184.112C107.165 185.027 107.15 186.334 107.13 188.003C107.09 191.408 107.032 196.291 106.96 202.315C106.851 214.4 106.858 231.099 107.254 249.54C107.657 267.974 108.374 284.657 109.007 296.725C109.34 302.739 109.609 307.616 109.797 311.017C109.889 312.684 109.961 313.988 110.011 314.903C110.029 315.329 110.044 315.664 110.055 315.914C110.062 316.142 110.062 316.26 110.054 316.261Z" fill="#375A64"/>
<path d="M113.695 283.741C113.684 283.721 113.783 283.621 114.019 283.559C114.252 283.495 114.627 283.499 115.03 283.686C115.417 283.876 115.864 284.265 115.986 284.889C116.123 285.521 115.727 286.228 115.122 286.56C114.528 286.911 113.718 286.889 113.246 286.449C112.772 286.024 112.667 285.441 112.702 285.011C112.746 284.57 112.934 284.244 113.109 284.077C113.284 283.906 113.419 283.871 113.432 283.892C113.49 283.944 113.022 284.262 113.03 285.025C113.036 285.385 113.169 285.84 113.52 286.121C113.859 286.411 114.425 286.424 114.893 286.157C115.361 285.89 115.64 285.397 115.564 284.957C115.501 284.512 115.179 284.165 114.874 283.976C114.223 283.579 113.71 283.819 113.695 283.741Z" fill="#375A64"/>
<path d="M112.773 249.964C112.762 249.943 112.861 249.843 113.097 249.781C113.33 249.717 113.705 249.721 114.108 249.908C114.495 250.098 114.941 250.487 115.063 251.112C115.2 251.743 114.804 252.45 114.2 252.782C113.606 253.133 112.796 253.111 112.323 252.67C111.85 252.246 111.745 251.663 111.78 251.234C111.824 250.792 112.012 250.466 112.186 250.299C112.362 250.128 112.497 250.094 112.509 250.114C112.568 250.167 112.1 250.485 112.107 251.247C112.113 251.607 112.247 252.062 112.598 252.343C112.937 252.634 113.502 252.646 113.97 252.379C114.439 252.113 114.718 251.619 114.641 251.179C114.58 250.734 114.257 250.387 113.952 250.198C113.3 249.801 112.788 250.04 112.773 249.964Z" fill="#375A64"/>
<path d="M112.23 220.11C112.219 220.09 112.318 219.99 112.554 219.928C112.787 219.863 113.162 219.868 113.565 220.055C113.952 220.245 114.398 220.634 114.52 221.258C114.657 221.89 114.262 222.597 113.657 222.929C113.064 223.28 112.253 223.258 111.781 222.818C111.307 222.393 111.202 221.809 111.237 221.38C111.281 220.938 111.47 220.612 111.644 220.446C111.819 220.275 111.954 220.24 111.966 220.261C112.025 220.313 111.557 220.631 111.564 221.394C111.571 221.753 111.704 222.208 112.055 222.49C112.394 222.78 112.96 222.793 113.428 222.526C113.896 222.259 114.176 221.766 114.099 221.326C114.037 220.881 113.714 220.534 113.409 220.344C112.758 219.948 112.245 220.188 112.23 220.11Z" fill="#375A64"/>
<path d="M111.168 188.168C111.158 188.148 111.256 188.049 111.493 187.986C111.725 187.922 112.101 187.926 112.503 188.114C112.89 188.303 113.337 188.692 113.459 189.316C113.596 189.948 113.201 190.655 112.595 190.987C112.002 191.338 111.191 191.316 110.72 190.876C110.245 190.451 110.14 189.868 110.176 189.438C110.22 188.997 110.408 188.671 110.583 188.504C110.757 188.333 110.892 188.298 110.905 188.319C110.964 188.371 110.495 188.69 110.503 189.452C110.51 189.813 110.642 190.267 110.994 190.548C111.333 190.839 111.899 190.851 112.367 190.584C112.835 190.318 113.114 189.825 113.038 189.384C112.975 188.939 112.652 188.592 112.347 188.403C111.697 188.006 111.183 188.246 111.168 188.168Z" fill="#375A64"/>
<path d="M165.34 153.6L375.223 152.074L381.072 294.897L163.747 292.88L165.34 153.6Z" fill="#091941"/>
<path d="M165.339 153.6L264.671 73.151C268.876 69.7453 274.895 69.764 279.079 73.1973L375.221 152.074" fill="#091941"/>
<g opacity="0.300003">
<g opacity="0.300003">
<path opacity="0.300003" d="M165.338 153.6L264.67 73.151C268.875 69.7453 274.894 69.764 279.078 73.1973L375.22 152.074" fill="black"/>
</g>
</g>
<path d="M163.746 292.88C163.484 292.635 180.287 274.272 201.271 251.872C222.263 229.464 239.486 211.505 239.748 211.75C240.009 211.997 223.21 230.354 202.218 252.762C181.235 275.162 164.008 293.126 163.746 292.88Z" fill="#1A2E35"/>
<path d="M381.072 294.897C380.804 295.136 364.442 277.144 344.529 254.718C324.61 232.283 308.684 213.908 308.953 213.67C309.221 213.431 325.581 231.419 345.5 253.853C365.412 276.28 381.341 294.658 381.072 294.897Z" fill="#1A2E35"/>
<g opacity="0.5">
<g opacity="0.5">
<path opacity="0.5" d="M375.22 152.074L269.829 236.343L165.338 153.599" fill="black"/>
</g>
</g>
<path d="M175.91 161.403L175.582 95.7923L359.362 93.6183L361.433 162.651L269.821 235.241L175.91 161.403Z" fill="#FAFAFA"/>
<path d="M175.909 161.403C175.909 161.403 176.503 161.848 177.633 162.725C178.764 163.607 180.435 164.91 182.618 166.612C186.985 170.031 193.392 175.047 201.583 181.459C217.948 194.298 241.433 212.726 269.937 235.091L269.702 235.092C296.093 214.167 327.407 189.338 361.29 162.471L361.204 162.658C360.807 149.488 360.392 135.672 359.969 121.612C359.686 112.148 359.406 102.794 359.132 93.6245L359.364 93.8481C285.303 94.6924 219.97 95.4361 175.583 95.9419L175.73 95.7923C175.802 116.435 175.859 132.827 175.898 144.065C175.91 149.684 175.919 154.013 175.924 156.945C175.923 158.405 175.922 159.516 175.922 160.27C175.92 161.017 175.909 161.403 175.909 161.403C175.909 161.403 175.894 161.03 175.884 160.288C175.876 159.537 175.864 158.432 175.849 156.979C175.825 154.051 175.791 149.729 175.746 144.119C175.673 132.868 175.567 116.459 175.433 95.7932L175.432 95.6453L175.58 95.6436C219.966 95.0985 285.298 94.2961 359.359 93.3867L359.585 93.384L359.592 93.6111C359.867 102.78 360.148 112.134 360.433 121.598C360.853 135.658 361.267 149.474 361.661 162.645L361.665 162.76L361.575 162.831C327.673 189.674 296.342 214.482 269.937 235.39L269.82 235.483L269.703 235.39C241.219 212.949 217.753 194.461 201.401 181.577C193.244 175.137 186.865 170.098 182.518 166.666C180.356 164.951 178.701 163.639 177.58 162.751C176.468 161.865 175.909 161.403 175.909 161.403Z" fill="#1A2E35"/>
<path d="M330.316 126.652C330.317 126.78 302.211 127.055 267.548 127.265C232.872 127.476 204.772 127.543 204.771 127.414C204.77 127.286 232.87 127.012 267.544 126.801C302.207 126.591 330.315 126.524 330.316 126.652Z" fill="#1A2E35"/>
<path d="M330.316 145.185C330.317 145.313 302.211 145.587 267.548 145.798C232.872 146.009 204.772 146.075 204.771 145.947C204.77 145.82 232.87 145.545 267.544 145.334C302.207 145.124 330.315 145.056 330.316 145.185Z" fill="#1A2E35"/>
<path d="M330.316 166.545C330.317 166.674 302.211 166.948 267.548 167.158C232.872 167.369 204.772 167.436 204.771 167.308C204.77 167.18 232.87 166.905 267.544 166.695C302.207 166.484 330.315 166.417 330.316 166.545Z" fill="#1A2E35"/>
<path d="M330.318 187.906C330.318 188.034 303.504 188.3 270.434 188.502C237.352 188.703 210.544 188.762 210.543 188.633C210.542 188.506 237.35 188.239 270.431 188.038C303.501 187.837 330.317 187.778 330.318 187.906Z" fill="#1A2E35"/>
<path d="M306.811 206.655C306.811 206.671 306.557 206.688 306.075 206.707C305.55 206.721 304.847 206.741 303.964 206.764C302.084 206.795 299.443 206.839 296.199 206.893C289.603 206.987 280.567 207.117 270.584 207.261C260.577 207.427 251.517 207.484 244.96 207.491C241.716 207.484 239.075 207.477 237.194 207.473C236.311 207.46 235.608 207.45 235.083 207.443C234.601 207.431 234.346 207.417 234.346 207.401C234.346 207.385 234.6 207.368 235.083 207.35C235.607 207.336 236.31 207.316 237.194 207.293C239.073 207.262 241.714 207.218 244.957 207.164C251.553 207.069 260.591 206.939 270.576 206.796C280.58 206.629 289.639 206.572 296.196 206.564C299.441 206.572 302.082 206.579 303.962 206.584C304.846 206.596 305.549 206.605 306.074 206.613C306.557 206.626 306.811 206.639 306.811 206.655Z" fill="#1A2E35"/>
<path d="M283.151 224.676C283.151 224.805 277.159 224.909 269.768 224.909C262.374 224.909 256.383 224.805 256.383 224.676C256.383 224.548 262.374 224.445 269.768 224.445C277.159 224.445 283.151 224.548 283.151 224.676Z" fill="#1A2E35"/>
<path d="M367.212 187.906C367.212 200.177 357.273 210.125 345.013 210.125C332.752 210.125 322.813 200.177 322.813 187.906C322.813 175.635 332.752 165.686 345.013 165.686C357.273 165.686 367.212 175.635 367.212 187.906Z" fill="#1A2E35"/>
<path d="M361.431 187.906C361.431 200.177 351.492 210.125 339.232 210.125C326.971 210.125 317.032 200.177 317.032 187.906C317.032 175.635 326.971 165.686 339.232 165.686C351.492 165.686 361.431 175.635 361.431 187.906Z" fill="#61D2D2"/>
<path d="M342.055 177.561V196.035H338.628V180.437H334.726V177.561H342.055Z" fill="#ECECEC"/>
<path d="M177.349 65.8277L197.65 65.8205L194.906 62.6642L194.904 55.1027C194.903 51.0139 191.589 47.6998 187.504 47.7007C183.418 47.7025 180.108 51.0183 180.108 55.1072L180.111 62.3035L177.349 65.8277Z" fill="#091941"/>
<path d="M184.664 64.8292C184.712 66.0146 185.493 67.1403 186.586 67.5981C187.679 68.0568 189.028 67.8243 189.906 67.0272C190.784 66.2292 191.144 64.9075 190.794 63.7738" fill="#091941"/>
<path d="M188.63 48.8596L186.639 48.8604L186.637 44.6237H188.63L188.63 48.8596Z" fill="#091941"/>
<path d="M217.104 51.9199C217.093 51.9216 217.045 51.7408 216.962 51.3881C216.876 51.0061 216.758 50.4868 216.607 49.8189C216.487 49.1206 216.21 48.2923 215.886 47.3144C215.712 46.8299 215.588 46.2831 215.342 45.7442C215.105 45.201 214.853 44.6238 214.586 44.0129C213.442 41.6162 211.775 38.7751 209.204 36.0533C206.651 33.336 203.202 30.7576 198.953 28.9906C196.85 28.0412 194.506 27.4801 192.064 27.0277C189.603 26.7338 187.008 26.5378 184.36 26.9048C183.026 26.9849 181.71 27.3332 180.36 27.603C179.686 27.7464 179.037 28.0047 178.366 28.2033C177.696 28.4082 177.024 28.6201 176.38 28.9301C173.719 29.9472 171.204 31.5458 168.851 33.4402C164.123 37.2298 160.431 42.9379 158.8 49.5321C157.982 52.8319 157.813 56.365 158.217 59.8687C158.548 63.3876 159.635 66.8762 161.267 70.0896L161.783 71.0586L161.85 71.1868L161.81 71.3186C160.171 76.7069 158.562 81.991 157.003 87.1112L156.581 86.7292C160.964 84.442 165.215 82.2235 169.293 80.0958L169.45 80.0129L169.593 80.1234C173.69 83.2789 178.373 85.1928 182.977 85.9427C187.595 86.6926 192.11 86.242 196.125 85.0441C200.149 83.8462 203.668 81.8503 206.521 79.4759C209.385 77.1006 211.584 74.3583 213.211 71.6428C214.821 68.8997 215.776 66.1681 216.455 63.7465C217.017 61.2884 217.287 59.1322 217.335 57.3669C217.341 56.4879 217.345 55.7059 217.35 55.0246C217.291 54.3575 217.242 53.7911 217.2 53.3217C217.165 52.8835 217.137 52.5379 217.116 52.277C217.1 52.0419 217.095 51.9207 217.104 51.9199C217.112 51.919 217.133 52.0365 217.166 52.2699C217.198 52.5299 217.243 52.8737 217.298 53.311C217.353 53.7813 217.419 54.3504 217.497 55.0183C217.505 55.705 217.516 56.4906 217.528 57.3758C217.509 59.1544 217.267 61.3329 216.727 63.8249C216.068 66.2777 215.127 69.0529 213.519 71.8432C211.894 74.6086 209.684 77.4034 206.794 79.8312C203.913 82.2582 200.351 84.3058 196.267 85.5411C192.193 86.7764 187.606 87.2528 182.904 86.5047C178.215 85.7575 173.44 83.8195 169.256 80.6105L169.556 80.639C165.482 82.7739 161.235 84.9987 156.855 87.2929L156.214 87.6287L156.432 86.9117C157.988 81.7897 159.594 76.5047 161.231 71.1164L161.26 71.3747L160.732 70.3852C159.064 67.0997 157.955 63.5319 157.618 59.9355C157.207 56.3543 157.384 52.7419 158.223 49.3718C159.896 42.6351 163.677 36.8237 168.501 32.9753C170.904 31.0515 173.469 29.4342 176.179 28.4064C176.835 28.0947 177.52 27.88 178.202 27.6743C178.885 27.4757 179.546 27.2156 180.232 27.0722C181.605 26.8024 182.944 26.455 184.301 26.3784C186.992 26.0186 189.629 26.2279 192.126 26.5405C194.604 27.0126 196.98 27.5968 199.107 28.5729C203.408 30.3916 206.884 33.0314 209.445 35.8057C212.023 38.5827 213.678 41.4746 214.799 43.9078C215.058 44.5276 215.305 45.1137 215.535 45.6659C215.774 46.2118 215.891 46.7649 216.057 47.2556C216.366 48.246 216.624 49.085 216.726 49.7904C216.852 50.4655 216.951 50.9918 217.023 51.3775C217.086 51.7346 217.115 51.9181 217.104 51.9199Z" fill="#1A2E35"/>
<path d="M462.608 263.42C465.514 273.266 463.307 285.915 459.786 295.557C456.264 305.201 449.58 313.656 441.015 319.306C440.049 319.943 438.813 320.559 437.795 320.009C436.962 319.558 436.673 318.521 436.489 317.589C434.426 307.04 435.868 295.834 440.536 286.151C445.204 276.469 453.072 268.367 462.608 263.42Z" fill="#091941"/>
<g opacity="0.199997">
<g opacity="0.199997">
<path opacity="0.199997" d="M462.607 263.42C465.513 273.266 463.306 285.915 459.785 295.557C456.263 305.201 449.579 313.656 441.014 319.306C440.048 319.943 438.812 320.559 437.794 320.009C436.961 319.558 436.672 318.521 436.488 317.589C434.425 307.04 435.867 295.834 440.535 286.151C445.203 276.469 453.071 268.367 462.607 263.42Z" fill="#091941"/>
</g>
</g>
<path d="M418.896 216.708C425.025 216.541 429.063 223.353 429.677 229.458C430.291 235.563 428.932 241.901 430.723 247.768C432.997 255.22 439.957 260.567 442.065 268.068C444.552 276.913 439.704 286.092 439.472 295.279C439.359 299.747 440.345 304.265 439.52 308.659C438.127 316.068 431.064 321.991 423.532 322.066C416 322.142 408.821 316.359 407.281 308.979C405.847 302.098 408.877 294.787 407.06 287.997C405.716 282.977 401.824 278.717 401.507 273.531C401.129 267.359 405.901 262.025 406.787 255.905C407.671 249.786 404.583 243.809 404.123 237.641C403.299 226.578 407.875 217.891 418.896 216.708Z" fill="#091941"/>
<path d="M432.321 342.687C432.34 342.691 432.402 342.48 432.501 342.074C432.608 341.605 432.743 341.016 432.906 340.294C433.238 338.746 433.749 336.512 434.419 333.762C435.752 328.263 437.846 320.723 440.735 312.587C443.637 304.452 446.78 297.284 449.219 292.18C450.438 289.625 451.452 287.571 452.174 286.162C452.502 285.499 452.769 284.958 452.983 284.526C453.162 284.15 453.249 283.948 453.231 283.938C453.213 283.928 453.093 284.111 452.879 284.471C452.642 284.889 452.342 285.413 451.974 286.056C451.19 287.434 450.119 289.463 448.851 292C446.312 297.068 443.098 304.232 440.19 312.392C437.291 320.552 435.255 328.133 434.02 333.669C433.4 336.436 432.949 338.686 432.685 340.251C432.563 340.981 432.465 341.577 432.386 342.051C432.324 342.465 432.301 342.684 432.321 342.687Z" fill="#1A2E35"/>
<path d="M419.152 246.878C419.133 246.881 419.16 247.22 419.233 247.861C419.319 248.551 419.433 249.484 419.579 250.66C419.906 253.142 420.366 256.642 420.932 260.943C422.086 269.625 423.666 281.62 425.331 294.879C426.994 308.14 428.428 320.154 429.457 328.852C429.97 333.16 430.389 336.664 430.685 339.151C430.836 340.326 430.955 341.259 431.043 341.949C431.131 342.587 431.186 342.922 431.207 342.92C431.226 342.917 431.209 342.578 431.16 341.935C431.098 341.243 431.015 340.305 430.911 339.127C430.658 336.634 430.301 333.122 429.864 328.806C428.94 320.095 427.571 308.071 425.907 294.806C424.241 281.544 422.596 269.557 421.339 260.887C420.696 256.596 420.172 253.104 419.802 250.628C419.612 249.458 419.46 248.53 419.35 247.844C419.24 247.208 419.171 246.875 419.152 246.878Z" fill="#1A2E35"/>
<path d="M453.69 336.091H407.19V330.655H453.69V336.091Z" fill="#1A2E35"/>
<path d="M411.501 336.091L416.962 369.061H445.804L449.584 336.091H411.501Z" fill="#1A2E35"/>
<path d="M449.734 335.867C449.736 335.997 441.146 336.207 430.55 336.339C419.951 336.471 411.361 336.474 411.36 336.346C411.358 336.218 419.946 336.007 430.545 335.875C441.14 335.743 449.732 335.739 449.734 335.867Z" fill="#375A64"/>
<path d="M448.149 352.369C448.149 352.377 448.06 352.388 447.887 352.4C447.687 352.409 447.433 352.422 447.116 352.436C446.438 352.451 445.433 352.48 444.146 352.321C442.876 352.157 441.254 351.795 439.751 350.672C439.009 350.117 438.296 349.371 437.835 348.403C437.378 347.45 437.176 346.246 437.561 345.091C437.919 343.943 439.08 342.938 440.459 342.995C441.141 343.029 441.8 343.378 442.255 343.902C442.712 344.426 443.005 345.08 443.153 345.769C443.717 348.585 441.743 351.717 438.736 352.699C435.678 353.733 431.997 351.986 430.483 348.914C430.105 348.147 429.852 347.302 429.813 346.42C429.771 345.545 429.951 344.616 430.487 343.857C431.012 343.113 431.846 342.548 432.802 342.466C433.764 342.376 434.715 342.91 435.243 343.678C435.791 344.439 436.062 345.365 436.041 346.281C436.028 347.19 435.777 348.077 435.374 348.863C434.574 350.457 433.179 351.64 431.667 352.382C430.144 353.128 428.522 353.519 426.923 353.722C425.322 353.915 423.688 353.836 422.208 353.312C420.736 352.786 419.447 351.813 418.666 350.53C417.862 349.256 417.728 347.65 418.208 346.327C418.657 344.996 419.793 343.907 421.131 343.716C422.441 343.533 423.763 344.033 424.532 344.986C425.31 345.969 425.27 347.296 424.834 348.259C424.413 349.257 423.653 349.986 422.882 350.493C422.103 351.006 421.302 351.336 420.569 351.615C419.833 351.892 419.149 352.115 418.529 352.294C417.288 352.653 416.303 352.845 415.634 352.957C415.299 353.013 415.042 353.048 414.87 353.068C414.696 353.087 414.608 353.093 414.606 353.085C414.606 353.077 414.692 353.056 414.863 353.02C415.058 352.981 415.306 352.93 415.616 352.865C416.278 352.723 417.252 352.504 418.477 352.121C419.09 351.929 419.764 351.695 420.489 351.409C421.213 351.121 421.992 350.783 422.736 350.276C423.476 349.777 424.18 349.079 424.562 348.144C424.96 347.237 424.968 346.049 424.276 345.19C423.587 344.347 422.365 343.891 421.186 344.07C420.001 344.248 418.979 345.226 418.571 346.455C418.137 347.684 418.264 349.139 419.014 350.317C419.743 351.503 420.96 352.419 422.35 352.908C423.75 353.4 425.316 353.475 426.869 353.282C428.424 353.082 430.009 352.692 431.464 351.975C432.913 351.261 434.217 350.144 434.963 348.655C435.721 347.209 435.871 345.311 434.869 343.952C434.402 343.279 433.624 342.857 432.838 342.928C432.052 342.991 431.318 343.477 430.864 344.123C430.404 344.771 430.232 345.601 430.27 346.399C430.304 347.205 430.538 347.997 430.89 348.713C432.3 351.598 435.78 353.25 438.604 352.292C441.42 351.393 443.291 348.429 442.777 345.847C442.645 345.214 442.378 344.614 441.977 344.148C441.575 343.682 441.017 343.387 440.44 343.352C439.259 343.291 438.198 344.165 437.871 345.198C437.51 346.244 437.679 347.373 438.102 348.278C438.527 349.196 439.197 349.92 439.907 350.464C441.343 351.57 442.918 351.953 444.17 352.142C445.437 352.327 446.44 352.327 447.115 352.343C447.432 352.347 447.686 352.351 447.886 352.352C448.059 352.355 448.149 352.361 448.149 352.369Z" fill="#375A64"/>
</svg>
