<svg width="14" height="14" viewBox="0 0 14 14" fill="none" xmlns="http://www.w3.org/2000/svg">
<path d="M7 0C10.866 0 14 3.13396 14 7C14 10.866 10.866 14 7 14C3.13396 14 0 10.866 0 7C0 3.13396 3.13396 0 7 0ZM6.52312 10.2937C6.79347 10.5698 7.23033 10.5693 7.501 10.2903L9.81642 7.90542C10.4743 7.24542 9.48715 6.25533 8.82912 6.91533L8.02817 7.7215C7.84571 7.90509 7.69793 7.84276 7.69793 7.58543V4.37581C7.69793 3.99007 7.38461 3.67756 6.99984 3.67756C6.61442 3.67756 6.30192 3.99217 6.30192 4.37581V7.58543C6.30192 7.84422 6.15398 7.90493 5.97168 7.7215L5.17089 6.91533C4.51268 6.25533 3.52573 7.24541 4.1836 7.90542L6.52312 10.2937Z" fill="white"/>
</svg>
