<svg width="14" height="14" viewBox="0 0 14 14" fill="none" xmlns="http://www.w3.org/2000/svg">
<path d="M12.4441 1.54248H11.7961V2.31375C11.7961 2.95155 11.2729 3.47063 10.6296 3.47063C9.98631 3.47063 9.46284 2.95175 9.46284 2.31375V1.54248H8.16662V2.31375C8.16662 2.95155 7.64334 3.47063 6.99995 3.47063C6.35675 3.47063 5.83328 2.95175 5.83328 2.31375V1.54248H4.53706V2.31375C4.53706 2.95155 4.01356 3.47063 3.37039 3.47063C2.72719 3.47063 2.20392 2.95175 2.20392 2.31375V1.54248H1.55568C0.697793 1.54248 0 2.2342 0 3.085V12.4577C0 13.3083 0.697793 14 1.55568 14H12.4442C13.3019 14 14 13.3083 14 12.4577L14.0001 3.085C14.0001 2.23442 13.302 1.54259 12.4443 1.54259L12.4441 1.54248ZM12.9627 12.4577C12.9627 12.741 12.7302 12.9718 12.4441 12.9718H1.55562C1.26981 12.9718 1.03717 12.7411 1.03717 12.4577V5.14134C1.03717 4.85748 1.26936 4.62724 1.55562 4.62724H12.4441C12.7306 4.62724 12.9627 4.85727 12.9627 5.14134V12.4577Z" fill="#C5C7D3"/>
<path d="M3.37063 3.08498C3.80034 3.08498 4.14843 2.73959 4.14843 2.31371V0.771302C4.14843 0.345417 3.80012 3.05176e-05 3.37063 3.05176e-05C2.94114 3.05176e-05 2.59283 0.345417 2.59283 0.771302V2.31382C2.59283 2.7397 2.94114 3.08498 3.37063 3.08498Z" fill="#C5C7D3"/>
<path d="M7.00012 3.08498C7.42961 3.08498 7.77758 2.73959 7.77758 2.31371V0.771302C7.77758 0.345417 7.42961 3.05176e-05 7.00012 3.05176e-05C6.5704 3.05176e-05 6.22232 0.345417 6.22232 0.771302V2.31382C6.22254 2.7397 6.57052 3.08498 7.00012 3.08498Z" fill="#C5C7D3"/>
<path d="M10.6294 3.08498C11.0589 3.08498 11.4073 2.73959 11.4073 2.31371V0.771302C11.4073 0.345417 11.0589 3.05176e-05 10.6294 3.05176e-05C10.1999 3.05176e-05 9.85184 0.345417 9.85184 0.771302V2.31382C9.85184 2.7397 10.1999 3.08498 10.6294 3.08498Z" fill="#C5C7D3"/>
<path d="M3.57003 5.71024H2.70209C2.46234 5.71024 2.26801 5.90294 2.26801 6.14068V7.00134C2.26801 7.23886 2.46234 7.43178 2.70209 7.43178H3.57003C3.80978 7.43178 4.00411 7.23907 4.00411 7.00134V6.14045C4.00411 5.90272 3.80977 5.71024 3.57003 5.71024Z" fill="#C5C7D3"/>
<path d="M6.14593 5.71027H5.27799C5.03824 5.71027 4.8439 5.90297 4.8439 6.14071V7.00137C4.8439 7.23889 5.03824 7.43181 5.27799 7.43181H6.14593C6.38567 7.43181 6.58001 7.2391 6.58001 7.00137V6.14048C6.57979 5.90275 6.38556 5.71027 6.14593 5.71027Z" fill="#C5C7D3"/>
<path d="M8.72194 5.71027H7.85431C7.61456 5.71027 7.42023 5.90297 7.42023 6.14071V7.00137C7.42023 7.23889 7.61445 7.43181 7.85431 7.43181H8.72194C8.9618 7.43181 9.15614 7.2391 9.15614 7.00137V6.14048C9.15603 5.90275 8.9618 5.71027 8.72194 5.71027Z" fill="#C5C7D3"/>
<path d="M11.2982 5.71027H10.4303C10.1907 5.71027 9.99619 5.90297 9.99619 6.14071V7.00137C9.99619 7.23889 10.1905 7.43181 10.4303 7.43181H11.2982C11.538 7.43181 11.7324 7.2391 11.7324 7.00137V6.14048C11.7321 5.90275 11.5379 5.71027 11.2982 5.71027Z" fill="#C5C7D3"/>
<path d="M3.57003 7.93903H2.70209C2.46234 7.93903 2.26801 8.13173 2.26801 8.36958V9.23013C2.26801 9.46765 2.46234 9.66057 2.70209 9.66057H3.57003C3.80978 9.66057 4.00411 9.46786 4.00411 9.23013V8.36958C4.00411 8.13162 3.80977 7.93903 3.57003 7.93903Z" fill="#C5C7D3"/>
<path d="M6.14593 7.939H5.27799C5.03824 7.939 4.8439 8.1317 4.8439 8.36955V9.2301C4.8439 9.46762 5.03824 9.66054 5.27799 9.66054H6.14593C6.38567 9.66054 6.58001 9.46783 6.58001 9.2301V8.36955C6.57979 8.13159 6.38556 7.939 6.14593 7.939Z" fill="#C5C7D3"/>
<path d="M8.72194 7.939H7.85431C7.61456 7.939 7.42023 8.1317 7.42023 8.36955V9.2301C7.42023 9.46762 7.61445 9.66054 7.85431 9.66054H8.72194C8.9618 9.66054 9.15614 9.46783 9.15614 9.2301V8.36955C9.15603 8.13159 8.9618 7.939 8.72194 7.939Z" fill="#C5C7D3"/>
<path d="M11.2982 7.939H10.4303C10.1907 7.939 9.99619 8.1317 9.99619 8.36955V9.2301C9.99619 9.46762 10.1905 9.66054 10.4303 9.66054H11.2982C11.538 9.66054 11.7324 9.46783 11.7324 9.2301V8.36955C11.7321 8.13159 11.5379 7.939 11.2982 7.939Z" fill="#C5C7D3"/>
<path d="M3.57003 10.1672H2.70209C2.46234 10.1672 2.26801 10.3599 2.26801 10.5976V11.4582C2.26801 11.696 2.46234 11.8887 2.70209 11.8887H3.57003C3.80978 11.8887 4.00411 11.6961 4.00411 11.4582V10.5976C4.00411 10.3601 3.80977 10.1672 3.57003 10.1672Z" fill="#C5C7D3"/>
<path d="M6.14593 10.1671H5.27799C5.03824 10.1671 4.8439 10.3598 4.8439 10.5976V11.4581C4.8439 11.6959 5.03824 11.8887 5.27799 11.8887H6.14593C6.38567 11.8887 6.58001 11.6961 6.58001 11.4581L6.5799 10.5976C6.57979 10.36 6.38556 10.1671 6.14593 10.1671H6.14593Z" fill="#C5C7D3"/>
<path d="M8.72194 10.1671H7.85431C7.61456 10.1671 7.42023 10.3598 7.42023 10.5976V11.4581C7.42023 11.6959 7.61445 11.8887 7.85431 11.8887H8.72194C8.9618 11.8887 9.15614 11.6961 9.15614 11.4581L9.15625 10.5976C9.15603 10.36 8.9618 10.1671 8.72194 10.1671H8.72194Z" fill="#C5C7D3"/>
</svg>
