<svg width="35" height="35" viewBox="0 0 35 35" fill="none" xmlns="http://www.w3.org/2000/svg">
<circle cx="17.5" cy="17.5" r="17.5" fill="#F9F9F9"/>
<path d="M11.1836 25H23.771C24.9783 25 25.9546 24.0238 25.9546 22.8164V15.8811C25.9546 14.6738 24.9783 13.6976 23.771 13.6976L11.1836 13.6977C9.97623 13.6977 9 14.6739 9 15.8813V22.8162C9 24.0235 9.97623 24.9998 11.1836 24.9998V25ZM22.177 15.4579C22.177 15.2916 22.313 15.1621 22.4772 15.1621H24.1943C24.3606 15.1621 24.4945 15.2937 24.4945 15.4579V16.4039C24.4945 16.5702 24.3585 16.7042 24.1943 16.7042H22.4772C22.3109 16.7042 22.177 16.5681 22.177 16.4039V15.4579ZM17.4794 15.0043C19.8724 15.0043 21.8229 16.9524 21.8229 19.3478C21.8229 21.7452 19.8704 23.6913 17.4794 23.6913C15.082 23.6913 13.1317 21.7432 13.1317 19.3478C13.1317 16.9526 15.0819 15.0043 17.4794 15.0043Z" fill="#C5C7D3"/>
<path d="M21.5267 13.1836C21.5267 11.9762 20.5461 11 19.3388 11H15.6196C14.4122 11 13.4318 11.9762 13.4318 13.1836V13.2613H21.5268L21.5267 13.1836Z" fill="#C5C7D3"/>
<path d="M17.479 22.868C19.4228 22.868 20.9995 21.2914 20.9995 19.3475C20.9995 17.4037 19.4229 15.827 17.479 15.827C15.5309 15.827 13.9543 17.4036 13.9543 19.3475C13.9543 21.2914 15.5309 22.868 17.479 22.868Z" fill="#C5C7D3"/>
</svg>
