<svg width="35" height="35" viewBox="0 0 35 35" fill="none" xmlns="http://www.w3.org/2000/svg">
<circle cx="17.5" cy="17.5" r="17.5" fill="#F9F9F9"/>
<path d="M12.4132 12.4132C12.9642 11.8622 13.8575 11.8623 14.4085 12.4132L18 16.0047L21.5915 12.4132C22.1425 11.8623 23.0358 11.8622 23.5868 12.4132C24.1378 12.9642 24.1377 13.8575 23.5868 14.4085L19.9953 18L23.5868 21.5915C24.1377 22.1425 24.1378 23.0358 23.5868 23.5868C23.0358 24.1378 22.1425 24.1377 21.5915 23.5867L18 19.9953L14.4085 23.5868C13.8575 24.1378 12.9642 24.1377 12.4132 23.5867C11.8622 23.0358 11.8623 22.1425 12.4132 21.5915L16.0047 18L12.4132 14.4085C11.8623 13.8575 11.8622 12.9642 12.4132 12.4132Z" fill="#C5C7D3"/>
</svg>
