<svg width="15" height="15" viewBox="0 0 15 15" fill="none" xmlns="http://www.w3.org/2000/svg">
<path d="M0.516549 0.516549C1.20529 -0.172192 2.32192 -0.172171 3.01064 0.516549L7.5 5.00593L11.9894 0.516549C12.6781 -0.172171 13.7947 -0.172195 14.4835 0.516549C15.1722 1.20529 15.1722 2.32194 14.4835 3.01065L9.99409 7.50001L14.4835 11.9894C15.1722 12.6781 15.1722 13.7947 14.4835 14.4835C13.7947 15.1722 12.6781 15.1722 11.9894 14.4834L7.5 9.99409L3.01064 14.4835C2.32192 15.1722 1.20529 15.1722 0.516549 14.4834C-0.172192 13.7947 -0.172171 12.6781 0.516546 11.9894L5.00591 7.50001L0.516549 3.01065C-0.172171 2.32193 -0.172195 1.20529 0.516549 0.516549Z" fill="#C5C7D3"/>
</svg>
