<svg width="12" height="12" viewBox="0 0 12 12" fill="none" xmlns="http://www.w3.org/2000/svg">
<path d="M1.66449 2.52182L1.67727 9.88357C1.67727 10.4449 1.89547 10.9832 2.28376 11.3801C2.67205 11.777 3.19868 12 3.74787 12H8.25221C8.80139 12 9.32799 11.777 9.71631 11.3801C10.1046 10.9832 10.3228 10.4449 10.3228 9.88357L10.3356 2.52182H11.5221C11.6928 2.52182 11.8506 2.4287 11.936 2.27755C12.0213 2.12652 12.0213 1.94027 11.936 1.78912C11.8506 1.63809 11.6928 1.54497 11.5221 1.54497H8.16458V1.13957C8.16458 0.837373 8.04704 0.547473 7.83796 0.33374C7.62886 0.120018 7.34534 0 7.04958 0H4.95042C4.65468 0 4.37115 0.120033 4.16204 0.33374C3.95295 0.547461 3.83542 0.837373 3.83542 1.13957V1.54497H0.477852C0.307201 1.54497 0.149434 1.63809 0.0639942 1.78912C-0.0213314 1.94027 -0.0213314 2.1265 0.0639942 2.27755C0.149431 2.4287 0.307195 2.52182 0.477852 2.52182H1.66449ZM6.47771 9.22423C6.47771 9.39866 6.38661 9.55992 6.23873 9.64725C6.09097 9.73446 5.90875 9.73446 5.761 9.64725C5.61312 9.55992 5.52202 9.39867 5.52202 9.22423V4.51932C5.52202 4.34477 5.61312 4.18363 5.761 4.0963C5.90876 4.00908 6.09098 4.00908 6.23873 4.0963C6.38661 4.18363 6.47771 4.34477 6.47771 4.51932V9.22423ZM7.27408 4.51932C7.27408 4.34477 7.36519 4.18363 7.51295 4.0963C7.66082 4.00908 7.84293 4.00908 7.9908 4.0963C8.13868 4.18363 8.22967 4.34477 8.22967 4.51932V9.22423C8.22967 9.39866 8.13868 9.55992 7.9908 9.64725C7.84293 9.73446 7.66082 9.73446 7.51295 9.64725C7.36519 9.55992 7.27408 9.39867 7.27408 9.22423V4.51932ZM4.79097 1.13947C4.79097 1.04965 4.86229 0.976741 4.95029 0.976741H7.04944C7.09177 0.976741 7.13221 0.993889 7.16209 1.02444C7.19198 1.05498 7.20876 1.09632 7.20876 1.13947V1.54487H4.79097L4.79097 1.13947ZM3.77004 4.51932C3.77004 4.34477 3.86104 4.18363 4.00891 4.0963C4.15679 4.00908 4.33889 4.00908 4.48676 4.0963C4.63453 4.18363 4.72563 4.34477 4.72563 4.51932V9.22423C4.72563 9.39866 4.63453 9.55992 4.48676 9.64725C4.33889 9.73446 4.15678 9.73446 4.00891 9.64725C3.86104 9.55992 3.77004 9.39867 3.77004 9.22423V4.51932Z" fill="#C5C7D3"/>
</svg>
