<svg width="12" height="12" viewBox="0 0 12 12" fill="none" xmlns="http://www.w3.org/2000/svg">
<path fill-rule="evenodd" clip-rule="evenodd" d="M11.0783 0H0.921683C0.412689 0 0 0.413085 0 0.921683V11.0783C0 11.5873 0.413085 12 0.921683 12H11.0783C11.5873 12 12 11.5869 12 11.0783V0.921683C12 0.412689 11.5869 0 11.0783 0ZM8.80223 4.54302L7.51383 3.25461L3.58177 7.15526L4.88593 8.45942L8.80223 4.54302ZM4.459 8.84471L3.09708 9.22756C2.92362 9.27633 2.76369 9.11639 2.81245 8.94292L3.19529 7.5811C3.20601 7.54295 3.2263 7.50828 3.2543 7.48037L4.55972 8.78579C4.53171 8.8137 4.49704 8.83408 4.45899 8.8447L4.459 8.84471ZM9.45473 3.89076C9.63515 3.71044 9.63399 3.41683 9.45725 3.24L8.82097 2.60381C8.642 2.42475 8.35119 2.42417 8.16894 2.60497L7.84153 2.92969L9.1287 4.21686L9.45473 3.89076Z" fill="#C5C7D3"/>
</svg>
