<svg width="14" height="11" viewBox="0 0 14 11" fill="none" xmlns="http://www.w3.org/2000/svg">
<path d="M11.612 10.7104C11.5533 10.7105 11.4952 10.699 11.4411 10.6766C11.3869 10.6541 11.3377 10.6211 11.2963 10.5795L1.47097 0.754215C1.39075 0.669779 1.34669 0.557346 1.34818 0.440888C1.34967 0.324431 1.3966 0.213162 1.47895 0.130808C1.56131 0.0484529 1.67258 0.00152767 1.78903 3.66446e-05C1.90549 -0.00145438 2.01792 0.0426069 2.10236 0.122826L11.9277 9.94815C11.9901 10.0106 12.0326 10.0902 12.0498 10.1768C12.067 10.2634 12.0582 10.3531 12.0244 10.4347C11.9906 10.5163 11.9334 10.586 11.86 10.6351C11.7866 10.6842 11.7003 10.7104 11.612 10.7104Z" fill="#C5C7D3"/>
<path d="M6.47578 7.02185L5.03018 5.57624C5.0219 5.56803 5.01125 5.56262 4.99973 5.56077C4.98821 5.55891 4.9764 5.56072 4.96596 5.56592C4.95552 5.57113 4.94697 5.57947 4.94152 5.58978C4.93607 5.6001 4.93398 5.61186 4.93555 5.62342C4.99392 5.99846 5.17002 6.34524 5.4384 6.61363C5.70679 6.88201 6.05357 7.05811 6.42861 7.11648C6.44017 7.11805 6.45193 7.11596 6.46225 7.11051C6.47256 7.10506 6.4809 7.09651 6.48611 7.08607C6.49131 7.07563 6.49312 7.06382 6.49126 7.0523C6.48941 7.04078 6.484 7.03013 6.47578 7.02185Z" fill="#C5C7D3"/>
<path d="M6.92258 3.68073L8.37042 5.12801C8.37868 5.13634 8.38936 5.14185 8.40093 5.14377C8.41251 5.14569 8.42439 5.14391 8.4349 5.13868C8.44541 5.13346 8.454 5.12506 8.45946 5.11468C8.46492 5.10429 8.46697 5.09245 8.46532 5.08084C8.40711 4.70528 8.23088 4.358 7.96215 4.08927C7.69342 3.82054 7.34614 3.64432 6.97059 3.5861C6.95896 3.58431 6.94706 3.58623 6.93659 3.59161C6.92612 3.59698 6.91762 3.60552 6.91229 3.61602C6.90697 3.62651 6.9051 3.63842 6.90694 3.65004C6.90879 3.66166 6.91426 3.6724 6.92258 3.68073Z" fill="#C5C7D3"/>
<path d="M13.2585 5.83588C13.3509 5.69083 13.3997 5.52232 13.3992 5.35034C13.3987 5.17836 13.3489 5.01014 13.2557 4.86563C12.5171 3.72343 11.5588 2.75318 10.4848 2.05955C9.29483 1.29139 7.98292 0.885254 6.69 0.885254C6.0084 0.88619 5.33143 0.997321 4.6853 1.21435C4.66722 1.22036 4.65097 1.2309 4.63812 1.24497C4.62526 1.25904 4.61622 1.27617 4.61185 1.29472C4.60749 1.31327 4.60795 1.33263 4.61318 1.35096C4.61841 1.36928 4.62825 1.38596 4.64176 1.39941L5.96036 2.71801C5.97406 2.73173 5.99109 2.74165 6.00979 2.74679C6.02849 2.75193 6.0482 2.75211 6.06699 2.74732C6.51394 2.6384 6.98141 2.64638 7.42439 2.7705C7.86736 2.89461 8.27093 3.13068 8.59622 3.45598C8.92152 3.78127 9.15759 4.18483 9.2817 4.62781C9.40582 5.07079 9.4138 5.53825 9.30488 5.98521C9.30013 6.00396 9.30034 6.02361 9.30548 6.04226C9.31062 6.0609 9.32051 6.07789 9.33419 6.09156L11.2309 7.98963C11.2506 8.0094 11.277 8.02105 11.3049 8.02229C11.3328 8.02353 11.3602 8.01427 11.3816 7.99633C12.1117 7.37404 12.7443 6.64579 13.2585 5.83588Z" fill="#C5C7D3"/>
<path d="M6.69908 8.0308C6.29344 8.03082 5.89308 7.93875 5.5282 7.76152C5.16332 7.5843 4.84344 7.32654 4.59267 7.00769C4.3419 6.68885 4.1668 6.31723 4.08056 5.92086C3.99432 5.52449 3.99919 5.11371 4.09481 4.7195C4.09956 4.70075 4.09935 4.68109 4.09421 4.66245C4.08907 4.64381 4.07918 4.62682 4.0655 4.61315L2.19981 2.74661C2.18003 2.72681 2.15353 2.71516 2.12556 2.71397C2.09759 2.71278 2.07019 2.72214 2.0488 2.7402C1.36801 3.32106 0.736898 4.02781 0.159939 4.85376C0.0589462 4.99871 0.00332535 5.17041 0.000144486 5.34705C-0.00303638 5.52369 0.0463663 5.69728 0.142075 5.84578C0.879253 6.99942 1.82773 7.97106 2.88535 8.65521C4.07695 9.42644 5.35703 9.81722 6.69015 9.81722C7.37863 9.81537 8.06264 9.70661 8.71774 9.49483C8.73599 9.489 8.75243 9.47857 8.76548 9.46455C8.77853 9.45054 8.78776 9.43339 8.79227 9.41478C8.79679 9.39616 8.79643 9.3767 8.79125 9.35826C8.78607 9.33982 8.77623 9.32302 8.76268 9.30948L7.43766 7.98474C7.42399 7.97106 7.407 7.96117 7.38835 7.95604C7.36971 7.9509 7.35005 7.95069 7.33131 7.95543C7.12431 8.00559 6.91207 8.03089 6.69908 8.0308Z" fill="#C5C7D3"/>
</svg>
