<svg width="15" height="13" viewBox="0 0 15 13" fill="none" xmlns="http://www.w3.org/2000/svg">
<path d="M14.2996 6.83596H12.8691C12.7536 6.83596 12.659 6.92856 12.659 7.04183V12.3825C12.659 12.7242 12.3775 13 12.0288 13H9.40307C9.28761 13 9.19296 12.9074 9.19296 12.7941L9.1931 8.66548C9.1931 8.55236 9.0986 8.45961 8.98299 8.45961H6.25222C6.13677 8.45961 6.04211 8.55221 6.04211 8.66548V12.7941C6.04211 12.9073 5.9476 13 5.83199 13H3.2063C2.85757 13 2.57609 12.7242 2.57609 12.3825L2.57639 7.04183C2.57639 6.9287 2.48188 6.83596 2.36627 6.83596H0.935752C0.553488 6.83596 0.368563 6.37499 0.652228 6.12173L7.33425 0.108101C7.49602 -0.0360338 7.74172 -0.0360338 7.9035 0.108101L14.5855 6.12173C14.8649 6.37497 14.6821 6.83596 14.2998 6.83596H14.2996Z" fill="#C5C7D3"/>
</svg>
