<svg width="20" height="14" viewBox="0 0 20 14" fill="none" xmlns="http://www.w3.org/2000/svg">
<path fill-rule="evenodd" clip-rule="evenodd" d="M18.7097 10.8182H6.45161C5.73935 10.8182 5.16129 11.3884 5.16129 12.0909C5.16129 12.7935 5.73935 13.3636 6.45161 13.3636H18.7097C19.4219 13.3636 20 12.7935 20 12.0909C20 11.3884 19.4219 10.8182 18.7097 10.8182ZM18.7097 5.72727H6.45161C5.73935 5.72727 5.16129 6.29745 5.16129 7C5.16129 7.70255 5.73935 8.27273 6.45161 8.27273H18.7097C19.4219 8.27273 20 7.70255 20 7C20 6.29745 19.4219 5.72727 18.7097 5.72727ZM6.45161 3.18182H18.7097C19.4219 3.18182 20 2.61164 20 1.90909C20 1.20655 19.4219 0.636364 18.7097 0.636364H6.45161C5.73935 0.636364 5.16129 1.20655 5.16129 1.90909C5.16129 2.61164 5.73935 3.18182 6.45161 3.18182ZM1.93548 10.1818C0.866452 10.1818 0 11.0365 0 12.0909C0 13.1454 0.866452 14 1.93548 14C3.00452 14 3.87097 13.1454 3.87097 12.0909C3.87097 11.0365 3.00452 10.1818 1.93548 10.1818ZM1.93548 5.09091C0.866452 5.09091 0 5.94555 0 7C0 8.05445 0.866452 8.90909 1.93548 8.90909C3.00452 8.90909 3.87097 8.05445 3.87097 7C3.87097 5.94555 3.00452 5.09091 1.93548 5.09091ZM1.93548 0C0.866452 0 0 0.854636 0 1.90909C0 2.96355 0.866452 3.81818 1.93548 3.81818C3.00452 3.81818 3.87097 2.96355 3.87097 1.90909C3.87097 0.854636 3.00452 0 1.93548 0Z" fill="#C5C7D3"/>
</svg>
