<svg width="114" height="24" viewBox="0 0 114 24" fill="none" xmlns="http://www.w3.org/2000/svg">
<path d="M52.9732 0.00289917C52.9732 5.08186 50.4866 9.50947 46.8077 11.8327C45.0972 12.9113 43.1288 13.5363 41.0343 13.5626C41.0235 13.4914 41.0128 13.4176 41.0048 13.3464C40.9967 13.2778 40.9886 13.2093 40.9806 13.1381C40.9725 13.0748 40.9672 13.0141 40.9618 12.9508C40.9537 12.8823 40.9484 12.8137 40.943 12.7478V12.7451C40.9188 12.4471 40.9081 12.1439 40.9081 11.8406C40.9081 11.5374 40.9188 11.2341 40.943 10.9361C40.9484 10.8676 40.9537 10.799 40.9618 10.7331C40.9672 10.6645 40.9752 10.5959 40.9833 10.53C40.9913 10.4614 40.9994 10.3955 41.0074 10.327C41.0155 10.261 41.0235 10.1925 41.0343 10.1265C41.8479 4.6151 46.5231 0.329894 52.2777 0.00553622H52.9732V0.00289917Z" fill="#091941"/>
<path d="M64.9309 13.5573C64.9488 13.4254 64.9668 13.2936 64.9796 13.1617C64.9668 13.2936 64.9514 13.4254 64.9309 13.5573Z" fill="#FF025D"/>
<path d="M65.0572 11.8404C65.0572 11.9353 65.0572 12.0302 65.0545 12.1252C65.0545 12.1331 65.0545 12.1436 65.0545 12.1515C65.0545 12.2386 65.0491 12.3256 65.0464 12.41C65.0464 12.4205 65.0464 12.4284 65.0438 12.439C65.0411 12.526 65.0357 12.6104 65.0277 12.6974C65.0223 12.7712 65.0169 12.8477 65.0089 12.9215C65.0035 12.9848 64.9981 13.0455 64.9901 13.1061C64.9874 13.1246 64.9874 13.1404 64.9847 13.1589C64.9766 13.2248 64.9686 13.2934 64.9605 13.3593C64.9525 13.4252 64.9417 13.4912 64.9337 13.5571C62.8445 13.5333 60.8842 12.9136 59.179 11.843C55.4867 9.52503 52.9921 5.08951 52.9921 0H53.6312C59.4153 0.300624 64.1173 4.59638 64.9337 10.1263C64.9525 10.2476 64.9686 10.3742 64.982 10.4981C64.982 10.5086 64.9847 10.5166 64.9847 10.5271C64.9874 10.5403 64.9874 10.5561 64.9901 10.5693C64.9981 10.6326 65.0035 10.6959 65.0089 10.7618C65.0169 10.8356 65.0223 10.9095 65.0277 10.9833C65.0303 11.0071 65.0303 11.0308 65.0303 11.0545C65.0357 11.1178 65.0384 11.1785 65.0411 11.2417C65.0411 11.2523 65.0438 11.2602 65.0438 11.2708C65.0464 11.3578 65.0518 11.4422 65.0518 11.5292C65.0518 11.5371 65.0518 11.5476 65.0518 11.5556C65.0518 11.5951 65.0545 11.6347 65.0545 11.6716C65.0572 11.7296 65.0572 11.785 65.0572 11.8404Z" fill="#FF025D"/>
<path d="M41.0321 10.1262C41.0211 10.1921 41.0129 10.2606 41.0046 10.3266C41.0129 10.2606 41.0211 10.1921 41.0321 10.1262Z" fill="#FF9704"/>
<path d="M64.9799 10.498C64.967 10.374 64.9517 10.2501 64.9337 10.1262C64.9517 10.2475 64.967 10.374 64.9799 10.498Z" fill="#01D5D2"/>
<path d="M53.0082 23.6835H52.3342C46.5527 23.3829 41.8508 19.0898 41.0317 13.5599C41.021 13.4887 41.0102 13.4149 41.0022 13.3437C40.9941 13.2751 40.9861 13.2065 40.978 13.1353C40.97 13.072 40.9646 13.0114 40.9592 12.9481C40.9512 12.8795 40.9458 12.811 40.9404 12.745V10.9334C40.9458 10.8648 40.9512 10.7963 40.9592 10.7303C40.9646 10.6618 40.9727 10.5932 40.9807 10.5273C40.9888 10.4587 40.9968 10.3928 41.0049 10.3242C41.0129 10.2583 41.0237 10.1897 41.0317 10.1238C43.1263 10.1423 45.0946 10.7593 46.8052 11.83C47.7853 12.4418 48.6822 13.2065 49.4717 14.0926C51.6575 16.5503 53.0082 19.9389 53.0082 23.6835Z" fill="#FF9704"/>
<path d="M65.0571 11.8408C65.0571 11.9357 65.0571 12.0306 65.0544 12.1256C65.0544 12.1335 65.0544 12.144 65.0544 12.1519C65.0544 12.239 65.049 12.326 65.0463 12.4104C65.0463 12.4209 65.0463 12.4288 65.0436 12.4394C65.041 12.5264 65.0356 12.6108 65.0275 12.6978C65.0222 12.7716 65.0168 12.8481 65.0087 12.922C65.0034 12.9852 64.998 13.0459 64.9899 13.1065C64.9873 13.125 64.9873 13.1408 64.9846 13.1593C64.9765 13.2252 64.9685 13.2938 64.9604 13.3597C64.9523 13.4256 64.9416 13.4916 64.9335 13.5575C64.1199 19.0874 59.4152 23.3831 53.631 23.6838H52.9919C52.9919 19.9391 54.3427 16.5505 56.5258 14.0954C57.3099 13.2147 58.2015 12.4552 59.1789 11.8434C60.8841 10.7701 62.8444 10.1504 64.9335 10.1267C64.9523 10.248 64.9685 10.3746 64.9819 10.4985C64.9819 10.5091 64.9846 10.517 64.9846 10.5275C64.9873 10.5407 64.9873 10.5565 64.9899 10.5697C64.998 10.633 65.0034 10.6963 65.0087 10.7622C65.0168 10.836 65.0222 10.9099 65.0275 10.9837C65.0302 11.0075 65.0302 11.0312 65.0302 11.0549C65.0356 11.1182 65.0383 11.1789 65.041 11.2422C65.041 11.2527 65.0436 11.2606 65.0436 11.2712C65.0463 11.3582 65.0517 11.4426 65.0517 11.5296C65.0517 11.5375 65.0517 11.548 65.0517 11.556C65.0517 11.5955 65.0544 11.6351 65.0544 11.672C65.0571 11.73 65.0571 11.7854 65.0571 11.8408Z" fill="#01D5D2"/>
<path d="M10.795 5.15851C12.0866 5.57517 13.1339 6.34255 13.9341 7.45539C14.5759 8.35462 15.0136 9.33033 15.2472 10.3772C15.4808 11.4241 15.599 12.4236 15.599 13.3729C15.599 15.7779 15.1076 17.8164 14.1221 19.4856C12.7875 21.735 10.7278 22.861 7.94316 22.861H0V4.76559H7.94316C9.08711 4.78142 10.0377 4.91327 10.795 5.15851ZM3.73796 7.90632V19.715H7.29332C9.11396 19.715 10.3814 18.8343 11.0984 17.0753C11.4905 16.1102 11.6865 14.9604 11.6865 13.6261C11.6865 11.7854 11.3911 10.372 10.803 9.38571C10.2149 8.39945 9.04414 7.90632 7.29063 7.90632H3.73796Z" fill="#0C0C0C"/>
<path d="M28.3355 21.2234C27.1862 22.6184 25.4407 23.3146 23.0991 23.3146C20.7575 23.3146 19.0121 22.6184 17.8601 21.2234C16.7081 19.8284 16.1361 18.1513 16.1361 16.1893C16.1361 14.259 16.7108 12.5871 17.8601 11.1736C19.0094 9.75754 20.7548 9.05081 23.0991 9.05081C25.4407 9.05081 27.1862 9.75754 28.3355 11.1736C29.4848 12.5871 30.0595 14.259 30.0595 16.1893C30.0595 18.1486 29.4848 19.8284 28.3355 21.2234ZM25.4837 19.2878C26.0422 18.56 26.3215 17.5263 26.3215 16.1867C26.3215 14.8471 26.0422 13.816 25.4837 13.0908C24.9251 12.3682 24.1249 12.0069 23.083 12.0069C22.0411 12.0069 21.2382 12.3682 20.677 13.0908C20.1157 13.8133 19.8338 14.8444 19.8338 16.1867C19.8338 17.5289 20.1157 18.56 20.677 19.2878C21.2382 20.0157 22.0411 20.3796 23.083 20.3796C24.1249 20.3796 24.9251 20.0157 25.4837 19.2878Z" fill="#0C0C0C"/>
<path d="M30.8247 12.094V9.60197H32.7232V5.87054H36.2517V9.60197H38.4644V12.094H36.2517V19.1639C36.2517 19.7124 36.3215 20.0526 36.4639 20.1897C36.6062 20.3242 37.0385 20.3928 37.7636 20.3928C37.871 20.3928 37.9864 20.3901 38.1073 20.3875C38.2281 20.3822 38.3463 20.377 38.4644 20.3691V22.985L36.7781 23.0457C35.0944 23.1037 33.945 22.8162 33.3274 22.186C32.9273 21.7851 32.7259 21.1681 32.7259 20.3321V12.094H30.8247Z" fill="#0C0C0C"/>
<path d="M67.2698 9.71285H69.4073V11.5799C70.041 10.8099 70.7123 10.2587 71.4186 9.92381C72.1275 9.58891 72.9143 9.42014 73.7817 9.42014C75.6802 9.42014 76.9638 10.0715 77.6324 11.3716C78.0003 12.0836 78.1829 13.1015 78.1829 14.4279V22.8612H75.895V14.5729C75.895 13.7713 75.7742 13.1252 75.5325 12.6347C75.1324 11.8172 74.4073 11.4058 73.3574 11.4058C72.823 11.4058 72.3853 11.4586 72.0443 11.5667C71.4266 11.746 70.8869 12.1073 70.4196 12.6479C70.0437 13.083 69.802 13.5287 69.6892 13.9928C69.5765 14.4543 69.5201 15.1162 69.5201 15.9758V22.8638H67.2698V9.71285Z" fill="#0C0C0C"/>
<path d="M80.339 4.82632H82.5893V22.8585H80.339V4.82632Z" fill="#0C0C0C"/>
<path d="M84.738 4.82632H87.0259V7.33152H84.738V4.82632ZM84.738 9.77343H87.0259V22.8585H84.738V9.77343Z" fill="#0C0C0C"/>
<path d="M89.1954 9.71285H91.3329V11.5799C91.9667 10.8099 92.638 10.2587 93.3442 9.92381C94.0532 9.58891 94.84 9.42014 95.7073 9.42014C97.6058 9.42014 98.8894 10.0715 99.5581 11.3716C99.9259 12.0836 100.109 13.1015 100.109 14.4279V22.8612H97.8207V14.5729C97.8207 13.7713 97.6998 13.1252 97.4581 12.6347C97.058 11.8172 96.333 11.4058 95.283 11.4058C94.7487 11.4058 94.311 11.4586 93.9699 11.5667C93.3523 11.746 92.8126 12.1073 92.3453 12.6479C91.9694 13.083 91.7277 13.5287 91.6149 13.9928C91.5021 14.4543 91.4457 15.1162 91.4457 15.9758V22.8638H89.1954V9.71285Z" fill="#0C0C0C"/>
<path d="M110.544 10.0741C111.435 10.5119 112.115 11.0789 112.582 11.775C113.033 12.4369 113.331 13.2122 113.482 14.0957C113.616 14.7022 113.683 15.6673 113.683 16.9938H103.868C103.908 18.3281 104.231 19.3988 104.83 20.2031C105.428 21.01 106.358 21.4108 107.617 21.4108C108.79 21.4108 109.73 21.0311 110.428 20.269C110.829 19.826 111.113 19.317 111.28 18.7342H113.492C113.433 19.2168 113.24 19.7548 112.912 20.3481C112.582 20.9414 112.214 21.4267 111.806 21.8038C111.121 22.4577 110.275 22.9008 109.268 23.1302C108.726 23.262 108.114 23.328 107.432 23.328C105.764 23.328 104.352 22.732 103.194 21.5427C102.037 20.3507 101.457 18.6841 101.457 16.5402C101.457 14.4279 102.039 12.7138 103.208 11.3953C104.373 10.0768 105.898 9.42016 107.783 9.42016C108.731 9.41752 109.65 9.6364 110.544 10.0741ZM111.368 15.2349C111.277 14.2776 111.065 13.5129 110.732 12.938C110.114 11.8753 109.086 11.3426 107.644 11.3426C106.61 11.3426 105.745 11.7091 105.044 12.4422C104.344 13.1753 103.973 14.1062 103.933 15.2349H111.368Z" fill="#0C0C0C"/>
</svg>
