<svg width="16" height="17" viewBox="0 0 16 17" fill="none" xmlns="http://www.w3.org/2000/svg">
<path d="M8 0.674805C3.58178 0.674805 0 4.23812 0 8.63357C0 13.029 3.58178 16.5923 8 16.5923C12.4182 16.5923 16 13.029 16 8.63357C16 4.23812 12.4182 0.674805 8 0.674805ZM7.44421 2.97266H8.54519V5.78494H7.44421V2.97266ZM8 13.1405C5.47059 13.1405 3.41299 11.0568 3.41299 8.49535C3.41299 6.64074 4.50124 4.96624 6.18548 4.22926L6.62871 5.23174C5.34397 5.79402 4.51384 7.07503 4.51384 8.49528C4.51384 10.4526 6.0778 12.0452 7.99997 12.0452C9.92229 12.0452 11.4861 10.4528 11.4861 8.49528C11.4861 7.07481 10.6558 5.79368 9.37098 5.23143L9.81421 4.22895C11.4987 4.96589 12.5871 6.64049 12.5871 8.49535C12.5872 11.0568 10.5295 13.1405 8.00006 13.1405H8Z" fill="#C5C7D3"/>
</svg>
