<svg fill="none" height="28" viewBox="0 0 29 28" width="29" xmlns="http://www.w3.org/2000/svg"><path d="m14.2638.00341797c0 6.00451203-2.9398 11.23898203-7.28906 13.98558203-2.02226 1.2751-4.34929 2.014-6.82553 2.0452-.012699-.0842-.025398-.1715-.034922-.2557-.009524-.081-.0190467-.1621-.0285707-.2463-.009524-.0748-.0158756-.1465-.0222249-.2213-.009524-.0811-.0158709-.1621-.0222202-.2401v-.0031c-.028572-.3523-.0412722-.7108-.0412722-1.0693 0-.3586.0127002-.7171.0412722-1.0694.0063493-.081.0126962-.1621.0222202-.24.0063493-.0811.0158739-.1621.0253979-.2401.009524-.081.0190517-.159.0285757-.24.009524-.078.019045-.159.031744-.237.96192-6.51578 6.48902-11.581899 13.29229-11.96536442h.8223z" fill="#091941"/><path d="m28.4008 16.0287c.0212-.1559.0424-.3118.0575-.4677-.0151.1559-.0333.3118-.0575.4677z" fill="#ff025d"/><path d="m28.5499 13.9981c0 .1122 0 .2244-.0032.3367v.0311c0 .1029-.0063.2058-.0095.3056 0 .0124 0 .0218-.0032.0343-.0031.1028-.0095.2026-.019.3055-.0064.0873-.0127.1777-.0222.265-.0064.0748-.0127.1465-.0222.2182-.0032.0218-.0032.0405-.0064.0624-.0095.0779-.019.159-.0286.2369-.0095.0779-.0222.1559-.0317.2338-2.4699-.028-4.7874-.7607-6.8033-2.0264-4.3652-2.7404-7.3145-7.98422-7.3145-14.0012h.7556c6.8382.355407 12.3971 5.43399 13.3622 11.9716.0222.1434.0413.2931.0571.4396 0 .0125.0032.0218.0032.0343.0032.0156.0032.0343.0064.0499.0095.0748.0158.1496.0222.2276.0095.0872.0158.1745.0222.2618.0032.0281.0032.0561.0032.0842.0063.0748.0095.1465.0127.2214 0 .0124.0031.0218.0031.0343.0032.1028.0096.2026.0096.3055v.0312c0 .0467.0031.0935.0031.1371.0032.0686.0032.1341.0032.1996z" fill="#ff025d"/><path d="m.146611 11.9712c-.012989.0779-.022733.159-.032475.2369.009742-.0779.019486-.159.032475-.2369z" fill="#ff9704"/><path d="m28.4586 12.4108c-.0151-.1466-.0333-.2931-.0545-.4396.0212.1434.0394.293.0545.4396z" fill="#01d5d2"/><path d="m14.3058 28h-.7969c-6.83503-.3554-12.39387-5.4309-13.362144-11.9685-.012699-.0842-.025398-.1715-.034922-.2557-.009524-.081-.0190465-.1621-.0285705-.2463-.009524-.0748-.0158757-.1465-.022225-.2213-.009524-.0811-.0158708-.1621-.0222201-.2401v-2.1418c.0063493-.081.0126961-.1621.0222201-.24.0063493-.0811.0158739-.1621.0253979-.2401.009524-.081.0190466-.159.0285706-.24.009524-.078.022225-.159.031749-.237 2.476244.0219 4.803274.7514 6.825534 2.0171 1.15875.7233 2.21909 1.6274 3.15241 2.6749 2.5842 2.9056 4.1811 6.9118 4.1811 11.3388z" fill="#ff9704"/><path d="m28.5502 13.9991c0 .1122 0 .2245-.0032.3367v.0312c0 .1029-.0064.2057-.0095.3055 0 .0125 0 .0218-.0032.0343-.0032.1029-.0095.2026-.0191.3055-.0063.0873-.0127.1777-.0222.265-.0063.0748-.0127.1465-.0222.2183-.0032.0218-.0032.0405-.0064.0623-.0095.0779-.019.159-.0285.2369-.0095.078-.0222.1559-.0318.2339-.9619 6.5376-6.5239 11.6162-13.3622 11.9716h-.7555c0-4.427 1.5968-8.4332 4.1778-11.3356.927-1.0413 1.981-1.9392 3.1366-2.6625 2.0159-1.2688 4.3334-2.0015 6.8033-2.0295.0222.1434.0413.293.0572.4395 0 .0125.0031.0219.0031.0343.0032.0156.0032.0343.0064.0499.0095.0748.0159.1497.0222.2276.0095.0873.0159.1746.0222.2619.0032.028.0032.0561.0032.0842.0064.0748.0095.1465.0127.2213 0 .0125.0032.0218.0032.0343.0032.1029.0095.2026.0095.3055v.0312c0 .0468.0032.0935.0032.1372.0032.0686.0032.134.0032.1995z" fill="#01d5d2"/></svg>