<svg width="98" height="38" viewBox="0 0 98 38" fill="none" xmlns="http://www.w3.org/2000/svg">
<path d="M45.7345 18.0024C45.7345 22.2915 43.6347 26.0305 40.5279 27.9924C39.0834 28.9032 37.4212 29.431 35.6524 29.4533C35.6434 29.3932 35.6343 29.3308 35.6275 29.2707C35.6207 29.2128 35.6139 29.1549 35.6071 29.0948C35.6003 29.0413 35.5957 28.9901 35.5912 28.9366C35.5844 28.8787 35.5799 28.8208 35.5753 28.7652V28.7629C35.5549 28.5113 35.5459 28.2552 35.5459 27.9991C35.5459 27.743 35.5549 27.4869 35.5753 27.2353C35.5799 27.1774 35.5844 27.1195 35.5912 27.0638C35.5957 27.0059 35.6025 26.948 35.6093 26.8923C35.6162 26.8344 35.623 26.7787 35.6298 26.7208C35.6366 26.6652 35.6434 26.6073 35.6524 26.5516C36.3395 21.8973 40.2876 18.2786 45.1472 18.0047H45.7345V18.0024Z" fill="#091941"/>
<path d="M55.8325 29.4488C55.8476 29.3374 55.8628 29.2261 55.8736 29.1147C55.8628 29.2261 55.8498 29.3374 55.8325 29.4488Z" fill="#FF025D"/>
<path d="M55.9391 27.9989C55.9391 28.0791 55.9391 28.1592 55.9369 28.2394C55.9369 28.2461 55.9369 28.255 55.9369 28.2617C55.9369 28.3351 55.9323 28.4086 55.9301 28.4799C55.9301 28.4888 55.9301 28.4955 55.9278 28.5044C55.9255 28.5779 55.921 28.6491 55.9142 28.7226C55.9096 28.785 55.9051 28.8496 55.8983 28.9119C55.8938 28.9654 55.8892 29.0166 55.8824 29.0678C55.8802 29.0834 55.8802 29.0968 55.8779 29.1123C55.8711 29.168 55.8643 29.2259 55.8575 29.2816C55.8507 29.3373 55.8416 29.3929 55.8348 29.4486C54.0706 29.4286 52.4151 28.9052 50.9752 28.0011C47.8571 26.0436 45.7504 22.298 45.7504 18H46.2901C51.1747 18.2539 55.1454 21.8815 55.8348 26.5514C55.8507 26.6538 55.8643 26.7607 55.8756 26.8654C55.8756 26.8743 55.8779 26.881 55.8779 26.8899C55.8802 26.901 55.8802 26.9144 55.8824 26.9255C55.8892 26.979 55.8938 27.0324 55.8983 27.0881C55.9051 27.1504 55.9096 27.2128 55.9142 27.2751C55.9164 27.2952 55.9164 27.3152 55.9164 27.3353C55.921 27.3887 55.9233 27.4399 55.9255 27.4934C55.9255 27.5023 55.9278 27.509 55.9278 27.5179C55.9301 27.5914 55.9346 27.6626 55.9346 27.7361C55.9346 27.7428 55.9346 27.7517 55.9346 27.7584C55.9346 27.7918 55.9369 27.8252 55.9369 27.8564C55.9391 27.9054 55.9391 27.9521 55.9391 27.9989Z" fill="#FF025D"/>
<path d="M35.6506 26.5513C35.6413 26.6069 35.6344 26.6648 35.6274 26.7205C35.6344 26.6648 35.6413 26.6069 35.6506 26.5513Z" fill="#FF9704"/>
<path d="M55.8739 26.8653C55.8631 26.7606 55.8501 26.6559 55.8349 26.5513C55.8501 26.6537 55.8631 26.7606 55.8739 26.8653Z" fill="#01D5D2"/>
<path d="M45.7641 38.0002H45.195C40.3126 37.7463 36.3419 34.1209 35.6503 29.451C35.6412 29.3909 35.6322 29.3285 35.6254 29.2684C35.6185 29.2105 35.6117 29.1526 35.6049 29.0925C35.5981 29.039 35.5936 28.9878 35.5891 28.9344C35.5823 28.8765 35.5777 28.8186 35.5732 28.7629V27.233C35.5777 27.1751 35.5823 27.1172 35.5891 27.0615C35.5936 27.0036 35.6004 26.9457 35.6072 26.89C35.614 26.8321 35.6208 26.7765 35.6276 26.7186C35.6344 26.6629 35.6435 26.605 35.6503 26.5493C37.4191 26.5649 39.0813 27.086 40.5258 27.9901C41.3535 28.5068 42.1109 29.1526 42.7776 29.9008C44.6235 31.9763 45.7641 34.8379 45.7641 38.0002Z" fill="#FF9704"/>
<path d="M55.9391 27.9993C55.9391 28.0794 55.9391 28.1596 55.9369 28.2398C55.9369 28.2464 55.9369 28.2554 55.9369 28.262C55.9369 28.3355 55.9323 28.409 55.9301 28.4803C55.9301 28.4892 55.9301 28.4959 55.9278 28.5048C55.9255 28.5783 55.921 28.6495 55.9142 28.723C55.9097 28.7854 55.9051 28.8499 55.8983 28.9123C55.8938 28.9657 55.8893 29.017 55.8824 29.0682C55.8802 29.0838 55.8802 29.0971 55.8779 29.1127C55.8711 29.1684 55.8643 29.2263 55.8575 29.282C55.8507 29.3376 55.8416 29.3933 55.8348 29.449C55.1477 34.1188 51.1747 37.7465 46.2902 38.0004H45.7504C45.7504 34.8381 46.8911 31.9765 48.7347 29.9033C49.3969 29.1595 50.1497 28.5181 50.9752 28.0015C52.4152 27.0951 54.0706 26.5718 55.8348 26.5518C55.8507 26.6542 55.8643 26.7611 55.8756 26.8658C55.8756 26.8747 55.8779 26.8813 55.8779 26.8902C55.8802 26.9014 55.8802 26.9147 55.8824 26.9259C55.8893 26.9793 55.8938 27.0328 55.8983 27.0884C55.9051 27.1508 55.9097 27.2132 55.9142 27.2755C55.9165 27.2956 55.9165 27.3156 55.9165 27.3356C55.921 27.3891 55.9233 27.4403 55.9255 27.4937C55.9255 27.5027 55.9278 27.5093 55.9278 27.5182C55.9301 27.5917 55.9346 27.663 55.9346 27.7365C55.9346 27.7432 55.9346 27.7521 55.9346 27.7587C55.9346 27.7922 55.9369 27.8256 55.9369 27.8567C55.9391 27.9057 55.9391 27.9525 55.9391 27.9993Z" fill="#01D5D2"/>
<path d="M10.1161 22.3562C11.2068 22.7081 12.0912 23.3561 12.767 24.2959C13.309 25.0553 13.6786 25.8792 13.8759 26.7633C14.0732 27.6474 14.173 28.4914 14.173 29.2931C14.173 31.324 13.758 33.0455 12.9257 34.4551C11.7987 36.3547 10.0594 37.3056 7.7078 37.3056H1V22.0244H7.7078C8.67383 22.0378 9.47659 22.1491 10.1161 22.3562ZM4.15661 24.6767V34.6488H7.15902C8.69651 34.6488 9.76686 33.905 10.3723 32.4197C10.7034 31.6046 10.8689 30.6337 10.8689 29.5069C10.8689 27.9525 10.6195 26.7589 10.1229 25.926C9.62626 25.0931 8.63755 24.6767 7.15675 24.6767H4.15661Z" fill="#0C0C0C"/>
<path d="M24.9286 35.9225C23.958 37.1006 22.484 37.6885 20.5066 37.6885C18.5292 37.6885 17.0552 37.1006 16.0823 35.9225C15.1095 34.7445 14.6265 33.3282 14.6265 31.6713C14.6265 30.0412 15.1118 28.6294 16.0823 27.4357C17.0529 26.2399 18.5269 25.6431 20.5066 25.6431C22.484 25.6431 23.958 26.2399 24.9286 27.4357C25.8991 28.6294 26.3844 30.0412 26.3844 31.6713C26.3844 33.326 25.8991 34.7445 24.9286 35.9225ZM22.5203 34.288C22.992 33.6734 23.2278 32.8004 23.2278 31.6691C23.2278 30.5378 22.992 29.6671 22.5203 29.0547C22.0486 28.4445 21.3728 28.1394 20.493 28.1394C19.6131 28.1394 18.9351 28.4445 18.4611 29.0547C17.9872 29.6649 17.7491 30.5356 17.7491 31.6691C17.7491 32.8026 17.9872 33.6734 18.4611 34.288C18.9351 34.9026 19.6131 35.2099 20.493 35.2099C21.3728 35.2099 22.0486 34.9026 22.5203 34.288Z" fill="#0C0C0C"/>
<path d="M27.0307 28.2131V26.1086H28.634V22.9575H31.6137V26.1086H33.4823V28.2131H31.6137V34.1834C31.6137 34.6466 31.6726 34.9339 31.7928 35.0497C31.913 35.1633 32.2781 35.2212 32.8904 35.2212C32.9811 35.2212 33.0786 35.219 33.1807 35.2167C33.2827 35.2123 33.3825 35.2078 33.4823 35.2011V37.4103L32.0582 37.4615C30.6363 37.5105 29.6658 37.2677 29.1442 36.7355C28.8063 36.397 28.6362 35.8759 28.6362 35.17V28.2131H27.0307Z" fill="#0C0C0C"/>
<path d="M57.8076 26.2023H59.6127V27.7789C60.1479 27.1287 60.7148 26.6632 61.3112 26.3804C61.9099 26.0976 62.5743 25.9551 63.3067 25.9551C64.91 25.9551 65.994 26.5051 66.5586 27.603C66.8693 28.2043 67.0235 29.0639 67.0235 30.184V37.3057H65.0914V30.3065C65.0914 29.6295 64.9894 29.0839 64.7853 28.6697C64.4474 27.9794 63.8351 27.632 62.9485 27.632C62.4972 27.632 62.1276 27.6765 61.8396 27.7678C61.318 27.9192 60.8622 28.2243 60.4676 28.6808C60.1501 29.0483 59.946 29.4246 59.8508 29.8166C59.7556 30.2063 59.7079 30.7652 59.7079 31.4912V37.3079H57.8076V26.2023Z" fill="#0C0C0C"/>
<path d="M68.8442 22.0757H70.7446V37.3034H68.8442V22.0757Z" fill="#0C0C0C"/>
<path d="M72.5591 22.0757H74.4911V24.1913H72.5591V22.0757ZM72.5591 26.2534H74.4911V37.3034H72.5591V26.2534Z" fill="#0C0C0C"/>
<path d="M76.3232 26.2023H78.1283V27.7789C78.6635 27.1287 79.2304 26.6632 79.8268 26.3804C80.4255 26.0976 81.0899 25.9551 81.8224 25.9551C83.4256 25.9551 84.5096 26.5051 85.0742 27.603C85.3849 28.2043 85.5391 29.0639 85.5391 30.184V37.3057H83.607V30.3065C83.607 29.6295 83.505 29.0839 83.3009 28.6697C82.963 27.9794 82.3507 27.632 81.4641 27.632C81.0128 27.632 80.6432 27.6765 80.3552 27.7678C79.8336 27.9192 79.3778 28.2243 78.9832 28.6808C78.6658 29.0483 78.4617 29.4246 78.3664 29.8166C78.2712 30.2063 78.2236 30.7652 78.2236 31.4912V37.3079H76.3232V26.2023Z" fill="#0C0C0C"/>
<path d="M94.3516 26.5074C95.1045 26.877 95.6782 27.3558 96.0728 27.9437C96.4537 28.5027 96.7055 29.1574 96.8324 29.9034C96.9458 30.4156 97.0025 31.2307 97.0025 32.3508H88.7141C88.7481 33.4776 89.0203 34.3818 89.5259 35.061C90.0316 35.7424 90.8163 36.0809 91.8798 36.0809C92.8708 36.0809 93.6645 35.7602 94.2541 35.1167C94.592 34.7425 94.8323 34.3127 94.9729 33.8206H96.8415C96.7916 34.2281 96.6284 34.6824 96.3517 35.1835C96.0728 35.6845 95.7621 36.0943 95.4174 36.4127C94.8391 36.965 94.1248 37.3391 93.2744 37.5329C92.8164 37.6442 92.2993 37.6999 91.7233 37.6999C90.3151 37.6999 89.1223 37.1966 88.1449 36.1923C87.1676 35.1857 86.6777 33.7783 86.6777 31.9678C86.6777 30.184 87.1698 28.7365 88.1563 27.6231C89.1404 26.5096 90.4285 25.9551 92.0204 25.9551C92.8209 25.9529 93.5964 26.1377 94.3516 26.5074ZM95.0478 30.8655C94.9707 30.0571 94.7915 29.4113 94.5103 28.9258C93.9888 28.0284 93.1202 27.5785 91.9025 27.5785C91.0294 27.5785 90.2992 27.8881 89.7074 28.5072C89.1155 29.1262 88.8026 29.9123 88.7685 30.8655H95.0478Z" fill="#0C0C0C"/>
<path d="M6.36914 6.89453C6.36914 7.72266 6.08789 8.35742 5.52539 8.79883C4.96289 9.24023 4.16602 9.46094 3.13477 9.46094H1.81055V13H1.21289V4.43359H3.31055C5.34961 4.43359 6.36914 5.25391 6.36914 6.89453ZM1.81055 8.94531H2.98828C3.95312 8.94531 4.65039 8.78711 5.08008 8.4707C5.50977 8.15039 5.72461 7.63281 5.72461 6.91797C5.72461 6.25781 5.52148 5.76953 5.11523 5.45312C4.70898 5.13281 4.08008 4.97266 3.22852 4.97266H1.81055V8.94531ZM13.3535 9.80664C13.3535 10.8457 13.1016 11.6582 12.5977 12.2441C12.0938 12.8262 11.3984 13.1172 10.5117 13.1172C9.95312 13.1172 9.46094 12.9824 9.03516 12.7129C8.60938 12.4434 8.2832 12.0566 8.05664 11.5527C7.83008 11.0488 7.7168 10.4668 7.7168 9.80664C7.7168 8.76758 7.96875 7.95898 8.47266 7.38086C8.97656 6.79883 9.66797 6.50781 10.5469 6.50781C11.4219 6.50781 12.1074 6.80273 12.6035 7.39258C13.1035 7.97852 13.3535 8.7832 13.3535 9.80664ZM8.32617 9.80664C8.32617 10.6816 8.51758 11.3652 8.90039 11.8574C9.28711 12.3457 9.83203 12.5898 10.5352 12.5898C11.2383 12.5898 11.7812 12.3457 12.1641 11.8574C12.5508 11.3652 12.7441 10.6816 12.7441 9.80664C12.7441 8.92773 12.5488 8.24609 12.1582 7.76172C11.7715 7.27734 11.2266 7.03516 10.5234 7.03516C9.82031 7.03516 9.27734 7.27734 8.89453 7.76172C8.51562 8.24219 8.32617 8.92383 8.32617 9.80664ZM20.209 13L18.8145 8.74023C18.7246 8.45117 18.6094 8.02734 18.4688 7.46875H18.4336L18.3105 7.90234L18.0469 8.75195L16.6289 13H16.0547L14.2324 6.63086H14.8535L15.873 10.3223C16.1113 11.2363 16.2676 11.9082 16.3418 12.3379H16.377C16.6074 11.4238 16.7754 10.8164 16.8809 10.5156L18.1934 6.63086H18.7207L19.9688 10.5039C20.25 11.4219 20.4219 12.0293 20.4844 12.3262H20.5195C20.5508 12.0723 20.707 11.3926 20.9883 10.2871L21.9609 6.63086H22.5469L20.8184 13H20.209ZM26.373 13.1172C25.4473 13.1172 24.7246 12.832 24.2051 12.2617C23.6895 11.6914 23.4316 10.8926 23.4316 9.86523C23.4316 8.84961 23.6816 8.03711 24.1816 7.42773C24.6816 6.81445 25.3555 6.50781 26.2031 6.50781C26.9531 6.50781 27.5449 6.76953 27.9785 7.29297C28.4121 7.81641 28.6289 8.52734 28.6289 9.42578V9.89453H24.041C24.0488 10.7695 24.252 11.4375 24.6504 11.8984C25.0527 12.3594 25.627 12.5898 26.373 12.5898C26.7363 12.5898 27.0547 12.5645 27.3281 12.5137C27.6055 12.4629 27.9551 12.3535 28.377 12.1855V12.7129C28.0176 12.8691 27.6855 12.9746 27.3809 13.0293C27.0762 13.0879 26.7402 13.1172 26.373 13.1172ZM26.2031 7.02344C25.5898 7.02344 25.0977 7.22656 24.7266 7.63281C24.3555 8.03516 24.1387 8.61719 24.0762 9.37891H28.0137C28.0137 8.64062 27.8535 8.06445 27.5332 7.65039C27.2129 7.23242 26.7695 7.02344 26.2031 7.02344ZM32.8945 6.50781C33.1641 6.50781 33.4531 6.53516 33.7617 6.58984L33.6504 7.14648C33.3848 7.08008 33.1094 7.04688 32.8242 7.04688C32.2812 7.04688 31.8359 7.27734 31.4883 7.73828C31.1406 8.19922 30.9668 8.78125 30.9668 9.48438V13H30.3867V6.63086H30.8789L30.9375 7.7793H30.9785C31.2402 7.31055 31.5195 6.98242 31.8164 6.79492C32.1133 6.60352 32.4727 6.50781 32.8945 6.50781ZM37.3945 6.50781C37.8555 6.50781 38.2539 6.5918 38.5898 6.75977C38.9258 6.92773 39.2266 7.21484 39.4922 7.62109H39.5273C39.5039 7.12891 39.4922 6.64648 39.4922 6.17383V3.88281H40.0664V13H39.6855L39.5391 12.0273H39.4922C39.0078 12.7539 38.3125 13.1172 37.4062 13.1172C36.5273 13.1172 35.8555 12.8438 35.3906 12.2969C34.9258 11.75 34.6934 10.9531 34.6934 9.90625C34.6934 8.80469 34.9238 7.96289 35.3848 7.38086C35.8457 6.79883 36.5156 6.50781 37.3945 6.50781ZM37.3945 7.03516C36.6992 7.03516 36.1758 7.2793 35.8242 7.76758C35.4766 8.25586 35.3027 8.96484 35.3027 9.89453C35.3027 11.6992 36.0039 12.6016 37.4062 12.6016C38.125 12.6016 38.6523 12.3926 38.9883 11.9746C39.3242 11.5566 39.4922 10.8672 39.4922 9.90625V9.80664C39.4922 8.82227 39.3262 8.11523 38.9941 7.68555C38.666 7.25195 38.1328 7.03516 37.3945 7.03516ZM48.0176 6.50781C48.9082 6.50781 49.5781 6.78906 50.0273 7.35156C50.4805 7.91016 50.707 8.72852 50.707 9.80664C50.707 10.8652 50.4688 11.6816 49.9922 12.2559C49.5195 12.8301 48.8535 13.1172 47.9941 13.1172C47.541 13.1172 47.1328 13.0234 46.7695 12.8359C46.4062 12.6484 46.1191 12.3828 45.9082 12.0391H45.8555L45.6914 13H45.3281V3.88281H45.9082V6.17383C45.9082 6.51758 45.9004 6.83398 45.8848 7.12305L45.8672 7.62109H45.9082C46.1504 7.23828 46.4414 6.95703 46.7812 6.77734C47.125 6.59766 47.5371 6.50781 48.0176 6.50781ZM48.0059 7.03516C47.2559 7.03516 46.7188 7.25 46.3945 7.67969C46.0703 8.10938 45.9082 8.81836 45.9082 9.80664V9.90625C45.9082 10.8672 46.0762 11.5566 46.4121 11.9746C46.752 12.3926 47.2793 12.6016 47.9941 12.6016C48.6895 12.6016 49.2129 12.3594 49.5645 11.875C49.916 11.3867 50.0918 10.6934 50.0918 9.79492C50.0918 7.95508 49.3965 7.03516 48.0059 7.03516ZM51.4102 6.63086H52.0078L53.3555 10.2051C53.7656 11.3027 54.0254 12.043 54.1348 12.4258H54.1699C54.334 11.9219 54.6016 11.1699 54.9727 10.1699L56.3203 6.63086H56.918L54.0645 14.0312C53.834 14.6328 53.6406 15.0391 53.4844 15.25C53.3281 15.4609 53.1445 15.6191 52.9336 15.7246C52.7266 15.8301 52.4746 15.8828 52.1777 15.8828C51.9551 15.8828 51.707 15.8418 51.4336 15.7598V15.2559C51.6602 15.3184 51.9043 15.3496 52.166 15.3496C52.3652 15.3496 52.541 15.3027 52.6934 15.209C52.8457 15.1152 52.9824 14.9688 53.1035 14.7695C53.2285 14.5742 53.3711 14.2617 53.5312 13.832C53.6953 13.4062 53.8008 13.1289 53.8477 13L51.4102 6.63086Z" fill="#858585"/>
</svg>
