<svg width="14" height="8" viewBox="0 0 14 8" fill="none" xmlns="http://www.w3.org/2000/svg">
<path fill-rule="evenodd" clip-rule="evenodd" d="M7.87563 6.98749C8.21031 7.35271 8.60072 7.75445 9.2701 7.94915L9.30354 7.96134C9.984 8.07089 10.7091 7.93696 11.412 7.69355C12.3825 7.3527 13.2861 6.80485 13.8662 6.39103C13.9443 6.35454 14 6.25709 14 6.15973V1.13211C14 1.01037 13.9108 0.900807 13.7992 0.864316C12.7729 0.645214 11.6462 0.426112 10.4972 0.267793C9.33703 0.0973703 8.15458 0 6.99437 0C5.84538 0 4.65175 0.0973594 3.50274 0.267793C2.35376 0.426025 1.23813 0.633014 0.223122 0.864316C0.100387 0.876507 0 0.998249 0 1.13211V6.15973C0 6.24498 0.0446103 6.33015 0.111563 6.39103C0.691647 6.79274 1.60641 7.35268 2.58798 7.69355C3.27963 7.93703 4.01589 8.07088 4.6852 7.96134C4.69637 7.96134 4.70754 7.96134 4.72981 7.94915C5.39911 7.75434 5.78957 7.35263 6.12428 6.98749C6.40318 6.68314 6.64858 6.42755 6.99444 6.42755C7.34022 6.42755 7.58569 6.68323 7.87569 6.98749H7.87563ZM10.5528 5.0032C9.91699 5.0032 9.41502 4.44326 9.41502 3.76156C9.41502 3.06767 9.91699 2.51991 10.5528 2.51991C11.1775 2.51991 11.6907 3.06767 11.6907 3.76156C11.6907 4.44324 11.1776 5.0032 10.5528 5.0032ZM3.4468 2.51973C4.07148 2.51973 4.58463 3.0675 4.58463 3.76138C4.58463 4.44306 4.0715 5.00303 3.4468 5.00303C2.82211 5.00303 2.30897 4.44309 2.30897 3.76138C2.30897 3.0675 2.82209 2.51973 3.4468 2.51973Z" fill="#C5C7D3"/>
</svg>
