<svg width="40" height="32" viewBox="0 0 40 32" fill="none" xmlns="http://www.w3.org/2000/svg">
<path d="M33.5347 26.95C33.5347 27.4357 33.2153 27.7857 32.7569 27.7857C32.2847 27.7857 31.9792 27.4143 31.9792 26.95C31.9792 26.4857 32.2847 26.1143 32.7569 26.1143C33.2153 26.1143 33.5347 26.4857 33.5347 26.95ZM11.9514 26.1143C11.4583 26.1143 11.1736 26.4857 11.1736 26.95C11.1736 27.4143 11.4583 27.7857 11.9514 27.7857C12.4028 27.7857 12.7083 27.4357 12.7083 26.95C12.7014 26.4857 12.4028 26.1143 11.9514 26.1143ZM20.1111 26.0929C19.7361 26.0929 19.5069 26.3429 19.4514 26.7143H20.7778C20.7153 26.3071 20.4722 26.0929 20.1111 26.0929ZM27.5972 26.1143C27.125 26.1143 26.8403 26.4857 26.8403 26.95C26.8403 27.4143 27.125 27.7857 27.5972 27.7857C28.0694 27.7857 28.375 27.4357 28.375 26.95C28.375 26.4857 28.0694 26.1143 27.5972 26.1143ZM34.9514 27.9786C34.9514 28 34.9722 28.0143 34.9722 28.0571C34.9722 28.0786 34.9514 28.0929 34.9514 28.1357C34.9306 28.1571 34.9306 28.1714 34.9167 28.1929C34.8958 28.2143 34.8819 28.2286 34.8403 28.2286C34.8194 28.25 34.8056 28.25 34.7639 28.25C34.7431 28.25 34.7292 28.25 34.6875 28.2286C34.6667 28.2286 34.6528 28.2071 34.6319 28.1929C34.6111 28.1714 34.5972 28.1571 34.5972 28.1357C34.5764 28.1 34.5764 28.0786 34.5764 28.0571C34.5764 28.0214 34.5764 28 34.5972 27.9786C34.5972 27.9429 34.6181 27.9214 34.6319 27.9C34.6528 27.8786 34.6667 27.8786 34.6875 27.8643C34.7222 27.8429 34.7431 27.8429 34.7639 27.8429C34.7986 27.8429 34.8194 27.8429 34.8403 27.8643C34.875 27.8857 34.8958 27.8857 34.9167 27.9C34.9375 27.9143 34.9306 27.9429 34.9514 27.9786ZM34.7986 28.0786C34.8333 28.0786 34.8333 28.0571 34.8542 28.0571C34.875 28.0357 34.875 28.0214 34.875 28C34.875 27.9786 34.875 27.9643 34.8542 27.9429C34.8333 27.9429 34.8194 27.9214 34.7778 27.9214H34.6667V28.1714H34.7222V28.0714H34.7431L34.8194 28.1714H34.875L34.7986 28.0786ZM40 3.42857V28.5714C40 30.4643 38.5069 32 36.6667 32H3.33333C1.49306 32 0 30.4643 0 28.5714V3.42857C0 1.53571 1.49306 0 3.33333 0H36.6667C38.5069 0 40 1.53571 40 3.42857ZM4.44444 13.4C4.44444 18.8643 8.75694 23.2929 14.0625 23.2929C15.9514 23.2929 17.8056 22.7071 19.375 21.6429C14.3125 17.4071 14.3472 9.41429 19.375 5.17857C17.8056 4.10714 15.9514 3.52857 14.0625 3.52857C8.75694 3.52143 4.44444 7.95714 4.44444 13.4ZM20 21.1714C24.8958 17.2429 24.875 9.58571 20 5.63571C15.125 9.58571 15.1042 17.25 20 21.1714ZM10.1181 26.6214C10.1181 26 9.72222 25.5929 9.09722 25.5714C8.77778 25.5714 8.4375 25.6714 8.20833 26.0357C8.04167 25.7429 7.75694 25.5714 7.36111 25.5714C7.09722 25.5714 6.83333 25.6714 6.625 25.9571V25.6429H6.05556V28.2643H6.625C6.625 26.9143 6.45139 26.1071 7.25 26.1071C7.95833 26.1071 7.81944 26.8357 7.81944 28.2643H8.36806C8.36806 26.9571 8.19444 26.1071 8.99306 26.1071C9.70139 26.1071 9.5625 26.8214 9.5625 28.2643H10.1319V26.6214H10.1181ZM13.2361 25.6429H12.6875V25.9571C12.5 25.7214 12.2361 25.5714 11.875 25.5714C11.1597 25.5714 10.6111 26.1571 10.6111 26.95C10.6111 27.75 11.1597 28.3286 11.875 28.3286C12.2361 28.3286 12.5 28.1929 12.6875 27.9429V28.2714H13.2361V25.6429ZM16.0486 27.4714C16.0486 26.4 14.4583 26.8857 14.4583 26.3857C14.4583 25.9786 15.2847 26.0429 15.7431 26.3071L15.9722 25.8429C15.3194 25.4071 13.875 25.4143 13.875 26.4286C13.875 27.45 15.4653 27.0214 15.4653 27.5C15.4653 27.95 14.5278 27.9143 14.0278 27.5571L13.7847 28.0071C14.5625 28.55 16.0486 28.4357 16.0486 27.4714ZM18.5069 28.1357L18.3542 27.65C18.0903 27.8 17.5069 27.9643 17.5069 27.3571V26.1714H18.4167V25.6429H17.5069V24.8429H16.9375V25.6429H16.4097V26.1643H16.9375V27.3571C16.9375 28.6143 18.1389 28.3857 18.5069 28.1357ZM19.4306 27.1786H21.3403C21.3403 26.0214 20.8264 25.5643 20.1319 25.5643C19.3958 25.5643 18.8681 26.1286 18.8681 26.9429C18.8681 28.4071 20.4375 28.65 21.2153 27.9571L20.9514 27.5286C20.4097 27.9857 19.5903 27.9429 19.4306 27.1786ZM23.5347 25.6429C23.2153 25.5 22.7292 25.5143 22.4792 25.9571V25.6429H21.9097V28.2643H22.4792V26.7857C22.4792 25.9571 23.1389 26.0643 23.3681 26.1857L23.5347 25.6429ZM24.2708 26.95C24.2708 26.1357 25.0764 25.8714 25.7083 26.35L25.9722 25.8857C25.1667 25.2357 23.7014 25.5929 23.7014 26.9571C23.7014 28.3714 25.2569 28.6571 25.9722 28.0286L25.7083 27.5643C25.0694 28.0286 24.2708 27.75 24.2708 26.95ZM28.9028 25.6429H28.3333V25.9571C27.7569 25.1714 26.2569 25.6143 26.2569 26.95C26.2569 28.3214 27.8125 28.7143 28.3333 27.9429V28.2714H28.9028V25.6429ZM31.2431 25.6429C31.0764 25.5571 30.4792 25.4357 30.1875 25.9571V25.6429H29.6389V28.2643H30.1875V26.7857C30.1875 26 30.8125 26.05 31.0764 26.1857L31.2431 25.6429ZM34.0417 24.5786H33.4931V25.9571C32.9236 25.1786 31.4167 25.5929 31.4167 26.95C31.4167 28.3357 32.9792 28.7071 33.4931 27.9429V28.2714H34.0417V24.5786ZM34.5694 19.2143V19.5429H34.625V19.2143H34.7569V19.1571H34.4375V19.2143H34.5694ZM35.0278 28.0571C35.0278 28.0214 35.0278 27.9786 35.0069 27.9429C34.9861 27.9214 34.9722 27.8857 34.9514 27.8643C34.9306 27.8429 34.8958 27.8286 34.875 27.8071C34.8403 27.8071 34.7986 27.7857 34.7639 27.7857C34.7431 27.7857 34.7083 27.8071 34.6667 27.8071C34.6319 27.8286 34.6111 27.8429 34.5903 27.8643C34.5556 27.8857 34.5347 27.9214 34.5347 27.9429C34.5139 27.9786 34.5139 28.0214 34.5139 28.0571C34.5139 28.0786 34.5139 28.1143 34.5347 28.1571C34.5347 28.1786 34.5556 28.2143 34.5903 28.2357C34.6111 28.2571 34.625 28.2714 34.6667 28.2929C34.7014 28.3143 34.7431 28.3143 34.7639 28.3143C34.7986 28.3143 34.8403 28.3143 34.875 28.2929C34.8958 28.2714 34.9306 28.2571 34.9514 28.2357C34.9722 28.2143 34.9861 28.1786 35.0069 28.1571C35.0278 28.1143 35.0278 28.0786 35.0278 28.0571ZM35.25 19.15H35.1528L35.0417 19.4L34.9306 19.15H34.8333V19.5357H34.8889V19.2429L35 19.4929H35.0764L35.1736 19.2429V19.5357H35.25V19.15ZM35.5556 13.4C35.5556 7.95714 31.2431 3.52143 25.9375 3.52143C24.0486 3.52143 22.1944 4.10714 20.625 5.17143C25.6319 9.40714 25.7083 17.4214 20.625 21.6357C22.1944 22.7071 24.0625 23.2857 25.9375 23.2857C31.2431 23.2929 35.5556 18.8643 35.5556 13.4Z" fill="#C5C7D3"/>
</svg>
