<svg width="40" height="32" viewBox="0 0 40 32" fill="none" xmlns="http://www.w3.org/2000/svg">
<path d="M12.9375 16.1571C12.9375 17.0286 12.2639 17.6929 11.4097 17.6929C10.7708 17.6929 10.2986 17.3214 10.2986 16.6214C10.2986 15.75 10.9583 15.05 11.8056 15.05C12.4514 15.05 12.9375 15.4571 12.9375 16.1571ZM5.59028 12.6929H5.26389C5.15972 12.6929 5.05556 12.7643 5.04167 12.8857L4.74306 14.7929L5.3125 14.7714C6.07639 14.7714 6.66667 14.6643 6.80556 13.7571C6.96528 12.8 6.375 12.6929 5.59028 12.6929ZM25.3125 12.6929H25C24.875 12.6929 24.7917 12.7643 24.7778 12.8857L24.4861 14.7929L25.0417 14.7714C25.9444 14.7714 26.5694 14.5571 26.5694 13.4857C26.5625 12.7286 25.9028 12.6929 25.3125 12.6929ZM40 3.42857V28.5714C40 30.4643 38.5069 32 36.6667 32H3.33333C1.49306 32 0 30.4643 0 28.5714V3.42857C0 1.53571 1.49306 0 3.33333 0H36.6667C38.5069 0 40 1.53571 40 3.42857ZM8.90972 13.1C8.90972 11.6 7.78472 11.1 6.5 11.1H3.72222C3.54861 11.1 3.375 11.2429 3.36111 11.4357L2.22222 18.7286C2.20139 18.8714 2.30556 19.0143 2.44444 19.0143H3.76389C3.95139 19.0143 4.125 18.8071 4.14583 18.6071L4.45833 16.7071C4.52778 16.1929 5.375 16.3714 5.70833 16.3714C7.69444 16.3714 8.90972 15.1571 8.90972 13.1ZM14.7569 13.7286H13.4375C13.1736 13.7286 13.1597 14.1214 13.1458 14.3143C12.7431 13.7071 12.1597 13.6 11.5 13.6C9.79861 13.6 8.5 15.1357 8.5 16.8286C8.5 18.2214 9.34722 19.1286 10.7014 19.1286C11.3264 19.1286 12.1042 18.7786 12.5417 18.2786C12.5069 18.3857 12.4722 18.6143 12.4722 18.7214C12.4722 18.8857 12.5417 19.0071 12.6944 19.0071H13.8889C14.0764 19.0071 14.2361 18.8 14.2708 18.6L14.9792 14.0071C15 13.8714 14.8958 13.7286 14.7569 13.7286ZM17.5694 20.7214L21.9931 14.1071C22.0278 14.0714 22.0278 14.0357 22.0278 13.9857C22.0278 13.8643 21.9236 13.7357 21.8056 13.7357H20.4722C20.3542 13.7357 20.2292 13.8071 20.1597 13.9143L18.3194 16.7L17.5556 14.0214C17.5 13.8643 17.3472 13.7357 17.1736 13.7357H15.875C15.7569 13.7357 15.6528 13.8643 15.6528 13.9857C15.6528 14.0714 17.0069 18.0429 17.125 18.4214C16.9375 18.6929 15.7014 20.4643 15.7014 20.6786C15.7014 20.8071 15.8056 20.9071 15.9236 20.9071H17.2569C17.3819 20.9 17.5 20.8286 17.5694 20.7214ZM28.6319 13.1C28.6319 11.6 27.5069 11.1 26.2222 11.1H23.4653C23.2778 11.1 23.1042 11.2429 23.0833 11.4357L21.9583 18.7214C21.9444 18.8643 22.0486 19.0071 22.1806 19.0071H23.6042C23.7431 19.0071 23.8472 18.9 23.8819 18.7786L24.1944 16.7071C24.2639 16.1929 25.1111 16.3714 25.4444 16.3714C27.4167 16.3714 28.6319 15.1571 28.6319 13.1ZM34.4792 13.7286H33.1597C32.8958 13.7286 32.8819 14.1214 32.8611 14.3143C32.4792 13.7071 31.8889 13.6 31.2153 13.6C29.5139 13.6 28.2153 15.1357 28.2153 16.8286C28.2153 18.2214 29.0625 19.1286 30.4167 19.1286C31.0625 19.1286 31.8403 18.7786 32.2569 18.2786C32.2361 18.3857 32.1875 18.6143 32.1875 18.7214C32.1875 18.8857 32.2569 19.0071 32.4097 19.0071H33.6111C33.7986 19.0071 33.9583 18.8 33.9931 18.6L34.7014 14.0071C34.7222 13.8714 34.6181 13.7286 34.4792 13.7286ZM37.7778 11.35C37.7778 11.2071 37.6736 11.1 37.5556 11.1H36.2708C36.1667 11.1 36.0625 11.1857 36.0486 11.2929L34.9236 18.7214L34.9028 18.7571C34.9028 18.8857 35.0069 19.0071 35.1458 19.0071H36.2917C36.4653 19.0071 36.6389 18.8 36.6528 18.6L37.7778 11.3714V11.35ZM31.5278 15.05C30.6806 15.05 30.0208 15.7429 30.0208 16.6214C30.0208 17.3143 30.5069 17.6929 31.1458 17.6929C31.9792 17.6929 32.6528 17.0357 32.6528 16.1571C32.6597 15.4571 32.1736 15.05 31.5278 15.05Z" fill="#C5C7D3"/>
</svg>
