<svg width="26" height="26" viewBox="0 0 26 26" fill="none" xmlns="http://www.w3.org/2000/svg">
<path fill-rule="evenodd" clip-rule="evenodd" d="M13 26C20.1797 26 26 20.1797 26 13C26 5.8203 20.1797 0 13 0C5.8203 0 0 5.8203 0 13C0 20.1797 5.8203 26 13 26ZM14.5 7C14.5 6.17157 13.8284 5.5 13 5.5C12.1716 5.5 11.5 6.17157 11.5 7V11.5H7C6.17157 11.5 5.5 12.1716 5.5 13C5.5 13.8284 6.17157 14.5 7 14.5H11.5V19C11.5 19.8284 12.1716 20.5 13 20.5C13.8284 20.5 14.5 19.8284 14.5 19V14.5H19C19.8284 14.5 20.5 13.8284 20.5 13C20.5 12.1716 19.8284 11.5 19 11.5H14.5V7Z" fill="#C5C7D3"/>
</svg>
