<svg width="16" height="18" viewBox="0 0 16 18" fill="none" xmlns="http://www.w3.org/2000/svg">
<path d="M8.80249 13.2789H15.6642L12.2789 7.45312L8.80249 13.2789Z" fill="#C5C7D3"/>
<path d="M4.45959 6.91162L8.0001 12.8397L11.5384 6.91162H4.45959Z" fill="#C5C7D3"/>
<path d="M6.72697 0.460449L0.459595 4.16925L3.57267 5.88835L6.72697 0.460449Z" fill="#C5C7D3"/>
<path d="M0 4.9541V12.035L3.1132 6.67539L0 4.9541Z" fill="#C5C7D3"/>
<path d="M3.71886 7.45312L0.333618 13.2789H7.19528L3.71886 7.45312Z" fill="#C5C7D3"/>
<path d="M11.4355 6.00217L8.00007 0.0878906L4.56238 6.00217H11.4355Z" fill="#C5C7D3"/>
<path d="M15.5384 4.16925L9.27307 0.460449L12.425 5.88827L15.5384 4.16925Z" fill="#C5C7D3"/>
<path d="M12.8845 6.67539L16 12.035V4.9541L12.8845 6.67539Z" fill="#C5C7D3"/>
<path d="M8.45715 17.9336L14.7931 14.1885H8.45715V17.9336Z" fill="#C5C7D3"/>
<path d="M7.54286 17.9336V14.1885H1.20447L7.54286 17.9336Z" fill="#C5C7D3"/>
</svg>
