<svg width="40" height="32" viewBox="0 0 40 32" fill="none" xmlns="http://www.w3.org/2000/svg">
<path d="M32.6458 14.2357C32.6458 14.2357 33.1736 16.8929 33.2917 17.45H30.9722C31.2014 16.8143 32.0833 14.3429 32.0833 14.3429C32.0694 14.3643 32.3125 13.6929 32.4514 13.2786L32.6458 14.2357ZM40 3.42857V28.5714C40 30.4643 38.5069 32 36.6667 32H3.33333C1.49306 32 0 30.4643 0 28.5714V3.42857C0 1.53571 1.49306 0 3.33333 0H36.6667C38.5069 0 40 1.53571 40 3.42857ZM10.5903 21.3714L14.9792 10.2857H12.0278L9.29861 17.8571L9 16.3214L8.02778 11.2214C7.86806 10.5143 7.375 10.3143 6.76389 10.2857H2.27083L2.22222 10.5071C3.31944 10.7929 4.29861 11.2071 5.15278 11.7286L7.63889 21.3714H10.5903ZM17.1458 21.3857L18.8958 10.2857H16.1042L14.3611 21.3857H17.1458ZM26.8611 17.7571C26.875 16.4929 26.125 15.5286 24.5208 14.7357C23.5417 14.2286 22.9444 13.8857 22.9444 13.3643C22.9583 12.8929 23.4514 12.4071 24.5486 12.4071C25.4583 12.3857 26.125 12.6071 26.625 12.8286L26.875 12.95L27.2569 10.55C26.7083 10.3286 25.8333 10.0786 24.7569 10.0786C22 10.0786 20.0625 11.5929 20.0486 13.75C20.0278 15.3429 21.4375 16.2286 22.4931 16.7643C23.5694 17.3071 23.9375 17.6643 23.9375 18.1429C23.9236 18.8857 23.0625 19.2286 22.2639 19.2286C21.1528 19.2286 20.5556 19.05 19.6458 18.6357L19.2778 18.4571L18.8889 20.95C19.5417 21.2571 20.75 21.5286 22 21.5429C24.9306 21.55 26.8403 20.0571 26.8611 17.7571ZM36.6667 21.3857L34.4167 10.2857H32.2569C31.5903 10.2857 31.0833 10.4857 30.7986 11.2071L26.6528 21.3857H29.5833C29.5833 21.3857 30.0625 20.0143 30.1667 19.7214H33.75C33.8333 20.1143 34.0833 21.3857 34.0833 21.3857H36.6667Z" fill="#C5C7D3"/>
</svg>
